<svg width="24" height="24" viewBox="0 0 24 24" fill="none" xmlns="http://www.w3.org/2000/svg">
<path d="M12 3.05176e-05C5.37109 3.05176e-05 0 5.37112 0 12C0 18.6289 5.37109 24 12 24C18.6289 24 24 18.6289 24 12C24 5.37112 18.6289 3.05176e-05 12 3.05176e-05ZM12 2.00003C17.5234 2.00003 22 6.47659 22 12C22 17.5235 17.5234 22 12 22C6.47656 22 2 17.5235 2 12C2 6.47659 6.47656 2.00003 12 2.00003ZM12 5.81253C11.8164 5.81253 11.6641 5.80862 11.5 5.84378C11.3359 5.87894 11.1836 5.96878 11.0625 6.06253C10.9414 6.15628 10.8516 6.28519 10.7812 6.43753C10.7109 6.58987 10.6875 6.76956 10.6875 7.00003C10.6875 7.22659 10.7109 7.40628 10.7812 7.56253C10.8516 7.71878 10.9414 7.84378 11.0625 7.93753C11.1836 8.03128 11.3359 8.08597 11.5 8.12503C11.6641 8.16409 11.8164 8.18753 12 8.18753C12.1797 8.18753 12.3711 8.16409 12.5312 8.12503C12.6914 8.08597 12.8164 8.03128 12.9375 7.93753C13.0586 7.84378 13.1484 7.71878 13.2188 7.56253C13.2891 7.41019 13.3438 7.22659 13.3438 7.00003C13.3438 6.76956 13.2891 6.58987 13.2188 6.43753C13.1484 6.28519 13.0586 6.15628 12.9375 6.06253C12.8164 5.96878 12.6914 5.87894 12.5312 5.84378C12.3711 5.80862 12.1797 5.81253 12 5.81253ZM10.7812 9.15628V18.125H13.2188V9.15628H10.7812Z" fill="#1D3A70"/>
</svg>
