<svg width="18" height="18" viewBox="0 0 18 18" fill="none" xmlns="http://www.w3.org/2000/svg">
<path d="M0 16.2H18V18H0V16.2ZM1.8 9H3.6V15.3H1.8V9ZM6.3 9H8.1V15.3H6.3V9ZM9.9 9H11.7V15.3H9.9V9ZM14.4 9H16.2V15.3H14.4V9ZM0 4.5L9 0L18 4.5V8.1H0V4.5ZM1.8 5.6124V6.3H16.2V5.6124L9 2.0124L1.8 5.6124ZM9 5.4C8.7613 5.4 8.53239 5.30518 8.3636 5.1364C8.19482 4.96761 8.1 4.73869 8.1 4.5C8.1 4.2613 8.19482 4.03239 8.3636 3.8636C8.53239 3.69482 8.7613 3.6 9 3.6C9.23869 3.6 9.46761 3.69482 9.6364 3.8636C9.80518 4.03239 9.9 4.2613 9.9 4.5C9.9 4.73869 9.80518 4.96761 9.6364 5.1364C9.46761 5.30518 9.23869 5.4 9 5.4Z" fill="#1DAB87"/>
</svg>
