<svg width="21" height="24" viewBox="0 0 21 24" fill="none" xmlns="http://www.w3.org/2000/svg">
<g clip-path="url(#clip0_826_2147)">
<path d="M19.6002 18.2417C19.2497 19.0526 18.8349 19.799 18.3543 20.4852C17.6992 21.4207 17.1629 22.0682 16.7495 22.4278C16.1087 23.0181 15.4221 23.3203 14.6869 23.3375C14.1591 23.3375 13.5226 23.1871 12.7817 22.882C12.0383 22.5782 11.3552 22.4278 10.7306 22.4278C10.0755 22.4278 9.3729 22.5782 8.62139 22.882C7.86874 23.1871 7.26242 23.3461 6.79884 23.3619C6.09382 23.392 5.39109 23.0811 4.68965 22.4278C4.24195 22.0367 3.68197 21.3662 3.01114 20.4164C2.29139 19.4021 1.69965 18.2259 1.23608 16.885C0.739603 15.4366 0.490723 14.0341 0.490723 12.6763C0.490723 11.1209 0.826282 9.77939 1.4984 8.65522C2.02663 7.75224 2.72936 7.03994 3.60888 6.51704C4.4884 5.99413 5.43872 5.72766 6.46214 5.71062C7.02212 5.71062 7.75646 5.88411 8.66902 6.22507C9.57901 6.56718 10.1633 6.74067 10.4195 6.74067C10.611 6.74067 11.2601 6.53781 12.3605 6.13338C13.401 5.75832 14.2793 5.60303 14.9987 5.6642C16.9483 5.82179 18.413 6.59153 19.387 7.9783C17.6435 9.03643 16.781 10.5185 16.7981 12.4197C16.8139 13.9006 17.3502 15.1329 18.4044 16.1114C18.8821 16.5655 19.4157 16.9165 20.0092 17.1658C19.8805 17.5397 19.7446 17.8979 19.6002 18.2417ZM15.1289 0.619099C15.1289 1.77982 14.7055 2.86358 13.8616 3.8667C12.8432 5.05921 11.6114 5.74829 10.2756 5.63956C10.2586 5.50031 10.2487 5.35375 10.2487 5.19975C10.2487 4.08546 10.733 2.89295 11.5931 1.91791C12.0225 1.42423 12.5686 1.01374 13.2308 0.686288C13.8917 0.36372 14.5167 0.185333 15.1046 0.154785C15.1217 0.309955 15.1289 0.465135 15.1289 0.619084V0.619099Z" fill="black"/>
</g>
<defs>
<clipPath id="clip0_826_2147">
<rect width="19.5185" height="23.2091" fill="white" transform="translate(0.490723 0.154297)"/>
</clipPath>
</defs>
</svg>
