<svg width="20" height="24" viewBox="0 0 20 24" fill="none" xmlns="http://www.w3.org/2000/svg">
<path d="M9.21351 0.982407C8.74297 1.11074 8.71623 1.12678 7.40621 1.92349C6.81804 2.28174 6.28868 2.59187 6.22987 2.61325C6.17105 2.63464 5.23532 2.83248 4.14987 3.05171C1.78648 3.5276 1.60468 3.59176 0.957693 4.2441C0.449725 4.75741 0.193067 5.24399 0.0700854 5.93376C-0.0422022 6.59679 -0.00477302 11.4626 0.123556 12.3235C0.422989 14.3607 1.10741 16.1626 2.19286 17.7774C3.87182 20.2745 6.41701 22.1353 9.25094 22.9373C9.90862 23.1245 10.1653 23.1191 10.9139 22.8892C14.999 21.6487 18.1912 18.4405 19.437 14.3179C19.6883 13.4945 19.8755 12.4571 19.9397 11.5161C20.0306 10.3183 20.0145 6.4043 19.9183 5.88029C19.7258 4.80554 18.9184 3.85911 17.881 3.49551C17.7099 3.4367 16.7261 3.21747 15.6941 3.01428C14.6675 2.81109 13.7371 2.59721 13.6355 2.54909C13.5339 2.49562 12.9832 2.16945 12.4164 1.82189C11.8175 1.45295 11.224 1.13212 10.9994 1.05192C10.4701 0.870119 9.74821 0.838037 9.21351 0.982407ZM10.7053 2.78971C10.8604 2.87526 11.4272 3.21747 11.9672 3.54364C12.5554 3.90189 13.0794 4.17993 13.2826 4.2441C13.4644 4.29757 14.4162 4.5061 15.4 4.6986C16.3839 4.89644 17.2875 5.09428 17.4052 5.14775C17.7099 5.27608 17.9506 5.506 18.1163 5.82147L18.2607 6.09417V8.76769C18.2607 10.6873 18.2393 11.5909 18.1912 11.9759C17.8543 14.489 16.7742 16.7241 15.0525 18.4458C14.1221 19.3816 13.1543 20.066 11.9672 20.6381C11.3042 20.9536 10.2027 21.36 10.0049 21.36C9.95675 21.36 9.73752 21.3011 9.51829 21.2316C5.31552 19.8842 2.39604 16.3819 1.80787 11.9759C1.75975 11.5909 1.73836 10.6873 1.73836 8.76769V6.09417L1.88273 5.82147C2.04849 5.506 2.2891 5.27608 2.59388 5.14775C2.71152 5.09428 3.61517 4.89644 4.59902 4.6986C5.58287 4.5061 6.53465 4.29757 6.71645 4.2441C6.92498 4.17993 7.49711 3.86981 8.21896 3.4367C8.8606 3.04636 9.46482 2.69881 9.57176 2.66138C9.87119 2.54909 10.3685 2.60256 10.7053 2.78971Z" fill="#1D3A70"/>
<path d="M13.1332 8.92807C12.9674 8.98689 12.4381 9.48416 10.8821 11.0401L8.85022 13.072L8.26205 12.4785C7.93588 12.1523 7.60971 11.8529 7.5295 11.8101C7.20333 11.639 6.67933 11.7673 6.4601 12.0721C6.31038 12.2807 6.2676 12.7298 6.37989 12.9437C6.42802 13.0292 6.9039 13.5372 7.44395 14.0719C8.50801 15.1253 8.63099 15.2055 9.05876 15.1039C9.2459 15.0611 9.58811 14.7403 11.7002 12.6336C13.069 11.2647 14.1598 10.1365 14.2026 10.0403C14.4913 9.37187 13.8176 8.67676 13.1332 8.92807Z" fill="#1D3A70"/>
</svg>
