<svg width="35" height="35" viewBox="0 0 35 35" fill="none" xmlns="http://www.w3.org/2000/svg">
<g clip-path="url(#clip0_65_527)">
<path d="M35 8.90219C35 7.34241 33.7446 6.08698 32.1848 6.08698H2.81522C1.25543 6.08698 0 7.34241 0 8.90219V26.1359C0 27.6576 1.25543 28.9131 2.81522 28.9131H32.2228C33.7826 28.9131 35.038 27.6576 35.038 26.0978V8.90219H35ZM31.9565 9.13045V11.7935H3.04348V9.13045H31.9565ZM3.04348 25.8696V16.3587H31.9565V25.8696H3.04348ZM29.1033 20.9239C29.1033 21.7609 28.4185 22.4457 27.5815 22.4457H20.3533C19.5163 22.4457 18.8315 21.7609 18.8315 20.9239C18.8315 20.087 19.5163 19.4022 20.3533 19.4022H27.5815C28.4185 19.4022 29.1033 20.087 29.1033 20.9239Z" fill="#1D3A70"/>
</g>
<defs>
<clipPath id="clip0_65_527">
<rect width="35" height="35" fill="white"/>
</clipPath>
</defs>
</svg>
