<svg width="13" height="13" viewBox="0 0 13 13" fill="none" xmlns="http://www.w3.org/2000/svg">
<path fill-rule="evenodd" clip-rule="evenodd" d="M0 6.5C0 2.925 2.925 0 6.5 0C10.075 0 13 2.925 13 6.5C13 10.075 10.075 13 6.5 13C2.925 13 0 10.075 0 6.5ZM10.2917 4.33333C10.082 4.12371 9.80853 4.01807 9.53418 4.01807C9.25983 4.01807 8.9842 4.12371 8.77458 4.33333L5.95833 7.14958L4.76709 5.95833C4.34784 5.53908 3.66925 5.53908 3.25 5.95833C2.83075 6.37758 2.83075 7.05617 3.25 7.47542L5.31299 9.53841C5.6694 9.89483 6.24726 9.89483 6.60368 9.53841L10.2917 5.85042C10.7109 5.43117 10.7109 4.75258 10.2917 4.33333Z" fill="#1DAB87"/>
</svg>
