<svg width="35" height="31" viewBox="0 0 35 31" fill="none" xmlns="http://www.w3.org/2000/svg">
<path d="M7.10231 0.283203C5.42067 0.87793 4.47731 2.60742 4.88747 4.35059C5.15407 5.47168 5.99489 6.40137 7.10231 6.79102C7.73806 7.0166 8.7361 7.0166 9.37185 6.79102C11.0535 6.20312 11.9969 4.4668 11.5867 2.72363C11.3201 1.60254 10.4793 0.672852 9.37185 0.283203C9.01638 0.15332 8.77712 0.119141 8.23708 0.119141C7.69704 0.119141 7.45778 0.15332 7.10231 0.283203Z" fill="#1D3A70"/>
<path d="M16.4609 0.249023C14.998 0.720703 14.082 1.98535 14.082 3.53711C14.082 5.49902 15.5381 6.95508 17.5 6.95508C19.4619 6.95508 20.918 5.49902 20.918 3.53711C20.918 1.98535 19.9883 0.700195 18.5322 0.255859C17.9648 0.078125 17.0078 0.078125 16.4609 0.249023Z" fill="#1D3A70"/>
<path d="M25.6277 0.283203C23.9461 0.87793 23.0027 2.60742 23.4129 4.35059C23.6795 5.47168 24.5203 6.40137 25.6277 6.79102C26.2634 7.0166 27.2615 7.0166 27.8972 6.79102C29.0047 6.40137 29.8455 5.47168 30.1121 4.35059C30.5222 2.60742 29.5789 0.871094 27.8972 0.283203C27.5418 0.15332 27.3025 0.119141 26.7625 0.119141C26.2224 0.119141 25.9832 0.15332 25.6277 0.283203Z" fill="#1D3A70"/>
<path d="M5.16113 8.62305C4.89453 9.04004 4.68262 9.63477 4.62109 10.1406L4.58008 10.4893L5.01758 10.6055C6.18652 10.9268 7.2666 11.6855 8.07324 12.7588L8.24414 12.9912L8.4082 12.7588C9.1123 11.7539 10.2881 10.9268 11.457 10.6055L11.8945 10.4893L11.8535 10.1406C11.8262 9.94922 11.751 9.61426 11.6758 9.38867C11.5391 8.97168 11.1221 8.25391 11.0195 8.25391C10.9854 8.25391 10.7461 8.34961 10.4932 8.46582C9.05762 9.11523 7.41699 9.11523 5.98145 8.46582C5.72852 8.34961 5.48926 8.25391 5.45508 8.25391C5.42773 8.25391 5.29102 8.41797 5.16113 8.62305Z" fill="#1D3A70"/>
<path d="M14.4443 8.5752C14.1641 9.02637 13.9521 9.63477 13.8975 10.0928L13.8564 10.4893L14.2803 10.6055C15.4424 10.9336 16.5498 11.6855 17.1924 12.5879C17.3428 12.793 17.4795 12.9707 17.5 12.9707C17.5205 12.9707 17.6572 12.7998 17.8076 12.5879C18.4639 11.665 19.6123 10.8994 20.8086 10.5781L21.1436 10.4893L21.1025 10.0928C21.0274 9.43652 20.501 8.25391 20.2686 8.25391C20.2207 8.25391 19.9883 8.34277 19.749 8.45898C19.0449 8.78711 18.334 8.9375 17.5 8.9375C16.666 8.9375 15.9551 8.78711 15.251 8.45898C15.0117 8.34277 14.7793 8.25391 14.7314 8.25391C14.6836 8.25391 14.5537 8.39746 14.4443 8.5752Z" fill="#1D3A70"/>
<path d="M23.6865 8.62305C23.4199 9.04004 23.208 9.63477 23.1465 10.1406L23.1055 10.4893L23.543 10.6055C24.7119 10.9268 25.792 11.6855 26.5986 12.7588L26.7695 12.9912L26.9336 12.7588C27.6377 11.7539 28.8135 10.9268 29.9824 10.6055L30.4199 10.4893L30.3789 10.1406C30.3516 9.94922 30.2764 9.61426 30.2012 9.38867C30.0645 8.97168 29.6475 8.25391 29.5449 8.25391C29.5107 8.25391 29.2715 8.34961 29.0186 8.46582C27.583 9.11523 25.9424 9.11523 24.5068 8.46582C24.2539 8.34961 24.0146 8.25391 23.9805 8.25391C23.9531 8.25391 23.8164 8.41797 23.6865 8.62305Z" fill="#1D3A70"/>
<path d="M2.65918 12.5195C1.79785 12.7587 0.888672 13.5175 0.512695 14.3037C0.321289 14.7206 0.136719 15.4521 0.136719 15.8417C0.136719 16.2314 0.321289 16.9628 0.512695 17.3798C0.895508 18.1796 1.80469 18.9316 2.69336 19.164C3.21973 19.3076 4.14258 19.2871 4.66895 19.123C6.67188 18.5009 7.63574 16.1562 6.66504 14.2421C6.27539 13.4628 5.50293 12.8203 4.66895 12.5605C4.14941 12.4033 3.16504 12.3828 2.65918 12.5195Z" fill="#1D3A70"/>
<path d="M11.7441 12.5811C10.3291 13.0733 9.43359 14.3379 9.43359 15.8419C9.43359 17.3799 10.3906 18.6924 11.8398 19.1299C12.2363 19.253 12.4414 19.2735 13.0635 19.2462C13.7676 19.2188 13.8359 19.1983 14.376 18.9317C15.3603 18.4463 16.0098 17.6124 16.2353 16.5596C16.3584 15.9581 16.3584 15.7256 16.2353 15.1241C16.0098 14.0713 15.3603 13.2374 14.376 12.752C13.8154 12.4717 13.7812 12.4649 13.0019 12.4444C12.3047 12.4239 12.1475 12.4376 11.7441 12.5811Z" fill="#1D3A70"/>
<path d="M21.1846 12.5195C20.3232 12.7587 19.4141 13.5175 19.0381 14.3037C18.8467 14.7206 18.6621 15.4521 18.6621 15.8417C18.6621 16.2314 18.8467 16.9628 19.0381 17.3798C19.4209 18.1796 20.3301 18.9316 21.2188 19.164C21.7451 19.3076 22.668 19.2871 23.1943 19.123C25.1973 18.5009 26.1611 16.1562 25.1904 14.2421C24.8008 13.4628 24.0283 12.8203 23.1943 12.5605C22.6748 12.4033 21.6904 12.3828 21.1846 12.5195Z" fill="#1D3A70"/>
<path d="M30.2695 12.5811C28.8545 13.0733 27.959 14.3379 27.959 15.8419C27.959 17.3799 28.916 18.6924 30.3652 19.1299C30.7617 19.253 30.9668 19.2735 31.5889 19.2462C32.293 19.2188 32.3613 19.1983 32.9014 18.9317C33.8857 18.4463 34.5351 17.6124 34.7607 16.5596C34.8838 15.9581 34.8838 15.7256 34.7607 15.1241C34.5351 14.0713 33.8857 13.2374 32.9014 12.752C32.3408 12.4717 32.3066 12.4649 31.5273 12.4444C30.8301 12.4239 30.6728 12.4376 30.2695 12.5811Z" fill="#1D3A70"/>
<path d="M0.663086 20.709C0.430664 21.0166 0.239258 21.4131 0.109375 21.8506C0.0136719 22.1787 0 22.7461 0 26.2256C0 30.0332 0.00683594 30.2383 0.129883 30.4297C0.198242 30.5322 0.348633 30.6826 0.451172 30.751C0.635742 30.874 0.827148 30.8809 3.5957 30.8809H6.54199L6.77441 30.7236C7.25977 30.4023 7.24609 30.5322 7.24609 26.3008C7.24609 21.7959 7.23926 21.7617 6.61035 20.8252L6.40527 20.5107L5.91992 20.7363C4.61426 21.3516 2.99414 21.4268 1.70898 20.9209C1.46289 20.8252 1.16895 20.6885 1.0459 20.6133L0.833984 20.4834L0.663086 20.709Z" fill="#1D3A70"/>
<path d="M9.85746 20.8252C9.57719 21.2422 9.39262 21.6934 9.30375 22.1719C9.2559 22.418 9.22855 23.9629 9.22855 26.3281C9.22855 30.5254 9.21488 30.4023 9.70023 30.7236L9.93266 30.8809H12.8789C15.6475 30.8809 15.8389 30.874 16.0235 30.751C16.126 30.6826 16.2764 30.5322 16.3448 30.4297C16.4678 30.2383 16.4746 30.0332 16.4746 26.2256C16.4746 22.7461 16.461 22.1787 16.3653 21.8506C16.2354 21.4131 16.044 21.0166 15.8116 20.709L15.6407 20.4834L15.4287 20.6133C14.1026 21.4131 12.086 21.4609 10.5547 20.7363L10.0694 20.5107L9.85746 20.8252Z" fill="#1D3A70"/>
<path d="M19.1885 20.709C18.9561 21.0166 18.7646 21.4131 18.6348 21.8506C18.5391 22.1787 18.5254 22.7461 18.5254 26.2256C18.5254 30.0332 18.5322 30.2383 18.6553 30.4297C18.7236 30.5322 18.874 30.6826 18.9766 30.751C19.1611 30.874 19.3525 30.8809 22.1211 30.8809H25.0674L25.2998 30.7236C25.7851 30.4023 25.7715 30.5322 25.7715 26.3008C25.7715 21.7959 25.7646 21.7617 25.1357 20.8252L24.9307 20.5107L24.4453 20.7363C23.1396 21.3516 21.5195 21.4268 20.2344 20.9209C19.9883 20.8252 19.6943 20.6885 19.5713 20.6133L19.3594 20.4834L19.1885 20.709Z" fill="#1D3A70"/>
<path d="M28.3829 20.8252C28.1026 21.2422 27.918 21.6934 27.8291 22.1719C27.7813 22.418 27.7539 23.9629 27.7539 26.3281C27.7539 30.5254 27.7403 30.4023 28.2256 30.7236L28.458 30.8809H31.4043C34.1729 30.8809 34.3643 30.874 34.5489 30.751C34.6514 30.6826 34.8018 30.5322 34.8702 30.4297C34.9932 30.2383 35.0001 30.0332 35.0001 26.2256C35.0001 22.7461 34.9864 22.1787 34.8907 21.8506C34.7608 21.4131 34.5694 21.0166 34.337 20.709L34.1661 20.4834L33.9542 20.6133C32.628 21.4131 30.6114 21.4609 29.0801 20.7363L28.5948 20.5107L28.3829 20.8252Z" fill="#1D3A70"/>
</svg>
