<svg width="35" height="35" viewBox="0 0 35 35" fill="none" xmlns="http://www.w3.org/2000/svg">
<g clip-path="url(#clip0_252_1698)">
<path d="M35 8.90213C35 7.34235 33.7446 6.08691 32.1848 6.08691H2.81522C1.25543 6.08691 0 7.34235 0 8.90213V26.1358C0 27.6576 1.25543 28.913 2.81522 28.913H32.2228C33.7826 28.913 35.038 27.6576 35.038 26.0978V8.90213H35ZM31.9565 9.13039V11.7934H3.04348V9.13039H31.9565ZM3.04348 25.8695V16.3587H31.9565V25.8695H3.04348ZM29.1033 20.9239C29.1033 21.7608 28.4185 22.4456 27.5815 22.4456H20.3533C19.5163 22.4456 18.8315 21.7608 18.8315 20.9239C18.8315 20.0869 19.5163 19.4021 20.3533 19.4021H27.5815C28.4185 19.4021 29.1033 20.0869 29.1033 20.9239Z" fill="#1D3A70"/>
</g>
<defs>
<clipPath id="clip0_252_1698">
<rect width="35" height="35" fill="white"/>
</clipPath>
</defs>
</svg>
