<svg width="35" height="35" viewBox="0 0 35 35" fill="none" xmlns="http://www.w3.org/2000/svg">
<path d="M11.874 0.0751991C11.1699 0.246098 10.5273 0.779301 10.2061 1.46973C10.0488 1.81836 10.0146 1.96875 10.0146 2.46094C10.0146 2.98731 10.0352 3.08985 10.2402 3.5C10.6572 4.34766 11.375 4.8125 12.4141 4.90137L12.9199 4.94239V6.04981V7.15039L12.4004 7.23926C10.1514 7.61524 8.40137 9.21485 7.7793 11.4502C7.63574 11.9766 7.62891 12.1338 7.60156 15.5313L7.58105 19.0723H17.5H27.419L27.3984 15.5313C27.3711 12.1338 27.3643 11.9766 27.2207 11.4502C26.5986 9.21485 24.8486 7.61524 22.5996 7.23926L22.0801 7.15039V6.04981V4.94239L22.5859 4.90137C23.625 4.8125 24.3428 4.34766 24.7598 3.5C24.9649 3.08985 24.9854 2.98731 24.9854 2.46094C24.9785 1.97559 24.9512 1.81153 24.7871 1.46289C24.5547 0.936527 24.083 0.478519 23.5498 0.22559L23.1397 0.0341835L17.6367 0.0205116C14.5742 0.0136757 12.0176 0.0410194 11.874 0.0751991ZM20.084 5.99512L20.0977 7.10938H19.2773H18.457V6.66504V6.22071H17.5H16.543V6.66504V7.10938H15.7227H14.9023V6.0293C14.9023 5.43457 14.9229 4.92188 14.9502 4.90137C14.9775 4.87403 16.1328 4.86035 17.5273 4.86719L20.0635 4.8877L20.084 5.99512Z" fill="#1D3A70"/>
<path d="M7.60156 24.6572C7.62891 28.082 7.63574 28.2939 7.7793 28.793C8.19629 30.3105 9.18066 31.6162 10.4453 32.3408L10.8008 32.5459V33.7764V35H17.5H24.1992V33.7764V32.5459L24.5615 32.3408C25.8193 31.6162 26.8037 30.3105 27.2207 28.793C27.3642 28.2939 27.3711 28.082 27.3984 24.6572L27.4258 21.0547H17.5H7.57422L7.60156 24.6572Z" fill="#1D3A70"/>
</svg>
