<svg width="24" height="24" viewBox="0 0 24 24" fill="none" xmlns="http://www.w3.org/2000/svg">
<path d="M11.2923 2.08248C10.8689 2.19797 10.8448 2.21241 9.6658 2.92943C9.13645 3.25185 8.66004 3.53096 8.60711 3.55021C8.55417 3.56946 7.71203 3.74751 6.73515 3.94481C4.60814 4.3731 4.44453 4.43085 3.86225 5.01794C3.40509 5.47992 3.1741 5.91783 3.06342 6.53861C2.96236 7.13533 2.99605 11.5145 3.11154 12.2892C3.38102 14.1227 3.99699 15.7444 4.97387 17.1977C6.48491 19.445 8.77554 21.1197 11.326 21.8415C11.9179 22.0099 12.1489 22.0051 12.8226 21.7982C16.4992 20.6818 19.3721 17.7944 20.4933 14.0842C20.7195 13.3431 20.8879 12.4095 20.9457 11.5626C21.0275 10.4846 21.013 6.96209 20.9264 6.49049C20.7532 5.52323 20.0265 4.67146 19.093 4.34423C18.939 4.2913 18.0535 4.09399 17.1248 3.91113C16.2008 3.72826 15.3635 3.53577 15.2721 3.49246C15.1806 3.44434 14.685 3.1508 14.1749 2.838C13.6359 2.50596 13.1017 2.21722 12.8996 2.14504C12.4232 1.98142 11.7736 1.95255 11.2923 2.08248ZM12.6349 3.70902C12.7745 3.78601 13.2846 4.09399 13.7706 4.38754C14.3 4.70996 14.7716 4.9602 14.9544 5.01794C15.1181 5.06607 15.9746 5.25374 16.8601 5.42698C17.7455 5.60504 18.5588 5.78309 18.6647 5.83121C18.939 5.9467 19.1555 6.15363 19.3047 6.43755L19.4346 6.68298V9.08909C19.4346 10.8167 19.4154 11.63 19.3721 11.9764C19.0689 14.2382 18.0968 16.2497 16.5473 17.7992C15.71 18.6414 14.8389 19.2573 13.7706 19.7723C13.1739 20.0562 12.1826 20.4219 12.0045 20.4219C11.9612 20.4219 11.7639 20.369 11.5666 20.3064C7.78422 19.0937 5.15674 15.9417 4.62739 11.9764C4.58408 11.63 4.56483 10.8167 4.56483 9.08909V6.68298L4.69476 6.43755C4.84394 6.15363 5.06049 5.9467 5.33479 5.83121C5.44066 5.78309 6.25393 5.60504 7.13938 5.42698C8.02483 5.25374 8.88141 5.06607 9.04502 5.01794C9.2327 4.9602 9.74761 4.68109 10.3973 4.2913C10.9747 3.94 11.5185 3.62721 11.6148 3.59352C11.8842 3.49246 12.3318 3.54059 12.6349 3.70902Z" fill="#1D3A70"/>
<path d="M11.621 18.1486C11.1125 17.9319 10.8653 17.3289 11.0744 16.8201C11.3786 16.104 12.3721 16.0098 12.8284 16.6599C13.0185 16.9284 13.0565 17.3618 12.9139 17.6398C12.6572 18.1297 12.0964 18.3511 11.621 18.1486Z" fill="#1D3A70"/>
<path d="M11.6191 15.1466C11.4048 15.0505 11.2048 14.863 11.0905 14.6372C11.0048 14.4641 11 14.3007 11 10.6097C11 6.9186 11.0048 6.75519 11.0905 6.58217C11.4905 5.79878 12.5478 5.80839 12.9097 6.59659C12.9954 6.77922 13.0002 6.99549 13.0002 10.6241C13.0002 14.3055 12.9954 14.4641 12.9097 14.6372C12.6573 15.1274 12.0906 15.3533 11.6191 15.1466Z" fill="#1D3A70"/>
</svg>
