<svg width="35" height="29" viewBox="0 0 35 29" fill="none" xmlns="http://www.w3.org/2000/svg">
<path d="M16.8436 0.281265C16.5087 0.349624 0.580927 8.29981 0.355341 8.50489C-0.130011 8.95606 -0.102667 9.54395 0.4237 9.94044C0.786005 10.2139 16.0712 19.5654 16.4061 19.7227C16.6591 19.8389 16.8436 19.8662 17.4999 19.8662C18.1561 19.8662 18.3407 19.8389 18.5936 19.7227C18.9286 19.5654 34.2137 10.2139 34.5761 9.94044C35.1229 9.53028 35.1298 8.90821 34.6034 8.47755C34.494 8.38868 30.7821 6.50196 26.3456 4.29396L18.286 0.274429L17.705 0.247085C17.3837 0.233413 17.0009 0.247085 16.8436 0.281265Z" fill="#1D3A70"/>
<path d="M33.2023 13.4883C32.9903 13.6045 32.6964 13.8027 32.5529 13.919L32.2999 14.1445L32.2794 19.1963L32.2657 24.2549L31.9171 24.5488C31.0353 25.2939 31.0079 26.5723 31.8624 27.3037C32.1564 27.5566 32.6691 27.7617 33.0177 27.7617C33.4005 27.7617 33.92 27.5498 34.2277 27.2627C34.631 26.8936 34.8155 26.4902 34.8087 25.957C34.8087 25.3145 34.5763 24.8564 34.0431 24.4668L33.7696 24.2617V18.8408C33.7696 14.5479 33.7491 13.4063 33.6808 13.3516C33.6193 13.2969 33.4894 13.3379 33.2023 13.4883Z" fill="#1D3A70"/>
<path d="M25.0195 18.0273C22.1074 19.8183 19.5713 21.3564 19.3799 21.4453C18.293 21.9511 16.7822 21.9648 15.6816 21.4794C15.5244 21.4042 13.0498 19.914 10.1855 18.1572C7.32812 16.4003 4.92188 14.9511 4.85352 14.9306C4.62109 14.8691 4.38184 14.9716 4.27246 15.1835C4.18359 15.3544 4.16992 15.874 4.16992 18.7587C4.16992 20.707 4.19727 22.2929 4.23828 22.5048C4.33398 23.0449 4.79199 23.8994 5.25684 24.4394C7.79297 27.3447 13.6309 29.1494 19.1133 28.7187C22.5928 28.4453 25.6553 27.4951 27.9316 25.9912C29.4971 24.9521 30.5498 23.6533 30.7617 22.5048C30.8506 22.0195 30.8506 15.1835 30.7617 14.9511C30.7139 14.8212 30.6455 14.7734 30.5088 14.7734C30.3789 14.7734 28.6221 15.8193 25.0195 18.0273Z" fill="#1D3A70"/>
</svg>
