<svg width="35" height="35" viewBox="0 0 35 35" fill="none" xmlns="http://www.w3.org/2000/svg">
<g clip-path="url(#clip0_65_518)">
<path d="M16.3379 0.068388C15.6543 0.150419 14.6357 0.389677 14.0478 0.594755C13.3369 0.847687 12.1816 1.45609 11.5049 1.9346C10.7324 2.48148 9.44725 3.7598 8.90721 4.53226C7.87499 6.00199 6.9453 8.33988 6.69237 10.1104C6.57616 10.917 6.65135 12.708 6.82909 13.4873C7.26659 15.3877 8.04588 16.8643 10.1855 19.8243C10.5478 20.3301 10.9307 20.8838 11.0264 21.0547C11.2861 21.5127 11.6553 22.4629 11.7851 23.0098C11.9424 23.6661 12.0996 23.8985 12.4209 23.9874C12.8105 24.0967 22.3057 24.0831 22.6269 23.9737C22.9209 23.8711 23.0371 23.6592 23.2764 22.7637C23.5224 21.834 23.9805 20.9932 24.9853 19.585C27.0088 16.7618 27.7402 15.3604 28.1709 13.4737C28.3486 12.708 28.417 10.9102 28.3076 10.1104C28.0547 8.33988 27.125 6.00199 26.0928 4.53226C25.5459 3.7598 24.2676 2.48148 23.4814 1.92093C22.2783 1.07327 20.7129 0.417021 19.2773 0.164091C18.5527 0.0342083 17.0215 -0.0136433 16.3379 0.068388Z" fill="#1D3A70"/>
<path d="M12.9541 25.5596C12.4893 25.751 12.2773 26.5987 12.5371 27.2207C12.749 27.7129 12.4414 27.6856 17.5 27.6856C22.5586 27.6856 22.251 27.7129 22.4629 27.2207C22.6748 26.708 22.5586 25.9697 22.2168 25.669C22.0664 25.5322 21.957 25.5322 17.5752 25.5186C15.1074 25.5117 13.0293 25.5322 12.9541 25.5596Z" fill="#1D3A70"/>
<path d="M12.7969 29.2988C12.3183 29.6269 12.3115 30.7891 12.7832 31.2061C12.9336 31.3428 13.0293 31.3428 17.5 31.3428C21.9707 31.3428 22.0664 31.3428 22.2168 31.2061C22.5586 30.9053 22.6748 30.167 22.4629 29.6543C22.251 29.1621 22.5586 29.1894 17.5 29.1894C13.4805 29.1894 12.9336 29.2031 12.7969 29.2988Z" fill="#1D3A70"/>
<path d="M15.0527 32.9014C14.6631 33.086 14.4785 34.0225 14.7314 34.5283C14.9775 35.0137 14.8818 35 17.5 35C19.6328 35 19.8721 34.9864 20.0019 34.877C20.542 34.4463 20.4941 33.1543 19.9267 32.8946C19.6875 32.7852 15.2851 32.7852 15.0527 32.9014Z" fill="#1D3A70"/>
<g clip-path="url(#clip1_65_518)">
<path d="M17.9758 5.30194C17.943 5.31561 17.8856 5.3703 17.8473 5.41952C17.7899 5.49608 13.3219 13.3137 13.1988 13.5543C13.125 13.6965 13.1387 13.8004 13.2453 13.907L13.3383 14H15.2688C16.3297 14 17.1992 14.0082 17.1992 14.0219C17.1992 14.0328 17.0899 15.1129 16.9531 16.4199C16.8192 17.7269 16.707 18.8508 16.707 18.9137C16.707 19.1433 16.9449 19.291 17.1309 19.1734C17.1965 19.1324 17.6969 18.2629 19.5235 15.009C21.1887 12.0449 21.8367 10.8691 21.8422 10.7953C21.8531 10.7078 21.8395 10.6777 21.7574 10.5957L21.6617 10.5H19.7039C17.9785 10.5 17.7461 10.4945 17.7461 10.459C17.7461 10.4371 17.8883 9.33788 18.0606 8.01717C18.2328 6.69647 18.375 5.58358 18.375 5.54257C18.375 5.3785 18.1344 5.23358 17.9758 5.30194Z" fill="white"/>
</g>
</g>
<defs>
<clipPath id="clip0_65_518">
<rect width="35" height="35" fill="white"/>
</clipPath>
<clipPath id="clip1_65_518">
<rect width="14" height="14" fill="white" transform="translate(10.5 5.25)"/>
</clipPath>
</defs>
</svg>
