<svg width="25" height="33" viewBox="0 0 25 33" fill="none" xmlns="http://www.w3.org/2000/svg">
<path d="M1.24128 0.545025C0.776441 0.777447 0.81062 -0.528217 0.81062 16.5001C0.81062 30.3771 0.824292 31.9151 0.919995 32.1202C1.14558 32.5919 0.598706 32.5646 9.54011 32.5509L17.5928 32.5304L17.627 29.4405L17.6612 26.3507L17.8184 26.1935L17.9757 26.0362L21.0655 26.0021L24.1553 25.9679L24.1758 13.5401C24.1895 2.3292 24.1827 1.08506 24.0801 0.879986C23.8546 0.40147 24.7159 0.43565 12.4864 0.43565C2.61531 0.43565 1.43953 0.449322 1.24128 0.545025ZM4.84382 3.49131C4.9532 3.55284 5.06941 3.67588 5.11042 3.76475C5.15828 3.86729 5.18562 4.61241 5.18562 5.83604V7.7501H6.01277C6.66218 7.7501 6.88093 7.77745 7.03132 7.86631C7.42781 8.09874 7.49617 8.65928 7.17488 8.98741L6.97663 9.18565H5.63679C4.80281 9.18565 4.24226 9.15831 4.13289 9.11045C4.04402 9.06944 3.91414 8.93956 3.85261 8.81651C3.75691 8.63194 3.74324 8.33116 3.76374 6.20518C3.78425 3.91514 3.79109 3.7921 3.92097 3.64854C4.18074 3.36143 4.52937 3.29991 4.84382 3.49131ZM10.5313 3.48448C10.962 3.62803 11.3926 4.01768 11.5841 4.42784C11.7413 4.7628 11.7481 4.84483 11.7481 6.23936C11.7481 7.18272 11.7208 7.79795 11.6661 7.98252C11.5567 8.3585 10.921 8.99424 10.545 9.10362C9.81355 9.31553 9.04792 9.11045 8.58308 8.57042C8.17976 8.0919 8.12507 7.83897 8.12507 6.31456C8.12507 4.66026 8.17976 4.421 8.67878 3.92198C9.18464 3.40928 9.8614 3.25206 10.5313 3.48448ZM15.0294 3.47764C15.1387 3.53917 15.2755 3.66905 15.3301 3.77159C15.4805 4.07237 16.8751 8.33116 16.8751 8.49522C16.8751 8.71397 16.6768 9.02159 16.4854 9.11045C16.0684 9.30186 15.6378 9.1378 15.4669 8.73448L15.3712 8.50206H14.6876H14.004L13.9083 8.73448C13.7374 9.1378 13.3067 9.30186 12.8897 9.11045C12.6983 9.02159 12.5001 8.71397 12.5001 8.49522C12.5001 8.33116 13.8946 4.07237 14.045 3.77159C14.2296 3.41612 14.6602 3.28624 15.0294 3.47764ZM18.8028 3.55967C18.878 3.62803 19.1309 4.05186 19.3633 4.50303L19.7803 5.32335L19.8145 4.57139C19.835 4.1544 19.876 3.77159 19.9034 3.71006C19.9376 3.64854 20.0606 3.546 20.1837 3.47764C20.4708 3.32042 20.8262 3.38194 21.0518 3.6212L21.2159 3.79893L21.2364 6.19835C21.2569 8.33116 21.2432 8.63194 21.1475 8.81651C20.9561 9.17198 20.4298 9.3087 20.1016 9.07627C20.0196 9.02159 19.7462 8.57725 19.5069 8.10557L19.0694 7.23741V7.94151C19.0626 8.47471 19.0352 8.7003 18.9464 8.84385C18.7139 9.24034 18.1534 9.3087 17.8253 8.98741L17.627 8.78917V6.35557C17.627 4.76963 17.6544 3.87413 17.7022 3.76475C17.8731 3.38194 18.4815 3.27256 18.8028 3.55967ZM20.1563 12.2413C20.5528 12.4737 20.6212 13.0343 20.2999 13.3624L20.1016 13.5606H12.5001H4.89851L4.70027 13.3624C4.37898 13.0411 4.44734 12.4806 4.83015 12.2413C5.00105 12.1388 5.65046 12.1319 12.4864 12.1251C19.3428 12.1251 19.9786 12.1319 20.1563 12.2413ZM20.2999 15.2628C20.6212 15.5909 20.5528 16.1515 20.1563 16.3839C19.9786 16.4933 19.3428 16.5001 12.5001 16.5001C5.6573 16.5001 5.02156 16.4933 4.84382 16.3839C4.44734 16.1515 4.37898 15.5909 4.70027 15.2628L4.89851 15.0646H12.5001H20.1016L20.2999 15.2628ZM20.0469 18.0314C20.3409 18.1544 20.4981 18.38 20.4981 18.6876C20.4981 18.9952 20.3409 19.2208 20.0469 19.3439C19.7051 19.4874 5.29499 19.4874 4.9532 19.3439C4.65925 19.2208 4.50203 18.9952 4.50203 18.6876C4.50203 18.3868 4.65925 18.1544 4.93953 18.0314C5.26081 17.8946 19.712 17.8878 20.0469 18.0314ZM15.7813 20.9913C16.1778 21.2237 16.2462 21.7843 15.9249 22.1124L15.7266 22.3106H10.3126H4.89851L4.70027 22.1124C4.37898 21.7911 4.44734 21.2306 4.83015 20.9913C5.00105 20.8888 5.50007 20.8819 10.2989 20.8751C15.1114 20.8751 15.6036 20.8819 15.7813 20.9913ZM9.10945 26.7814C9.40339 26.9044 9.56062 27.13 9.56062 27.4376C9.56062 27.5743 9.51277 27.7521 9.45124 27.8409C9.22566 28.1622 9.01374 28.1896 7.03132 28.1896C5.0489 28.1896 4.83699 28.1622 4.6114 27.8409C4.46785 27.6358 4.46785 27.2394 4.6114 27.0343C4.83699 26.7198 5.02156 26.6925 7.01765 26.6856C8.46003 26.6856 8.93171 26.7062 9.10945 26.7814Z" fill="#1D3A70"/>
<path d="M9.69727 4.94727C9.57422 5.07031 9.56055 5.17285 9.56055 6.2666C9.56055 7.54492 9.6084 7.75 9.92969 7.75C10.2715 7.75 10.3125 7.60645 10.3125 6.25977C10.3125 5.05664 10.3057 5.02246 10.1621 4.91992C9.95703 4.77637 9.86133 4.7832 9.69727 4.94727Z" fill="#1D3A70"/>
<path d="M14.5712 6.75879C14.496 6.99121 14.496 6.99805 14.6874 6.99805C14.8788 6.99805 14.8788 6.99121 14.8036 6.75879C14.7626 6.62891 14.7148 6.51953 14.6874 6.51953C14.6601 6.51953 14.6122 6.62891 14.5712 6.75879Z" fill="#1D3A70"/>
<path d="M19.0625 29.7754V32.1201L21.3867 29.7959C22.665 28.5176 23.7109 27.4648 23.7109 27.458C23.7109 27.4443 22.665 27.4375 21.3867 27.4375H19.0625V29.7754Z" fill="#1D3A70"/>
</svg>
