<svg width="20" height="16" viewBox="0 0 20 16" fill="none" xmlns="http://www.w3.org/2000/svg">
<mask id="mask0_530_1785" style="mask-type:alpha" maskUnits="userSpaceOnUse" x="0" y="0" width="20" height="16">
<rect y="0.5" width="20" height="15" fill="white"/>
</mask>
<g mask="url(#mask0_530_1785)">
<path fill-rule="evenodd" clip-rule="evenodd" d="M0 0.5V15.5H20V0.5H0Z" fill="#2E42A5"/>
<mask id="mask1_530_1785" style="mask-type:alpha" maskUnits="userSpaceOnUse" x="0" y="0" width="20" height="16">
<path fill-rule="evenodd" clip-rule="evenodd" d="M0 0.5V15.5H20V0.5H0Z" fill="white"/>
</mask>
<g mask="url(#mask1_530_1785)">
<mask id="mask2_530_1785" style="mask-type:alpha" maskUnits="userSpaceOnUse" x="0" y="0" width="20" height="16">
<rect y="0.5" width="20" height="15" fill="white"/>
</mask>
<g mask="url(#mask2_530_1785)">
<path d="M-2.22693 14.4284L2.17413 16.2896L20.0999 2.52363L22.4214 -0.242296L17.7151 -0.864393L10.4036 5.06778L4.51856 9.06467L-2.22693 14.4284Z" fill="white"/>
<path d="M-1.62439 15.7324L0.617745 16.8126L21.5878 -0.499277H18.4395L-1.62439 15.7324Z" fill="#F50100"/>
<path d="M22.2271 14.4284L17.826 16.2896L-0.0997791 2.52363L-2.42124 -0.242296L2.28506 -0.864393L9.59656 5.06778L15.4816 9.06467L22.2271 14.4284Z" fill="white"/>
<path d="M22.0769 15.3643L19.8348 16.4444L10.9055 9.03233L8.25819 8.20419L-2.64459 -0.232803H0.503632L11.4003 8.00394L14.2947 8.99696L22.0769 15.3643Z" fill="#F50100"/>
<mask id="path-9-inside-1_530_1785" fill="white">
<path fill-rule="evenodd" clip-rule="evenodd" d="M12.3611 -0.75H7.63889V5.5H-1.23279V10.5H7.63889V16.75H12.3611V10.5H21.2672V5.5H12.3611V-0.75Z"/>
</mask>
<path fill-rule="evenodd" clip-rule="evenodd" d="M12.3611 -0.75H7.63889V5.5H-1.23279V10.5H7.63889V16.75H12.3611V10.5H21.2672V5.5H12.3611V-0.75Z" fill="#F50100"/>
<path d="M7.63889 -0.75V-2H6.38889V-0.75H7.63889ZM12.3611 -0.75H13.6111V-2H12.3611V-0.75ZM7.63889 5.5V6.75H8.88889V5.5H7.63889ZM-1.23279 5.5V4.25H-2.48279V5.5H-1.23279ZM-1.23279 10.5H-2.48279V11.75H-1.23279V10.5ZM7.63889 10.5H8.88889V9.25H7.63889V10.5ZM7.63889 16.75H6.38889V18H7.63889V16.75ZM12.3611 16.75V18H13.6111V16.75H12.3611ZM12.3611 10.5V9.25H11.1111V10.5H12.3611ZM21.2672 10.5V11.75H22.5172V10.5H21.2672ZM21.2672 5.5H22.5172V4.25H21.2672V5.5ZM12.3611 5.5H11.1111V6.75H12.3611V5.5ZM7.63889 0.5H12.3611V-2H7.63889V0.5ZM8.88889 5.5V-0.75H6.38889V5.5H8.88889ZM-1.23279 6.75H7.63889V4.25H-1.23279V6.75ZM0.0172119 10.5V5.5H-2.48279V10.5H0.0172119ZM7.63889 9.25H-1.23279V11.75H7.63889V9.25ZM8.88889 16.75V10.5H6.38889V16.75H8.88889ZM12.3611 15.5H7.63889V18H12.3611V15.5ZM11.1111 10.5V16.75H13.6111V10.5H11.1111ZM21.2672 9.25H12.3611V11.75H21.2672V9.25ZM20.0172 5.5V10.5H22.5172V5.5H20.0172ZM12.3611 6.75H21.2672V4.25H12.3611V6.75ZM11.1111 -0.75V5.5H13.6111V-0.75H11.1111Z" fill="white" mask="url(#path-9-inside-1_530_1785)"/>
</g>
</g>
</g>
</svg>
