<svg width="20" height="16" viewBox="0 0 20 16" fill="none" xmlns="http://www.w3.org/2000/svg">
<mask id="mask0_530_1752" style="mask-type:alpha" maskUnits="userSpaceOnUse" x="0" y="0" width="20" height="16">
<rect y="0.5" width="20" height="15" fill="white"/>
</mask>
<g mask="url(#mask0_530_1752)">
<path fill-rule="evenodd" clip-rule="evenodd" d="M0 0.5H20V15.5H0V0.5Z" fill="#E31D1C"/>
<path fill-rule="evenodd" clip-rule="evenodd" d="M0 1.75V3H20V1.75H0ZM0 4.25V5.5H20V4.25H0ZM0 8V6.75H20V8H0ZM0 9.25V10.5H20V9.25H0ZM0 13V11.75H20V13H0ZM0 15.5V14.25H20V15.5H0Z" fill="#F7FCFF"/>
<rect y="0.5" width="11.25" height="8.75" fill="#2E42A5"/>
<path fill-rule="evenodd" clip-rule="evenodd" d="M1.3 3.21722L1.9624 2.7558L2.47623 3.12572H2.1853L2.77364 3.64609L2.57492 4.37572H2.26369L1.96148 3.7056L1.70375 4.37572H0.935303L1.52364 4.89609L1.3 5.71722L1.9624 5.2558L2.47623 5.62572H2.1853L2.77364 6.14609L2.57492 6.87572H2.26369L1.96148 6.2056L1.70375 6.87572H0.935303L1.52364 7.39609L1.3 8.21722L1.9624 7.7558L2.60332 8.21722L2.40406 7.39609L2.91877 6.87572H2.68136L3.2124 6.5058L3.72623 6.87572H3.4353L4.02364 7.39609L3.8 8.21722L4.4624 7.7558L5.10332 8.21722L4.90406 7.39609L5.41877 6.87572H5.18136L5.7124 6.5058L6.22623 6.87572H5.9353L6.52364 7.39609L6.3 8.21722L6.9624 7.7558L7.60332 8.21722L7.40406 7.39609L7.91877 6.87572H7.68136L8.2124 6.5058L8.72623 6.87572H8.4353L9.02364 7.39609L8.8 8.21722L9.4624 7.7558L10.1033 8.21722L9.90406 7.39609L10.4188 6.87572H9.76369L9.46148 6.2056L9.20375 6.87572H8.83112L8.65406 6.14609L9.16877 5.62572H8.93136L9.4624 5.2558L10.1033 5.71722L9.90406 4.89609L10.4188 4.37572H9.76369L9.46148 3.7056L9.20375 4.37572H8.83112L8.65406 3.64609L9.16877 3.12572H8.93136L9.4624 2.7558L10.1033 3.21722L9.90406 2.39609L10.4188 1.87572H9.76369L9.46148 1.2056L9.20375 1.87572H8.4353L9.02364 2.39609L8.82492 3.12572H8.51369L8.21148 2.4556L7.95375 3.12572H7.58112L7.40406 2.39609L7.91877 1.87572H7.26369L6.96148 1.2056L6.70375 1.87572H5.9353L6.52364 2.39609L6.32492 3.12572H6.01369L5.71148 2.4556L5.45375 3.12572H5.08112L4.90406 2.39609L5.41877 1.87572H4.76369L4.46148 1.2056L4.20375 1.87572H3.4353L4.02364 2.39609L3.82492 3.12572H3.51369L3.21148 2.4556L2.95375 3.12572H2.58112L2.40406 2.39609L2.91877 1.87572H2.26369L1.96148 1.2056L1.70375 1.87572H0.935303L1.52364 2.39609L1.3 3.21722ZM8.82492 5.62572L9.02364 4.89609L8.4353 4.37572H8.72623L8.2124 4.0058L7.68136 4.37572H7.91877L7.40406 4.89609L7.58112 5.62572H7.95375L8.21148 4.9556L8.51369 5.62572H8.82492ZM7.47623 5.62572L6.9624 5.2558L6.43136 5.62572H6.66877L6.15406 6.14609L6.33112 6.87572H6.70375L6.96148 6.2056L7.26369 6.87572H7.57492L7.77364 6.14609L7.1853 5.62572H7.47623ZM5.27364 6.14609L5.07492 6.87572H4.76369L4.46148 6.2056L4.20375 6.87572H3.83112L3.65406 6.14609L4.16877 5.62572H3.93136L4.4624 5.2558L4.97623 5.62572H4.6853L5.27364 6.14609ZM5.45375 5.62572H5.08112L4.90406 4.89609L5.41877 4.37572H5.18136L5.7124 4.0058L6.22623 4.37572H5.9353L6.52364 4.89609L6.32492 5.62572H6.01369L5.71148 4.9556L5.45375 5.62572ZM3.82492 5.62572L4.02364 4.89609L3.4353 4.37572H3.72623L3.2124 4.0058L2.68136 4.37572H2.91877L2.40406 4.89609L2.58112 5.62572H2.95375L3.21148 4.9556L3.51369 5.62572H3.82492ZM7.77364 3.64609L7.57492 4.37572H7.26369L6.96148 3.7056L6.70375 4.37572H6.33112L6.15406 3.64609L6.66877 3.12572H6.43136L6.9624 2.7558L7.47623 3.12572H7.1853L7.77364 3.64609ZM4.97623 3.12572L4.4624 2.7558L3.93136 3.12572H4.16877L3.65406 3.64609L3.83112 4.37572H4.20375L4.46148 3.7056L4.76369 4.37572H5.07492L5.27364 3.64609L4.6853 3.12572H4.97623Z" fill="#F7FCFF"/>
</g>
</svg>
