<svg width="35" height="31" viewBox="0 0 35 31" fill="none" xmlns="http://www.w3.org/2000/svg">
<g clip-path="url(#clip0_66_535)">
<path d="M23.0508 1.16442L22.0186 2.32211L23.208 2.3423C23.8643 2.34903 24.9443 2.34903 25.6074 2.3423L26.8037 2.32211L25.9082 1.5548C25.416 1.13749 24.8008 0.612495 24.541 0.39711L24.0762 -5.72205e-06L23.0508 1.16442Z" fill="#1D3A70"/>
<path d="M1.78418 2.81346C1.6543 2.88077 1.49023 3.04231 1.42188 3.17019C1.30566 3.38558 1.29883 3.88365 1.29883 14.875C1.29883 25.6644 1.30566 26.3644 1.42188 26.5865C1.66797 27.0779 1.47656 27.0577 6.5625 27.0577C11.6416 27.0577 11.4365 27.0779 11.7031 26.5865C11.8193 26.3711 11.8262 26.1154 11.8262 22.8846L11.833 19.4183L13.501 17.5336L15.1758 15.649L13.501 15.6288L11.8262 15.6154V9.55769C11.8262 2.98846 11.8398 3.24423 11.4502 2.89423L11.2656 2.72596L6.64453 2.70577C2.2627 2.69231 2.00293 2.69904 1.78418 2.81346ZM8.68848 4.52981C9.05078 4.69135 9.34473 4.95384 9.55664 5.31058L9.74121 5.62019L9.76172 9.75288C9.78223 14.3029 9.78223 14.249 9.36523 14.7538C9.24902 14.8885 9.00293 15.0769 8.80469 15.1711L8.44922 15.3461H6.57617C5.33203 15.3461 4.60742 15.3192 4.42969 15.2654C4.12207 15.1779 3.5957 14.7471 3.45215 14.4711C3.24707 14.0808 3.2334 13.7038 3.29492 9.82019C3.34277 6.65673 3.37012 5.82884 3.45215 5.58654C3.65039 5.00096 4.14258 4.57692 4.80566 4.44231C4.96289 4.40865 5.84473 4.38846 6.76758 4.40192C8.1416 4.41538 8.4834 4.43558 8.68848 4.52981Z" fill="#1D3A70"/>
<path d="M19.5439 5.12886C19.1133 5.62021 18.7373 6.06444 18.7031 6.10482C18.6621 6.17213 19.1611 6.19232 21.1025 6.19232H23.5566L24.3359 5.30386C24.7666 4.81924 25.1494 4.38174 25.1768 4.3279C25.2246 4.25386 24.7939 4.2404 22.7773 4.2404H20.3232L19.5439 5.12886Z" fill="#1D3A70"/>
<path d="M16.1328 8.96539C15.7022 9.45001 15.3398 9.87405 15.3262 9.9077C15.3125 9.93462 16.4063 9.96155 17.7598 9.96155H20.2207L20.8564 9.24135C21.2119 8.84424 21.5879 8.4202 21.6973 8.29904L21.8887 8.07693H19.4072L16.9189 8.08366L16.1328 8.96539Z" fill="#1D3A70"/>
<path d="M12.7832 12.7616C12.3525 13.2596 11.9902 13.6971 11.9766 13.7308C11.9629 13.7712 12.8516 13.7981 14.376 13.7981H16.8027L17.2744 13.2731C17.5342 12.9904 17.9238 12.5529 18.1426 12.2971L18.5391 11.8462L16.0576 11.8529H13.5693L12.7832 12.7616Z" fill="#1D3A70"/>
<path d="M18.2178 14.2423C18.1084 14.2962 17.9854 14.3971 17.9443 14.4577C17.9102 14.5183 17.3838 15.7837 16.7822 17.2644L15.6816 19.9567L15.2168 20.0038C14.6152 20.0577 14.1982 20.3067 13.9111 20.7577L13.7061 21.0875L13.6855 24.2442L13.665 27.3942H14.4238H15.1758V28.5183C15.1758 29.474 15.1963 29.6894 15.3057 29.925C15.5654 30.4837 15.9824 30.6519 17.042 30.6115C17.7256 30.5913 17.7803 30.5779 18.0264 30.3827C18.4844 30.026 18.5254 29.8712 18.5254 28.5519V27.3942H24.3701H30.2149V28.5183C30.2149 29.474 30.2354 29.6894 30.3447 29.9183C30.5977 30.4635 30.96 30.625 31.917 30.625C32.669 30.625 32.8877 30.5712 33.1748 30.3019C33.5371 29.9654 33.5645 29.851 33.5645 28.5721V27.3942H34.2822H35.0069L34.9864 24.2442L34.9658 21.0875L34.7608 20.7577C34.4805 20.3135 34.0703 20.0712 33.4756 20.0106L33.0039 19.9567L31.8692 17.1635C30.7617 14.4577 30.7207 14.3635 30.4883 14.2558C30.2627 14.1413 29.832 14.1346 24.3359 14.1346C19.1065 14.1346 18.4023 14.1481 18.2178 14.2423ZM30.5156 17.7154C31.001 18.8731 31.4112 19.8625 31.4248 19.9029C31.4522 19.9702 30.0029 19.9904 24.3154 19.9904H17.1719L18.0195 17.951C18.4844 16.8337 18.8945 15.851 18.9356 15.7635L19.0039 15.6154H24.3223H29.6406L30.5156 17.7154ZM17.9512 22.2048C18.1016 22.2721 18.3408 22.4538 18.4775 22.6154C19.3252 23.5913 18.6006 25.0385 17.2607 25.0519C16.2422 25.0587 15.5039 23.9683 15.9004 23.0327C16.2285 22.2519 17.1856 21.8615 17.9512 22.2048ZM31.8897 22.2048C32.252 22.3663 32.6485 22.8106 32.7442 23.1673C32.9834 24.0221 32.4434 24.8298 31.5 25.0317C30.6934 25.2135 29.8799 24.6077 29.7637 23.7327C29.6748 23.1337 30.0918 22.4404 30.6934 22.1846C31.0215 22.0433 31.5615 22.0567 31.8897 22.2048Z" fill="#1D3A70"/>
<path d="M0.717773 28.3567C0.574219 28.4375 0.355469 28.6394 0.239258 28.7942C0.0478515 29.0702 0.0341797 29.1308 0.00683593 29.8577L-0.0136719 30.625H6.5625H13.1387L13.1182 29.8577C13.0908 29.1308 13.0771 29.0702 12.8857 28.7942C12.7695 28.6394 12.5508 28.4375 12.4072 28.3567L12.1338 28.2019H6.5625H0.991211L0.717773 28.3567Z" fill="#1D3A70"/>
</g>
<defs>
<clipPath id="clip0_66_535">
<rect width="35" height="30.625" fill="white"/>
</clipPath>
</defs>
</svg>
