<svg width="24" height="24" viewBox="0 0 24 24" fill="none" xmlns="http://www.w3.org/2000/svg">
<path d="M20.8457 11.232V21.9017H3.18175V11.232H1.53601V22.7246C1.53601 23.1791 1.90435 23.5474 2.35885 23.5474H21.6686C22.1231 23.5474 22.4914 23.1791 22.4914 22.7246V11.232H20.8457Z" fill="#1D3A70"/>
<path d="M23.1772 5.0603H0.822844C0.368344 5.0603 0 5.42865 0 5.88315V11.2591C0 11.7136 0.368344 12.082 0.822844 12.082H23.1771C23.6316 12.082 24 11.7139 24 11.2591V5.88315C24 5.42865 23.6317 5.0603 23.1772 5.0603ZM22.3543 10.4366H1.64573V6.70632H22.3543V10.4366H22.3543Z" fill="#1D3A70"/>
<path d="M12.8097 5.67497C12.7537 5.46159 11.3963 0.452576 7.43312 0.452576C5.70896 0.452576 4.30627 1.85526 4.30627 3.57942C4.30627 5.30358 5.69663 6.70626 7.4057 6.70626H12.0137C12.2685 6.70626 12.5094 6.58804 12.6651 6.38615C12.8209 6.18426 12.8741 5.92153 12.8097 5.67497ZM7.40574 5.06058C6.59059 5.06058 5.95201 4.40995 5.95201 3.57942C5.95201 2.77659 6.63034 2.09826 7.43317 2.09826C9.23879 2.09826 10.32 3.87703 10.8398 5.06053H7.40574V5.06058Z" fill="#1D3A70"/>
<path d="M16.5943 0.452576C12.6311 0.452576 11.2737 5.46159 11.2177 5.67497C11.153 5.92153 11.2065 6.18431 11.3623 6.3862C11.5181 6.58809 11.7586 6.70631 12.0137 6.70631H16.6217C18.3308 6.70631 19.7211 5.30362 19.7211 3.57947C19.7212 1.85526 18.3185 0.452576 16.5943 0.452576ZM16.6217 5.06058H13.1844C13.7004 3.87703 14.7783 2.09831 16.5946 2.09831C17.3974 2.09831 18.0758 2.77664 18.0758 3.57947C18.0757 4.40995 17.4372 5.06058 16.6217 5.06058Z" fill="#1D3A70"/>
<path d="M12.8365 5.88342H11.1908V22.7246H12.8365V5.88342Z" fill="#1D3A70"/>
</svg>
