<svg width="24" height="24" viewBox="0 0 24 24" fill="none" xmlns="http://www.w3.org/2000/svg">
<g clip-path="url(#clip0_826_2169)">
<path d="M5.29664 14.1772L4.48971 17.1895L1.54041 17.2519C0.659006 15.6171 0.159058 13.7467 0.159058 11.759C0.159058 9.83696 0.626497 8.02444 1.45507 6.42847H1.4557L4.0814 6.90985L5.23162 9.5198C4.99088 10.2216 4.85967 10.975 4.85967 11.759C4.85976 12.6099 5.01388 13.4251 5.29664 14.1772Z" fill="#FBBB00"/>
<path d="M23.1383 9.59326C23.2714 10.2944 23.3408 11.0185 23.3408 11.7586C23.3408 12.5884 23.2536 13.3979 23.0874 14.1787C22.5231 16.8357 21.0488 19.1558 19.0064 20.7976L19.0058 20.797L15.6985 20.6282L15.2305 17.7063C16.5857 16.9115 17.6448 15.6677 18.2027 14.1787H12.0048V9.59326H18.2931H23.1383Z" fill="#518EF8"/>
<path d="M19.0053 20.7974L19.0059 20.7981C17.0195 22.3947 14.4962 23.35 11.7495 23.35C7.33537 23.35 3.49765 20.8828 1.53992 17.252L5.29614 14.1772C6.27499 16.7896 8.79506 18.6493 11.7495 18.6493C13.0194 18.6493 14.2091 18.306 15.2299 17.7067L19.0053 20.7974Z" fill="#28B446"/>
<path d="M19.1483 2.83641L15.3933 5.91054C14.3368 5.25013 13.0879 4.86863 11.7499 4.86863C8.72857 4.86863 6.16136 6.81359 5.23155 9.51966L1.45559 6.42833H1.45496C3.38403 2.70905 7.27015 0.167969 11.7499 0.167969C14.5622 0.167969 17.1409 1.16977 19.1483 2.83641Z" fill="#F14336"/>
</g>
<defs>
<clipPath id="clip0_826_2169">
<rect width="23.1818" height="23.1818" fill="white" transform="translate(0.159058 0.167969)"/>
</clipPath>
</defs>
</svg>
