<?xml version="1.0" standalone="no"?>
<!DOCTYPE svg PUBLIC "-//W3C//DTD SVG 20010904//EN"
 "http://www.w3.org/TR/2001/REC-SVG-20010904/DTD/svg10.dtd">
<svg version="1.0" xmlns="http://www.w3.org/2000/svg"
 width="1368.000000pt" height="512.000000pt" viewBox="0 0 1368.000000 512.000000"
 preserveAspectRatio="xMidYMid meet">

<g transform="translate(0.000000,512.000000) scale(0.100000,-0.100000)"
fill="#000000" stroke="none">
<path d="M220 3995 l0 -505 215 0 215 0 0 205 0 205 310 0 310 0 0 95 0 95
-310 0 -310 0 0 80 0 80 365 0 365 0 0 125 0 125 -580 0 -580 0 0 -505z"/>
<path d="M3477 4003 l-318 -498 58 -6 c32 -4 126 -7 210 -8 l152 -1 48 85 48
85 319 -2 319 -3 49 -82 49 -83 137 1 c75 1 170 4 210 8 l72 6 -147 231 c-82
127 -224 350 -318 497 l-170 267 -200 0 -200 0 -318 -497z m603 62 c45 -80 80
-148 78 -151 -3 -2 -79 -3 -170 -2 l-165 3 84 148 c47 81 86 147 88 147 2 0
40 -65 85 -145z"/>
<path d="M6140 3995 l0 -505 215 0 215 0 0 151 0 152 173 -5 c145 -4 179 -8
218 -25 59 -26 92 -70 118 -158 37 -124 24 -115 181 -115 190 0 263 8 255 29
-4 9 -15 55 -25 103 -27 126 -61 180 -132 209 -15 6 -28 14 -28 18 0 3 21 17
46 30 101 54 150 153 142 290 -7 122 -56 197 -160 249 -143 70 -257 82 -810
82 l-408 0 0 -505z m801 251 c129 -8 186 -65 144 -146 -24 -47 -87 -60 -317
-67 l-198 -6 0 116 0 116 153 -5 c83 -2 182 -6 218 -8z"/>
<path d="M9414 4483 c-6 -10 -150 -234 -319 -498 l-307 -480 59 -6 c32 -4 126
-7 210 -8 l152 -1 48 85 48 85 320 0 320 -1 46 -82 46 -82 119 -3 c65 -1 161
1 212 5 l92 8 -317 497 -318 498 -200 0 c-180 0 -201 -2 -211 -17z m296 -418
c45 -80 80 -148 78 -151 -3 -2 -79 -3 -170 -2 l-165 3 84 148 c47 81 86 147
88 147 2 0 40 -65 85 -145z"/>
<path d="M11770 3995 l0 -505 215 0 215 0 0 205 0 205 265 0 265 0 0 -205 0
-205 210 0 210 0 0 505 0 505 -210 0 -210 0 -2 -202 -3 -203 -262 -3 -263 -2
0 205 0 205 -215 0 -215 0 0 -505z"/>
<path d="M3843 1623 c-71 -7 -48 -23 30 -23 l74 0 6 -226 c3 -124 8 -228 11
-232 15 -15 20 25 25 230 l6 223 78 3 c42 2 77 7 77 11 0 16 -185 25 -307 14z"/>
<path d="M4309 1607 c-29 -16 -54 -40 -74 -72 -27 -43 -30 -59 -33 -142 -4
-85 -2 -99 23 -149 18 -37 40 -64 68 -82 36 -24 50 -27 122 -27 73 0 86 3 122
28 22 15 50 46 64 70 21 37 24 54 24 148 0 100 -2 108 -30 155 -40 65 -96 94
-181 94 -44 0 -73 -6 -105 -23z m209 -36 c55 -38 76 -93 76 -191 0 -98 -21
-153 -76 -192 -47 -33 -159 -33 -206 0 -44 32 -74 94 -79 167 -9 104 28 189
97 227 49 27 143 21 188 -11z"/>
<path d="M4865 1611 c-92 -42 -127 -103 -133 -226 -4 -84 -2 -94 25 -145 23
-44 39 -59 82 -82 45 -24 65 -28 130 -27 42 0 94 6 116 13 l40 12 3 112 3 113
-90 -3 c-110 -4 -126 -22 -23 -26 l72 -3 0 -89 0 -89 -45 -7 c-78 -11 -159 -1
-199 26 -59 41 -81 92 -81 186 0 72 3 86 30 130 51 84 155 116 267 82 27 -8
42 -8 49 -1 20 20 -32 37 -121 40 -66 2 -94 -1 -125 -16z"/>
<path d="M5303 1623 l-53 -4 0 -245 0 -244 89 0 c102 0 181 9 181 21 0 5 -53
10 -117 11 l-118 3 0 105 0 105 108 3 c161 4 132 32 -35 32 l-79 0 3 93 3 92
118 3 c116 3 151 14 80 26 -38 6 -82 6 -180 -1z"/>
<path d="M5613 1623 c-71 -7 -48 -23 30 -23 l74 0 6 -226 c3 -124 8 -228 11
-231 16 -16 20 23 25 229 l6 223 78 3 c42 2 77 7 77 11 0 16 -185 25 -307 14z"/>
<path d="M6543 1623 l-53 -4 0 -245 0 -244 98 0 c194 0 241 28 55 32 l-118 3
0 105 0 105 108 3 c161 4 132 32 -35 32 l-79 0 3 93 3 92 118 3 c120 3 153 14
71 26 -46 6 -69 6 -171 -1z"/>
<path d="M6903 1622 l-33 -3 0 -245 c0 -208 2 -244 15 -244 11 0 15 21 17 108
l3 107 60 3 60 3 63 -106 c48 -79 68 -105 84 -105 19 0 19 2 6 23 -8 12 -37
60 -63 106 -45 79 -48 85 -30 95 57 34 68 52 73 114 5 72 -11 106 -61 127 -34
13 -140 23 -194 17z m143 -33 c55 -14 84 -48 84 -98 0 -73 -47 -107 -155 -112
l-70 -4 -3 99 c-1 55 0 106 2 113 7 16 80 17 142 2z"/>
<path d="M7416 1621 c-7 -11 118 -459 132 -473 8 -8 15 -8 21 -2 6 5 36 103
67 217 32 114 60 204 64 200 4 -4 30 -93 59 -198 57 -203 65 -225 84 -225 11
0 138 433 137 468 0 6 -6 12 -13 12 -9 0 -31 -64 -65 -193 -29 -106 -52 -198
-52 -205 0 -7 -3 -12 -8 -12 -4 0 -29 78 -56 173 -60 212 -70 237 -93 237 -15
0 -27 -34 -72 -198 -30 -108 -57 -200 -60 -204 -3 -4 -31 85 -61 197 -49 183
-69 232 -84 206z"/>
<path d="M8133 1623 l-53 -4 0 -245 0 -244 98 0 c194 0 241 28 55 32 l-118 3
0 105 0 105 108 3 c161 4 132 32 -35 32 l-79 0 3 93 3 92 118 3 c120 3 153 14
71 26 -46 6 -69 6 -171 -1z"/>
<path d="M8920 1615 c-14 -7 -71 -63 -128 -124 -57 -61 -108 -111 -113 -111
-5 0 -9 53 -9 120 0 100 -2 120 -15 120 -13 0 -15 -34 -15 -245 0 -211 2 -245
15 -245 12 0 15 18 15 98 l0 98 35 34 c23 22 38 31 43 24 4 -6 45 -63 91 -127
58 -80 91 -117 104 -117 19 0 19 1 1 28 -9 15 -53 75 -96 134 -43 59 -78 111
-78 115 0 4 43 51 96 104 91 92 109 123 54 94z"/>
<path d="M9325 1610 c-51 -25 -98 -79 -113 -128 -7 -22 -12 -73 -12 -114 0
-95 31 -162 93 -204 35 -24 55 -29 117 -32 74 -4 136 10 126 27 -3 4 -38 6
-79 3 -137 -8 -209 51 -223 185 -13 121 50 231 141 249 37 7 112 1 153 -11 16
-5 22 -3 22 8 0 39 -156 50 -225 17z"/>
<path d="M9930 1615 c-14 -7 -71 -63 -128 -124 -57 -61 -108 -111 -113 -111
-5 0 -9 54 -9 120 0 100 -2 120 -15 120 -13 0 -15 -34 -15 -245 0 -211 2 -245
15 -245 12 0 15 18 15 99 0 100 0 100 33 130 17 17 34 31 37 31 3 0 43 -54 90
-120 75 -105 130 -160 130 -130 0 5 -43 68 -95 139 -52 72 -95 134 -95 138 0
4 43 51 96 104 91 92 109 123 54 94z"/>
<path d="M6000 1375 c0 -209 2 -245 15 -245 12 0 15 23 17 123 l3 122 141 3
142 3 3 -115 c4 -109 10 -138 27 -122 4 4 7 110 7 236 0 126 -3 232 -7 236
-16 16 -22 -10 -26 -106 l-4 -100 -144 0 -144 0 0 105 c0 87 -3 105 -15 105
-13 0 -15 -34 -15 -245z"/>
<path d="M9040 1375 c0 -211 2 -245 15 -245 13 0 15 34 15 245 0 211 -2 245
-15 245 -13 0 -15 -34 -15 -245z"/>
</g>
</svg>
