<svg width="35" height="33" viewBox="0 0 35 33" fill="none" xmlns="http://www.w3.org/2000/svg">
<path d="M24.5136 0.510691C22.6679 0.695261 20.7538 1.48139 19.3319 2.623C18.6552 3.16987 17.7597 4.11323 17.6024 4.44819C17.2811 5.12495 17.8212 5.9726 18.5731 5.9726C18.7372 5.9726 18.9423 5.93843 19.0243 5.89741C19.1063 5.84956 19.496 5.48725 19.8925 5.08393C21.0614 3.89448 22.2987 3.19038 23.789 2.86225C24.7733 2.6435 25.4159 2.60249 26.2431 2.69135C28.3348 2.92378 30.0438 3.79878 31.37 5.32319C31.787 5.80171 32.0604 5.96577 32.4227 5.9726C33.1473 5.97944 33.6806 5.30268 33.496 4.61909C33.3593 4.09272 32.1151 2.84858 30.9735 2.07612C30.3583 1.65913 29.121 1.08491 28.4032 0.879831C27.1796 0.524363 25.7099 0.387644 24.5136 0.510691Z" fill="#1D3A70"/>
<path d="M24.7803 4.87899C23.1602 5.13192 21.834 5.97274 20.9863 7.27841C20.7676 7.62021 20.7129 7.76376 20.7129 8.02353C20.7129 8.57724 21.1299 9.03524 21.6836 9.09677C22.1416 9.15146 22.4424 8.98056 22.8457 8.42685C23.2422 7.87997 23.5498 7.62021 24.1309 7.34677C25.0469 6.90927 26.0517 6.92294 26.9746 7.37411C27.4463 7.60653 27.9043 8.01669 28.3965 8.6661C28.8408 9.26083 29.668 9.26767 30.1123 8.67978C30.3789 8.33114 30.4131 7.91415 30.2148 7.53134C29.791 6.71103 28.8476 5.83603 27.9248 5.39169C26.9951 4.94052 25.7168 4.73544 24.7803 4.87899Z" fill="#1D3A70"/>
<path d="M25.0332 9.46586C24.7188 9.56157 24.2266 10.0674 24.1377 10.3887C24.0898 10.5596 24.0625 11.7149 24.0625 13.5743V16.5H13.8223C3.8418 16.5 3.56152 16.5069 3.04883 16.6368C2.29688 16.8282 1.75 17.1426 1.19629 17.6963C0.642578 18.25 0.328125 18.7969 0.136719 19.5489C0.0136719 20.0342 0 20.3145 0 23.0625C0 26.3985 0.0273438 26.6446 0.492188 27.5264C0.779297 28.0733 1.55176 28.8457 2.09863 29.1329C2.61816 29.4063 3.44531 29.625 3.97852 29.625H4.375V30.5C4.375 31.3067 4.38867 31.4024 4.55273 31.7373C5.01074 32.6534 6.2207 32.8174 6.89062 32.0518C7.23242 31.6622 7.31445 31.3409 7.31445 30.3838V29.625H17.5H27.6855V30.3838C27.6855 31.4024 27.7676 31.6963 28.1641 32.0928C28.8818 32.8106 29.9961 32.6397 30.4473 31.7373C30.6113 31.4024 30.625 31.3067 30.625 30.5V29.625H31.0215C31.5547 29.625 32.3818 29.4063 32.9014 29.1329C33.4482 28.8457 34.2207 28.0733 34.5078 27.5264C34.9727 26.6446 35 26.3985 35 23.0625C35 19.7266 34.9727 19.4805 34.5078 18.5987C34.2139 18.045 33.4482 17.2725 32.9014 16.9922C32.0605 16.5479 31.6846 16.5 29.2168 16.5H27.0088L26.9883 13.4717L26.9678 10.4502L26.7764 10.1289C26.4414 9.55473 25.6826 9.26762 25.0332 9.46586ZM7.45801 21.0733C7.92969 21.2989 8.22363 21.5791 8.4834 22.0508C8.69531 22.4473 8.71582 22.5293 8.71582 23.0625C8.71582 23.5957 8.69531 23.6778 8.4834 24.0743C8.22363 24.5528 8.00488 24.7579 7.49219 25.0313C7.19824 25.1817 7.05469 25.209 6.5625 25.209C6.0293 25.2159 5.94727 25.1954 5.55078 24.9834C5.0791 24.7305 4.80566 24.4366 4.56641 23.9512C4.34766 23.5 4.35449 22.6114 4.58008 22.1397C4.86719 21.5518 5.4209 21.1006 6.0498 20.9366C6.38477 20.8477 7.12988 20.9229 7.45801 21.0733ZM14.752 21.0801C15.4902 21.4014 16.0234 22.2286 16.0234 23.0625C16.0234 23.8897 15.4902 24.7168 14.752 25.0518C14.2051 25.2911 13.4326 25.2842 12.9062 25.0245C12.1885 24.6758 11.7578 24.0264 11.7031 23.2334C11.6689 22.6524 11.7578 22.2901 12.0518 21.8594C12.6602 20.9571 13.7471 20.6426 14.752 21.0801ZM29.333 21.0733C29.8047 21.2989 30.0986 21.5791 30.3584 22.0508C30.5703 22.4473 30.5908 22.5293 30.5908 23.0625C30.5908 23.5957 30.5703 23.6778 30.3584 24.0743C30.0986 24.5528 29.8799 24.7579 29.3672 25.0313C29.0732 25.1817 28.9297 25.209 28.4375 25.209C27.9043 25.2159 27.8223 25.1954 27.4258 24.9834C26.9541 24.7305 26.6807 24.4366 26.4414 23.9512C26.2227 23.5 26.2295 22.6114 26.4551 22.1397C26.7422 21.5518 27.2959 21.1006 27.9248 20.9366C28.2598 20.8477 29.0049 20.9229 29.333 21.0733Z" fill="#1D3A70"/>
</svg>
