<svg width="24" height="24" viewBox="0 0 24 24" fill="none" xmlns="http://www.w3.org/2000/svg">
<path d="M3 1C2.72386 1 2.5 1.22386 2.5 1.5C2.5 1.77614 2.72386 2 3 2V1ZM22 21C22 21.2761 22.2239 21.5 22.5 21.5C22.7761 21.5 23 21.2761 23 21H22ZM3 2H20.5V1H3V2ZM22 3.5V21H23V3.5H22ZM20.5 2C21.3284 2 22 2.67157 22 3.5H23C23 2.11929 21.8807 1 20.5 1V2Z" fill="#1D3A70"/>
<path fill-rule="evenodd" clip-rule="evenodd" d="M1.5 5C1.5 3.89543 2.39543 3 3.5 3H19C20.1046 3 21 3.89543 21 5V10H17.5C16.6716 10 16 10.6716 16 11.5V14C16 14.8284 16.6716 15.5 17.5 15.5H21V20.5C21 21.6046 20.1046 22.5 19 22.5H3.5C2.39543 22.5 1.5 21.6046 1.5 20.5V5ZM17.5 11H21V14.5H17.5C17.2239 14.5 17 14.2761 17 14V11.5C17 11.2239 17.2239 11 17.5 11ZM18.75 12C19.1642 12 19.5 12.3358 19.5 12.75C19.5 13.1642 19.1642 13.5 18.75 13.5C18.3358 13.5 18 13.1642 18 12.75C18 12.3358 18.3358 12 18.75 12ZM11 8.58711L11 16.8333H10V7.5V6.41289L10.8254 7.12038L14.7143 10.4537L14.0635 11.213L11 8.58711ZM7.86111 8.66667V16.7315L5.61553 14.3255L4.88447 15.0078L7.99558 18.3412L8.86111 19.2685V18V8.66667H7.86111Z" fill="#1D3A70"/>
</svg>
