<svg width="22" height="22" viewBox="0 0 22 22" fill="none" xmlns="http://www.w3.org/2000/svg">
<path d="M21.5 21.5V22H22V21.5H21.5ZM0.5 21.5H0V22H0.5V21.5ZM13.0809 2.50385L12.7341 2.86401L13.0809 2.50385ZM2.07225 9.79122L9.26589 2.86402L8.57225 2.1437L1.37861 9.0709L2.07225 9.79122ZM12.7341 2.86401L19.9277 9.79122L20.6214 9.0709L13.4277 2.14369L12.7341 2.86401ZM21 12.3123V21.5H22V12.3123H21ZM1 21.5V12.3123H0V21.5H1ZM0.5 22H8.75V21H0.5V22ZM21.5 21H13.25V22H21.5V21ZM19.9277 9.79122C20.6129 10.451 21 11.3612 21 12.3123H22C22 11.0894 21.5023 9.91917 20.6214 9.0709L19.9277 9.79122ZM9.26589 2.86402C10.234 1.93175 11.766 1.93175 12.7341 2.86401L13.4277 2.14369C12.0724 0.838521 9.92762 0.838523 8.57225 2.1437L9.26589 2.86402ZM1.37861 9.0709C0.497718 9.91917 0 11.0894 0 12.3123H1C1 11.3612 1.38711 10.451 2.07225 9.79122L1.37861 9.0709Z" fill="#1D3A70"/>
<path d="M8.375 21.5V15.5C8.375 14.9477 8.82272 14.5 9.375 14.5H12.625C13.1773 14.5 13.625 14.9477 13.625 15.5V21.5" stroke="#1D3A70"/>
</svg>
