<svg width="35" height="33" viewBox="0 0 35 33" fill="none" xmlns="http://www.w3.org/2000/svg">
<path d="M16.8438 0.599609C16.2491 0.93457 0.287151 12.6104 0.164105 12.7881C-0.123005 13.2256 -0.0136298 14.1143 0.389691 14.5928C0.765667 15.0371 0.909222 15.0645 2.72758 15.0645H4.37504L4.38871 23.3906L4.40922 31.7168L4.58012 31.9697C4.68266 32.1201 4.89457 32.2979 5.08598 32.3936L5.42778 32.5645H17.5H29.5723L29.9141 32.3936C30.1055 32.2979 30.3174 32.1201 30.42 31.9697L30.5909 31.7168L30.6114 23.3906L30.625 15.0645H32.2725C34.0909 15.0645 34.2344 15.0371 34.6104 14.5928C35.0137 14.1143 35.1231 13.2256 34.836 12.7881C34.7129 12.6104 18.751 0.93457 18.1563 0.599609C17.9581 0.483398 17.7666 0.435547 17.5 0.435547C17.2334 0.435547 17.042 0.483398 16.8438 0.599609ZM18.8467 12.2959C22.6065 12.9043 25.5118 15.8506 26.1133 19.6582C26.25 20.4854 26.168 22.1191 25.9561 22.9258C25.0811 26.2822 22.5313 28.7295 19.1885 29.4268C18.2178 29.6318 16.7823 29.6318 15.8116 29.4268C12.4688 28.7295 9.91899 26.2822 9.04399 22.9258C8.83207 22.1191 8.75004 20.4854 8.88676 19.6582C9.41996 16.2881 11.7305 13.5947 14.9639 12.5762C16.1534 12.2002 17.6163 12.0977 18.8467 12.2959Z" fill="#1D3A70"/>
<path d="M15.3125 16.5V18.6875H13.125H10.9375V20.9092V23.1309H13.125H15.3125V25.3184V27.5059H17.5H19.6875V25.3184V23.1309H21.875H24.0625V20.9092V18.6875H21.875H19.6875V16.5V14.3125H17.5H15.3125V16.5Z" fill="#1D3A70"/>
</svg>
