<svg width="35" height="35" viewBox="0 0 35 35" fill="none" xmlns="http://www.w3.org/2000/svg">
<path d="M1.79773 0.375969C1.10047 0.587883 0.567264 1.08007 0.218631 1.82519L0.0340611 2.22167L0.0135533 17.9443C-0.000118583 30.1807 0.0135533 33.7354 0.0819127 33.9746C0.184452 34.3574 0.615116 34.8018 0.997928 34.918C1.19617 34.9727 1.99597 35 3.74597 35H6.21375L6.23426 30.8096L6.25476 26.626L6.47351 26.2158C6.71961 25.7305 7.15027 25.3135 7.6698 25.04L8.03211 24.8486H10.5614H13.0907L13.4803 25.04C14.2391 25.4092 14.7382 26.0791 14.9022 26.9336C14.9432 27.1455 14.9706 28.8477 14.9706 31.1445V35H18.0468H21.1229L21.1093 19.7695L21.0887 4.54589L20.9042 4.16308C20.6649 3.67773 20.1932 3.19921 19.7216 2.97363C19.3046 2.76855 19.3661 2.77538 12.5438 1.74316C9.91199 1.34667 6.65808 0.847649 5.3114 0.64257C2.7616 0.259758 2.28308 0.218742 1.79773 0.375969ZM8.51746 6.33007C8.85925 6.49413 9.04382 6.79492 9.078 7.23925C9.09851 7.55371 9.078 7.66308 8.94129 7.85449C8.62683 8.31933 8.45593 8.37402 7.06824 8.39453C6.31629 8.4082 5.72156 8.38769 5.5575 8.34667C5.18836 8.24413 4.81238 7.83398 4.75086 7.458C4.68933 7.0957 4.92176 6.59667 5.25672 6.37792C5.47547 6.22753 5.55066 6.2207 6.88367 6.2207C8.03211 6.2207 8.32605 6.24121 8.51746 6.33007ZM15.8593 6.37109C16.1874 6.59667 16.3514 6.8496 16.3856 7.1914C16.4335 7.58788 16.2284 7.99804 15.8798 8.20996C15.6268 8.36718 15.5721 8.37402 14.2186 8.37402C12.8651 8.37402 12.8104 8.36718 12.5575 8.20996C12.2089 7.99804 12.0038 7.58788 12.0516 7.1914C12.0858 6.8496 12.2499 6.59667 12.578 6.37109C12.7968 6.22753 12.8651 6.2207 14.2186 6.2207C15.5721 6.2207 15.6405 6.22753 15.8593 6.37109ZM8.51746 10.7051C8.85925 10.8691 9.04382 11.1699 9.078 11.6143C9.09851 11.9287 9.078 12.0381 8.94129 12.2295C8.62683 12.6943 8.45593 12.749 7.06824 12.7695C6.31629 12.7832 5.72156 12.7627 5.5575 12.7217C5.18836 12.6191 4.81238 12.209 4.75086 11.833C4.68933 11.4707 4.92176 10.9717 5.25672 10.7529C5.47547 10.6025 5.55066 10.5957 6.88367 10.5957C8.03211 10.5957 8.32605 10.6162 8.51746 10.7051ZM15.8593 10.7461C16.1874 10.9717 16.3514 11.2246 16.3856 11.5664C16.4335 11.9629 16.2284 12.373 15.8798 12.585C15.6268 12.7422 15.5721 12.749 14.2186 12.749C12.8651 12.749 12.8104 12.7422 12.5575 12.585C12.2089 12.373 12.0038 11.9629 12.0516 11.5664C12.0858 11.2246 12.2499 10.9717 12.578 10.7461C12.7968 10.6025 12.8651 10.5957 14.2186 10.5957C15.5721 10.5957 15.6405 10.6025 15.8593 10.7461ZM8.51746 15.0801C8.85925 15.2441 9.04382 15.5449 9.078 15.9893C9.09851 16.3037 9.078 16.4131 8.94129 16.6045C8.62683 17.0693 8.45593 17.124 7.06824 17.1445C6.31629 17.1582 5.72156 17.1377 5.5575 17.0967C5.18836 16.9941 4.81238 16.584 4.75086 16.208C4.68933 15.8457 4.92176 15.3467 5.25672 15.1279C5.47547 14.9775 5.55066 14.9707 6.88367 14.9707C8.03211 14.9707 8.32605 14.9912 8.51746 15.0801ZM15.8593 15.1211C16.1874 15.3467 16.3514 15.5996 16.3856 15.9414C16.4335 16.3379 16.2284 16.748 15.8798 16.96C15.6268 17.1172 15.5721 17.124 14.2186 17.124C12.8651 17.124 12.8104 17.1172 12.5575 16.96C12.2089 16.748 12.0038 16.3379 12.0516 15.9414C12.0858 15.5996 12.2499 15.3467 12.578 15.1211C12.7968 14.9775 12.8651 14.9707 14.2186 14.9707C15.5721 14.9707 15.6405 14.9775 15.8593 15.1211ZM8.51746 19.4551C8.85925 19.6191 9.04382 19.9199 9.078 20.3643C9.09851 20.6787 9.078 20.7881 8.94129 20.9795C8.62683 21.4443 8.45593 21.499 7.06824 21.5195C6.31629 21.5332 5.72156 21.5127 5.5575 21.4717C5.18836 21.3691 4.81238 20.959 4.75086 20.583C4.68933 20.2207 4.92176 19.7217 5.25672 19.5029C5.47547 19.3525 5.55066 19.3457 6.88367 19.3457C8.03211 19.3457 8.32605 19.3662 8.51746 19.4551ZM15.8593 19.4961C16.1874 19.7217 16.3514 19.9746 16.3856 20.3164C16.4335 20.7129 16.2284 21.123 15.8798 21.335C15.6268 21.4922 15.5721 21.499 14.2186 21.499C12.8651 21.499 12.8104 21.4922 12.5575 21.335C12.2089 21.123 12.0038 20.7129 12.0516 20.3164C12.0858 19.9746 12.2499 19.7217 12.578 19.4961C12.7968 19.3525 12.8651 19.3457 14.2186 19.3457C15.5721 19.3457 15.6405 19.3525 15.8593 19.4961Z" fill="#1D3A70"/>
<path d="M22.627 24.3359V35.0068L27.8428 34.9863L33.0518 34.9658L33.5098 34.7471C34.0703 34.4805 34.4805 34.0703 34.7539 33.4961L34.9658 33.0518V25.3613V17.6709L34.7881 17.2949C34.4736 16.6182 33.9131 16.1123 33.25 15.9004C32.9287 15.791 22.8867 13.6719 22.7158 13.6719C22.6475 13.6719 22.627 15.8525 22.627 24.3359ZM30.1191 19.8652C30.4814 20.1318 30.5908 20.3506 30.5908 20.7812C30.5908 21.2119 30.4814 21.4307 30.1191 21.6973C29.9482 21.8271 29.8184 21.8408 28.5879 21.8613C27.0635 21.8887 26.8379 21.8477 26.5303 21.499C26.1748 21.0957 26.1611 20.4941 26.5029 20.0908C26.8242 19.7148 26.9609 19.6875 28.5195 19.708C29.8252 19.7217 29.9482 19.7354 30.1191 19.8652ZM30.1191 24.2402C30.4814 24.5068 30.5908 24.7256 30.5908 25.1562C30.5908 25.5869 30.4814 25.8057 30.1191 26.0723C29.9482 26.2021 29.8184 26.2158 28.5879 26.2363C27.0635 26.2637 26.8379 26.2227 26.5303 25.874C26.1748 25.4707 26.1611 24.8691 26.5029 24.4658C26.8242 24.0898 26.9609 24.0625 28.5195 24.083C29.8252 24.0967 29.9482 24.1104 30.1191 24.2402ZM30.1191 28.6152C30.4814 28.8818 30.5908 29.1006 30.5908 29.5312C30.5908 29.9619 30.4814 30.1807 30.1191 30.4473C29.9482 30.5771 29.8184 30.5908 28.5879 30.6113C27.0635 30.6387 26.8379 30.5977 26.5303 30.249C26.1748 29.8457 26.1611 29.2441 26.5029 28.8408C26.8242 28.4648 26.9609 28.4375 28.5195 28.458C29.8252 28.4717 29.9482 28.4854 30.1191 28.6152Z" fill="#1D3A70"/>
</svg>
