<svg width="20" height="14" viewBox="0 0 20 14" fill="none" xmlns="http://www.w3.org/2000/svg">
<g clip-path="url(#clip0_457_2278)">
<path d="M20 0.5H0V13.5H20V0.5Z" fill="#FF9933"/>
<path d="M20 4.83331H0V9.16665H20V4.83331Z" fill="white"/>
<path d="M20 9.16669H0V13.5H20V9.16669Z" fill="#128807"/>
<path d="M9.99995 8.73333C10.9818 8.73333 11.7777 7.95729 11.7777 7C11.7777 6.0427 10.9818 5.26666 9.99995 5.26666C9.01811 5.26666 8.22217 6.0427 8.22217 7C8.22217 7.95729 9.01811 8.73333 9.99995 8.73333Z" fill="#000088"/>
<path d="M9.99989 8.51667C10.859 8.51667 11.5554 7.83764 11.5554 7C11.5554 6.16237 10.859 5.48334 9.99989 5.48334C9.14078 5.48334 8.44434 6.16237 8.44434 7C8.44434 7.83764 9.14078 8.51667 9.99989 8.51667Z" fill="white"/>
<path d="M9.99995 7.30332C10.1718 7.30332 10.3111 7.16751 10.3111 6.99999C10.3111 6.83246 10.1718 6.69666 9.99995 6.69666C9.82813 6.69666 9.68884 6.83246 9.68884 6.99999C9.68884 7.16751 9.82813 7.30332 9.99995 7.30332Z" fill="#000088"/>
<path d="M11.532 7.27312C11.5746 7.27859 11.6137 7.24936 11.6193 7.20784C11.6249 7.16631 11.5949 7.12822 11.5523 7.12275C11.5097 7.11729 11.4707 7.14652 11.4651 7.18804C11.4595 7.22956 11.4894 7.26765 11.532 7.27312Z" fill="#000088"/>
<path d="M9.99999 8.51661L10.0533 7.60661L9.99999 7.17328L9.94666 7.60661L9.99999 8.51661Z" fill="#000088"/>
</g>
<defs>
<clipPath id="clip0_457_2278">
<rect width="20" height="13" fill="white" transform="translate(0 0.5)"/>
</clipPath>
</defs>
</svg>
