<svg width="29" height="35" viewBox="0 0 29 35" fill="none" xmlns="http://www.w3.org/2000/svg">
<path d="M14.1101 0.0684433C13.8914 0.15731 0.609137 8.05965 0.458747 8.19637C0.123786 8.49032 0.110114 8.58602 0.0896063 10.8009C0.0622626 13.1456 0.157966 15.5108 0.315192 16.6798C1.0398 21.9776 3.30933 26.6397 6.90503 30.2149C8.97632 32.2657 11.2664 33.797 13.8025 34.8018C14.4724 35.0684 14.6501 35.0548 15.696 34.5968C18.075 33.5645 20.2214 32.0948 22.1218 30.1876C24.8357 27.4669 26.8113 24.1173 27.8982 20.3917C28.698 17.6641 28.9578 15.1622 28.9099 10.7325C28.8894 8.59286 28.8757 8.49032 28.5408 8.18954C28.3767 8.04598 15.2175 0.218834 14.9304 0.095787C14.6843 -0.013588 14.3357 -0.0204239 14.1101 0.0684433ZM20.0437 13.0772C20.5427 13.4122 20.741 14.0684 20.488 14.547C20.4334 14.6495 18.656 16.461 16.5369 18.5733C12.2986 22.7979 12.4695 22.6612 11.8201 22.4903C11.5671 22.422 11.3074 22.1964 10.0769 20.9659C9.2771 20.1729 8.573 19.421 8.51148 19.2911C8.36109 18.9698 8.40894 18.4093 8.61402 18.1222C8.90796 17.7188 9.49585 17.5343 9.96753 17.7052C10.0701 17.7462 10.5964 18.2179 11.1365 18.7511L12.1072 19.7218L15.4089 16.4268C17.2205 14.6153 18.7996 13.0841 18.9089 13.0294C19.2234 12.8653 19.7634 12.8858 20.0437 13.0772Z" fill="#1D3A70"/>
</svg>
