<svg width="30" height="34" viewBox="0 0 30 34" fill="none" xmlns="http://www.w3.org/2000/svg">
<path d="M1.51591 0.0226797C2.13639 -0.0586747 2.76557 0.0803176 3.29573 0.415861L21.372 10.793L16.7973 15.4691L1.51591 0.0226797ZM0.125429 1.4269C0.0382544 1.73261 -0.00391173 2.04962 0.000285045 2.36773V31.3789C-0.00391173 31.697 0.0382544 32.014 0.125429 32.3197L15.4208 16.8733L0.125429 1.4269ZM16.8112 18.2775L1.51591 33.7239C2.13668 33.8127 2.76834 33.6731 3.29573 33.3308L21.372 22.9536L16.8112 18.2775ZM28.6582 14.9917L23.1797 11.8462L18.1739 16.8733L23.1658 21.9145L28.6443 18.769C30.4519 17.7299 30.4519 16.0167 28.6443 14.9776L28.6582 14.9917Z" fill="#1D3A70"/>
</svg>
