<svg width="18" height="23" viewBox="0 0 18 23" fill="none" xmlns="http://www.w3.org/2000/svg">
<path d="M8.25568 0.0565701C6.7592 0.310284 5.49063 1.23053 4.8456 2.5335C4.39837 3.43655 4.35537 3.74617 4.35537 6.14999V8.0765H3.46523C2.84599 8.0765 2.47617 8.098 2.26976 8.141C1.30221 8.34311 0.493768 9.15155 0.291657 10.1191C0.197052 10.5663 0.197052 19.5194 0.291657 19.9666C0.493768 20.9342 1.30221 21.7426 2.26976 21.9447C2.72129 22.0393 15.278 22.0393 15.7295 21.9447C16.697 21.7426 17.5055 20.9342 17.7076 19.9666C17.7592 19.7129 17.7721 18.9432 17.7721 15.0429C17.7721 9.91269 17.7807 10.0933 17.4883 9.49557C17.269 9.05265 16.7959 8.57962 16.353 8.36031C15.8671 8.1238 15.5704 8.0765 14.5383 8.0765H13.6482L13.6353 5.97798L13.6181 3.88377L13.502 3.45375C13.0805 1.89707 11.9152 0.680103 10.3886 0.207078C9.72206 0.000667151 8.92221 -0.0552358 8.25568 0.0565701ZM9.59305 1.78096C9.78226 1.81966 10.0962 1.93147 10.3284 2.04328C10.6638 2.20238 10.7971 2.29699 11.0895 2.5894C11.369 2.87322 11.4765 3.01513 11.6185 3.31184C11.9109 3.91387 11.9238 4.02138 11.9238 6.17149V8.0765H8.99962H6.07546V6.17149C6.07546 4.67072 6.08836 4.20629 6.13997 3.96978C6.30768 3.16133 6.90111 2.4131 7.66655 2.04328C8.31588 1.72506 8.92221 1.64335 9.59305 1.78096ZM15.6478 9.93419C15.7381 9.9987 15.8628 10.1234 15.923 10.2137L16.0305 10.3728V15.0429V19.7129L15.923 19.872C15.8628 19.9623 15.7381 20.087 15.6478 20.1515L15.4801 20.2676H8.99962H2.51917L2.35147 20.1515C2.26116 20.087 2.13645 19.9623 2.07625 19.872L1.96875 19.7129L1.95585 15.1375C1.95154 12.1058 1.96015 10.5104 1.99025 10.3986C2.04185 10.2008 2.33427 9.89979 2.52348 9.84389C2.60088 9.81809 5.30142 9.80519 9.06842 9.80949L15.4801 9.81809L15.6478 9.93419Z" fill="#1D3A70"/>
<path d="M8.57405 12.3595C7.91612 12.5358 7.40869 13.211 7.40869 13.9076C7.40869 14.3161 7.70111 14.9096 8.01072 15.1289L8.13543 15.2149L8.14833 16.3028L8.16123 17.3951L8.27734 17.5671C8.45365 17.838 8.66436 17.9455 8.99978 17.9455C9.361 17.9455 9.58891 17.8036 9.75232 17.4811C9.85982 17.2661 9.85982 17.2489 9.85982 16.2426V15.2192L9.98453 15.1332C10.2984 14.9096 10.5909 14.3204 10.5909 13.9076C10.5909 13.1981 10.0834 12.5315 9.4083 12.3552C9.09868 12.2778 8.87937 12.2778 8.57405 12.3595Z" fill="#1D3A70"/>
</svg>
