<svg width="20" height="20" viewBox="0 0 20 20" fill="none" xmlns="http://www.w3.org/2000/svg">
<path d="M20 9.99999C20 7.31231 18.9592 4.85476 17.2188 3.0537C17.1286 2.95493 17.0195 2.87524 16.898 2.81936C16.7765 2.76347 16.645 2.73253 16.5113 2.72835C16.3777 2.72418 16.2445 2.74686 16.1198 2.79505C15.995 2.84324 15.8812 2.91597 15.785 3.00892C15.6889 3.10188 15.6123 3.21318 15.5599 3.33623C15.5076 3.45929 15.4804 3.5916 15.48 3.72534C15.4797 3.85908 15.5062 3.99153 15.5579 4.11486C15.6096 4.23819 15.6856 4.34989 15.7813 4.44335C17.1688 5.87929 18 7.82568 18 9.99999C18 14.43 14.43 18 10 18C5.56996 18 2 14.43 2 9.99999C2 7.84918 2.84949 5.87768 4.22363 4.4414C4.31444 4.3465 4.38567 4.23464 4.43325 4.11222C4.48082 3.98979 4.50382 3.85919 4.50093 3.72788C4.49803 3.59656 4.4693 3.4671 4.41636 3.34689C4.36343 3.22668 4.28734 3.11808 4.19244 3.02728C4.09753 2.93648 3.98567 2.86526 3.86324 2.81769C3.74081 2.77012 3.61021 2.74713 3.4789 2.75004C3.34758 2.75295 3.21812 2.78169 3.09792 2.83463C2.97771 2.88757 2.86911 2.96367 2.77832 3.05858C1.05647 4.8583 8.73214e-08 7.3228 1.19247e-07 9.99999C1.84964e-07 15.5109 4.48904 20 10 20C15.511 20 20 15.5109 20 9.99999ZM14.0098 3.98046C14.002 3.72066 13.8934 3.47408 13.707 3.29296L10.707 0.292959C10.5195 0.105494 10.2652 0.000183222 10 0.000183225C9.73483 0.000183228 9.48051 0.105494 9.29297 0.292959L6.29297 3.29296C6.19699 3.3851 6.12037 3.49547 6.06759 3.6176C6.0148 3.73973 5.98691 3.87116 5.98556 4.00421C5.9842 4.13725 6.00941 4.26922 6.0597 4.3924C6.10999 4.51558 6.18435 4.62748 6.27843 4.72156C6.37251 4.81564 6.48441 4.89 6.60759 4.94029C6.73077 4.99058 6.86274 5.01579 6.99578 5.01443C7.12883 5.01308 7.26026 4.98519 7.38239 4.93241C7.50452 4.87962 7.61489 4.803 7.70703 4.70702L9 3.41405L9 12.5C8.99813 12.6325 9.02261 12.7641 9.07202 12.887C9.12143 13.01 9.1948 13.1219 9.28784 13.2163C9.38088 13.3107 9.49176 13.3856 9.61401 13.4367C9.73627 13.4879 9.86747 13.5142 10 13.5142C10.1325 13.5142 10.2637 13.4879 10.386 13.4367C10.5082 13.3856 10.6191 13.3107 10.7122 13.2163C10.8052 13.1219 10.8786 13.01 10.928 12.887C10.9774 12.7641 11.0019 12.6325 11 12.5L11 3.41405L12.293 4.70702C12.4334 4.85152 12.6143 4.95022 12.8118 4.99018C13.0093 5.03014 13.2143 5.0095 13.3999 4.93096C13.5855 4.85241 13.743 4.71964 13.8518 4.55003C13.9607 4.38042 14.0157 4.18189 14.0098 3.98046Z" fill="#1D3A70"/>
</svg>
