<svg width="35" height="35" viewBox="0 0 35 35" fill="none" xmlns="http://www.w3.org/2000/svg">
<path d="M25.9191 1.39453C24.7734 1.39453 23.6887 1.65292 22.7103 2.1041C22.6963 2.10395 22.6834 2.1 22.6693 2.1H12.492C10.35 2.1 8.39999 4.1013 8.39999 6.3V28.7C8.39999 31.3026 10.8458 32.9 12.6 32.9H22.6693C24.8365 32.9 26.6 31.1365 26.6 28.9693V16.7604C30.5264 16.4139 33.6191 13.1091 33.6191 9.09453C33.6191 4.85023 30.1634 1.39453 25.9191 1.39453ZM25.9191 2.79453C29.4068 2.79453 32.2191 5.60685 32.2191 9.09453C32.2191 12.5822 29.4068 15.3945 25.9191 15.3945C22.4315 15.3945 19.6191 12.5822 19.6191 9.09453C19.6191 5.60685 22.4315 2.79453 25.9191 2.79453ZM25.2957 4.19453V5.41953C23.4204 5.69953 23.3652 7.38842 23.3652 7.58652C23.3652 9.31972 24.7319 9.63276 25.8316 9.88476C26.8186 10.1116 27.3766 10.2735 27.3766 10.9539C27.3766 11.362 27.1863 12.0477 25.9123 12.0477C25.8843 12.0477 25.2227 12.0426 24.8076 11.617C24.5626 11.3657 24.4443 11.0037 24.4562 10.5396L24.4645 10.2006H23.182L23.1916 10.5396C23.2329 12.0348 23.9216 12.8835 25.2957 13.1264V13.9945H26.5385V13.1414C28.5384 12.8397 28.6426 11.2663 28.6426 10.9443C28.6433 9.27134 27.2759 8.94954 26.1762 8.68984C25.1892 8.45744 24.6312 8.29401 24.6312 7.65351C24.6312 6.88701 25.0445 6.52969 25.9328 6.52969C26.9618 6.52969 27.1863 7.22224 27.1947 7.80254L27.2002 8.12793H28.4389L28.4594 7.82031C28.4979 7.24351 28.2693 6.60057 27.8619 6.14277C27.5175 5.75707 27.0628 5.5091 26.5385 5.4209V4.19453H25.2957ZM11.9 6.3H18.7523C18.4126 7.1676 18.2191 8.10831 18.2191 9.09453C18.2191 12.3435 20.2465 15.1247 23.1 16.2531V28H11.9V6.3ZM17.5 29.05C18.0796 29.05 18.55 29.5204 18.55 30.1C18.55 30.6796 18.0796 31.15 17.5 31.15C16.9204 31.15 16.45 30.6796 16.45 30.1C16.45 29.5204 16.9204 29.05 17.5 29.05Z" fill="#1D3A70"/>
</svg>
