<svg width="22" height="22" viewBox="0 0 22 22" fill="none" xmlns="http://www.w3.org/2000/svg">
<path d="M8.70825 12.6041C8.70825 13.4933 9.39576 14.2083 10.2391 14.2083H11.9624C12.6957 14.2083 13.2916 13.585 13.2916 12.8058C13.2916 11.9716 12.9249 11.6691 12.3841 11.4766L9.62492 10.5141C9.08409 10.3216 8.71743 10.0283 8.71743 9.18497C8.71743 8.41497 9.31324 7.78247 10.0466 7.78247H11.7699C12.6132 7.78247 13.3008 8.49747 13.3008 9.38664" stroke="#1D3A70" stroke-width="1.5" stroke-linecap="round" stroke-linejoin="round"/>
<path d="M11 6.875V15.125" stroke="#1D3A70" stroke-width="1.5" stroke-linecap="round" stroke-linejoin="round"/>
<path d="M20.1666 10.9999C20.1666 16.0599 16.0599 20.1666 10.9999 20.1666C5.93992 20.1666 1.83325 16.0599 1.83325 10.9999C1.83325 5.93992 5.93992 1.83325 10.9999 1.83325" stroke="#1D3A70" stroke-width="1.5" stroke-linecap="round" stroke-linejoin="round"/>
<path d="M20.1667 5.49992V1.83325H16.5" stroke="#1D3A70" stroke-width="1.5" stroke-linecap="round" stroke-linejoin="round"/>
<path d="M15.5833 6.41659L20.1666 1.83325" stroke="#1D3A70" stroke-width="1.5" stroke-linecap="round" stroke-linejoin="round"/>
</svg>
