<svg width="35" height="35" viewBox="0 0 35 35" fill="none" xmlns="http://www.w3.org/2000/svg">
<g clip-path="url(#clip0_66_532)">
<path d="M1.42871 3.06934C0.772461 3.3291 0.273437 3.87598 0.0957031 4.53906C-0.0410156 5.05859 -0.0410156 25.5664 0.0957031 26.0859C0.273437 26.7627 0.765625 27.3027 1.43555 27.5557C1.76367 27.6787 2.02344 27.6855 8.16894 27.6855H14.5674L14.5469 28.4854L14.5264 29.2852L10.5273 29.9551C8.32617 30.3174 6.45312 30.6387 6.37109 30.6592C5.86523 30.7822 5.69433 31.4795 6.07715 31.8623C6.22754 32.0059 6.34375 32.0605 6.52832 32.0605C6.6582 32.0605 8.70898 31.7393 11.0742 31.3428L15.374 30.625H17.5H19.626L23.9258 31.3428C26.291 31.7393 28.3418 32.0605 28.4717 32.0605C28.6562 32.0605 28.7724 32.0059 28.9228 31.8623C29.3056 31.4795 29.1348 30.7822 28.6289 30.6592C28.5469 30.6387 26.6738 30.3174 24.4726 29.9551L20.4736 29.2852L20.4531 28.4854L20.4326 27.6855H26.831C32.9765 27.6855 33.2363 27.6787 33.5644 27.5557C34.2344 27.3027 34.7265 26.7627 34.9043 26.0859C35.041 25.5664 35.041 5.05859 34.9043 4.53906C34.7265 3.86914 34.2275 3.32227 33.5576 3.06934C33.2363 2.94629 32.6621 2.93945 17.4795 2.93945C2.4541 2.94629 1.72949 2.95312 1.42871 3.06934ZM32.0605 15.3125V24.8145H17.5H2.93945V15.3125V5.81055H17.5H32.0605V15.3125Z" fill="#1D3A70"/>
</g>
<defs>
<clipPath id="clip0_66_532">
<rect width="35" height="35" fill="white"/>
</clipPath>
</defs>
</svg>
