<svg width="35" height="33" viewBox="0 0 35 33" fill="none" xmlns="http://www.w3.org/2000/svg">
<path d="M12.2705 5.19339C9.48828 7.57913 7.21191 9.56156 7.21191 9.59574C7.21191 9.62992 7.48535 9.98538 7.82031 10.3819C8.33984 10.9971 8.44238 11.086 8.53809 11.0108C8.59277 10.9698 10.5068 9.34281 12.79 7.4014C15.0732 5.45316 17.001 3.83304 17.0762 3.79203C17.3086 3.66898 17.6709 3.70316 17.8828 3.86722C17.9922 3.95609 19.8994 5.5762 22.1143 7.4766C24.3359 9.37699 26.2021 10.9698 26.2637 11.0176C26.3525 11.086 26.4619 10.9903 27.0293 10.3477L27.6924 9.59574L27.4668 9.39749C25.3271 7.53128 17.4521 0.845737 17.4043 0.852572C17.3633 0.852572 15.0527 2.80765 12.2705 5.19339Z" fill="#1D3A70"/>
<path d="M13.9521 8.26953L10.5273 11.1816V21.7021V32.2227L12.0859 32.209L13.6377 32.1885L13.6719 29.5225C13.6924 28.0527 13.7197 26.8496 13.7266 26.8359C13.7334 26.8291 13.8428 26.7607 13.9658 26.6855C14.1777 26.5557 14.3145 26.5488 17.4453 26.5488H20.7129L20.9316 26.7471L21.1572 26.9453L21.1777 29.584L21.1982 32.2227H22.6953H24.1992L24.1855 21.6816L24.165 11.1406L21.0205 8.44727C19.291 6.9707 17.7598 5.66504 17.623 5.55566L17.377 5.35742L13.9521 8.26953ZM18.2793 13.5947C19.4141 13.9365 20.1797 14.9688 20.1797 16.1514C20.1797 17.5117 19.2705 18.5986 17.9238 18.8311C16.6387 19.0566 15.2988 18.2227 14.9229 16.958C14.5127 15.5635 15.2715 14.0869 16.6455 13.6152C17.0762 13.4717 17.8418 13.4648 18.2793 13.5947ZM20.8018 22.3174C21.3555 22.6045 21.3145 23.3906 20.7334 23.6162C20.5146 23.6982 14.2803 23.6982 14.0615 23.6162C13.4873 23.3975 13.4395 22.6182 13.9795 22.3242C14.1709 22.2148 20.5967 22.2148 20.8018 22.3174Z" fill="#1D3A70"/>
<path d="M16.9873 15.0233C16.7207 15.1396 16.3516 15.5565 16.2969 15.8026C16.2764 15.9052 16.249 16.0214 16.2354 16.0692C16.1807 16.2333 16.3926 16.8485 16.5498 17.0194C17.1856 17.6962 18.3955 17.4843 18.669 16.6503C18.9629 15.7548 18.3887 14.9208 17.4795 14.9276C17.3223 14.9345 17.0967 14.9755 16.9873 15.0233Z" fill="#1D3A70"/>
<path d="M0.786133 17.1631C0.546875 17.2246 0.191406 17.5322 0.0957031 17.7715C0.0136719 17.9629 0 19.1865 0 25.1133V32.2227L4.53223 32.209L9.05762 32.1885L9.07812 24.6484L9.0918 17.1152L5.01074 17.1221C2.76172 17.1289 0.861328 17.1494 0.786133 17.1631ZM3.09668 20.1367C3.33594 20.2598 3.41797 20.6152 3.41797 21.5039C3.41797 22.5088 3.3291 22.7617 2.92578 22.9121C2.7002 23.001 2.64551 22.9941 2.41309 22.8848C2.03027 22.6934 1.98242 22.543 1.98242 21.5039C1.98242 20.4717 2.05078 20.2393 2.41309 20.0889C2.63184 19.9932 2.85742 20.0137 3.09668 20.1367ZM6.74023 20.1367C7.02051 20.2734 7.0752 20.4922 7.0752 21.5176C7.0752 22.6045 7.01367 22.7891 6.59668 22.9258C6.2959 23.0283 6.0498 22.9531 5.84473 22.707C5.68066 22.5088 5.67383 22.4746 5.67383 21.4971C5.67383 20.3896 5.71484 20.2598 6.11133 20.082C6.32324 19.9932 6.47363 20.0068 6.74023 20.1367ZM2.98047 26.1045C3.33594 26.2549 3.41797 26.5146 3.41797 27.5195C3.41797 28.5244 3.3291 28.7773 2.92578 28.9277C2.7002 29.0166 2.64551 29.0098 2.41309 28.9004C2.03027 28.709 1.98242 28.5586 1.98242 27.5059C1.98242 26.4668 2.03027 26.3027 2.39258 26.125C2.67969 25.9746 2.67969 25.9746 2.98047 26.1045ZM6.61719 26.0771C7.01367 26.2139 7.0752 26.3984 7.0752 27.4785C7.0752 28.5176 7.02734 28.7158 6.71973 28.8799C6.42578 29.0371 6.07715 28.9824 5.86523 28.7432C5.67383 28.5312 5.67383 28.5244 5.67383 27.5127C5.67383 26.5215 5.68066 26.4873 5.84473 26.2822C5.94043 26.1729 6.09082 26.0635 6.17285 26.0498C6.25488 26.0361 6.34375 26.0156 6.36426 26.0088C6.38477 26.0088 6.50098 26.0361 6.61719 26.0771Z" fill="#1D3A70"/>
<path d="M25.6691 17.1973C25.6486 17.2451 25.6417 20.6357 25.6486 24.7373L25.6691 32.1885L30.338 32.209L35.0001 32.2227V25.1133C35.0001 17.2451 35.0275 17.7099 34.5489 17.3476L34.296 17.1494L29.9962 17.1289C26.5577 17.1152 25.6964 17.1289 25.6691 17.1973ZM28.8751 20.082C29.2853 20.2529 29.3263 20.376 29.3263 21.4971C29.3263 22.4746 29.3195 22.5088 29.1554 22.707C28.9503 22.9531 28.7042 23.0283 28.4034 22.9258C28.0275 22.8027 27.9318 22.584 27.9044 21.7432C27.8907 21.3398 27.8976 20.875 27.9181 20.7109C27.9728 20.3828 28.212 20.082 28.4581 20.0342C28.5402 20.0205 28.6154 20 28.629 19.9932C28.6359 19.9932 28.7521 20.0273 28.8751 20.082ZM32.587 20.1367C32.8673 20.2734 32.9493 20.5879 32.9493 21.4834C32.9493 22.4746 32.8673 22.748 32.5118 22.8916C32.1974 23.0283 31.8966 22.96 31.6847 22.707C31.5206 22.5088 31.5138 22.4678 31.5138 21.4971C31.5138 20.3896 31.5548 20.2598 31.9513 20.082C32.1632 19.9932 32.3136 20.0068 32.587 20.1367ZM29.1417 26.2822C29.3263 26.4805 29.3263 26.4873 29.3263 27.5059C29.3263 28.5312 29.3263 28.5312 29.1349 28.7432C28.8273 29.0918 28.2325 29.0234 28.0206 28.6133C27.8839 28.3603 27.8907 26.6377 28.0275 26.3779C28.2462 25.9678 28.7999 25.9199 29.1417 26.2822ZM32.5118 26.1045C32.8673 26.248 32.9493 26.5146 32.9493 27.5059C32.9493 28.0732 32.9152 28.4014 32.8468 28.5723C32.6486 29.0439 31.9855 29.1123 31.6505 28.6885C31.5275 28.5312 31.5138 28.415 31.5138 27.499C31.5138 26.5215 31.5206 26.4873 31.6847 26.2822C31.8351 26.1045 31.9239 26.0635 32.2179 26.0088C32.2452 26.0088 32.3751 26.0498 32.5118 26.1045Z" fill="#1D3A70"/>
<path d="M15.1074 30.1035V32.2227H17.4316H19.7559V30.1035V27.9844H17.4316H15.1074V30.1035Z" fill="#1D3A70"/>
</svg>
