<svg width="24" height="24" viewBox="0 0 24 24" fill="none" xmlns="http://www.w3.org/2000/svg">
<path d="M4.5 9.75H1.5C1.30109 9.75 1.11032 9.67098 0.96967 9.53033C0.829018 9.38968 0.75 9.19891 0.75 9C0.75 8.80109 0.829018 8.61032 0.96967 8.46967C1.11032 8.32902 1.30109 8.25 1.5 8.25H4.5C4.69891 8.25 4.88968 8.32902 5.03033 8.46967C5.17098 8.61032 5.25 8.80109 5.25 9C5.25 9.19891 5.17098 9.38968 5.03033 9.53033C4.88968 9.67098 4.69891 9.75 4.5 9.75ZM4.5 12.75H1.5C1.30109 12.75 1.11032 12.671 0.96967 12.5303C0.829018 12.3897 0.75 12.1989 0.75 12C0.75 11.8011 0.829018 11.6103 0.96967 11.4697C1.11032 11.329 1.30109 11.25 1.5 11.25H4.5C4.69891 11.25 4.88968 11.329 5.03033 11.4697C5.17098 11.6103 5.25 11.8011 5.25 12C5.25 12.1989 5.17098 12.3897 5.03033 12.5303C4.88968 12.671 4.69891 12.75 4.5 12.75ZM4.5 15.75H1.5C1.30109 15.75 1.11032 15.671 0.96967 15.5303C0.829018 15.3897 0.75 15.1989 0.75 15C0.75 14.8011 0.829018 14.6103 0.96967 14.4697C1.11032 14.329 1.30109 14.25 1.5 14.25H4.5C4.69891 14.25 4.88968 14.329 5.03033 14.4697C5.17098 14.6103 5.25 14.8011 5.25 15C5.25 15.1989 5.17098 15.3897 5.03033 15.5303C4.88968 15.671 4.69891 15.75 4.5 15.75ZM21 24H7.5C7.30109 24 7.11032 23.921 6.96967 23.7803C6.82902 23.6397 6.75 23.4489 6.75 23.25V0.75C6.75 0.551088 6.82902 0.360322 6.96967 0.21967C7.11032 0.0790176 7.30109 0 7.5 0L21 0C21.5967 0 22.169 0.237053 22.591 0.65901C23.0129 1.08097 23.25 1.65326 23.25 2.25V21.75C23.25 22.3467 23.0129 22.919 22.591 23.341C22.169 23.7629 21.5967 24 21 24ZM8.25 22.5H21C21.1989 22.5 21.3897 22.421 21.5303 22.2803C21.671 22.1397 21.75 21.9489 21.75 21.75V2.25C21.75 2.05109 21.671 1.86032 21.5303 1.71967C21.3897 1.57902 21.1989 1.5 21 1.5H8.25V22.5Z" fill="#1D3A70"/>
<path d="M7.5 24H4.5C3.90326 24 3.33097 23.7629 2.90901 23.341C2.48705 22.919 2.25 22.3467 2.25 21.75V2.25C2.25 1.65326 2.48705 1.08097 2.90901 0.65901C3.33097 0.237053 3.90326 0 4.5 0L7.5 0C7.69891 0 7.88968 0.0790176 8.03033 0.21967C8.17098 0.360322 8.25 0.551088 8.25 0.75V23.25C8.25 23.4489 8.17098 23.6397 8.03033 23.7803C7.88968 23.921 7.69891 24 7.5 24ZM4.5 1.5C4.30109 1.5 4.11032 1.57902 3.96967 1.71967C3.82902 1.86032 3.75 2.05109 3.75 2.25V21.75C3.75 21.9489 3.82902 22.1397 3.96967 22.2803C4.11032 22.421 4.30109 22.5 4.5 22.5H6.75V1.5H4.5ZM15 11.25C14.555 11.25 14.12 11.118 13.75 10.8708C13.38 10.6236 13.0916 10.2722 12.9213 9.86104C12.751 9.4499 12.7064 8.9975 12.7932 8.56105C12.88 8.12459 13.0943 7.72368 13.409 7.40901C13.7237 7.09434 14.1246 6.88005 14.561 6.79323C14.9975 6.70642 15.4499 6.75097 15.861 6.92127C16.2722 7.09157 16.6236 7.37996 16.8708 7.74997C17.118 8.11998 17.25 8.55499 17.25 9C17.25 9.59674 17.0129 10.169 16.591 10.591C16.169 11.0129 15.5967 11.25 15 11.25ZM15 8.25C14.8517 8.25 14.7067 8.29399 14.5833 8.3764C14.46 8.45881 14.3639 8.57594 14.3071 8.71299C14.2503 8.85003 14.2355 9.00083 14.2644 9.14632C14.2934 9.2918 14.3648 9.42544 14.4697 9.53033C14.5746 9.63522 14.7082 9.70665 14.8537 9.73559C14.9992 9.76453 15.15 9.74968 15.287 9.69291C15.4241 9.63614 15.5412 9.54002 15.6236 9.41668C15.706 9.29334 15.75 9.14834 15.75 9C15.75 8.80109 15.671 8.61032 15.5303 8.46967C15.3897 8.32902 15.1989 8.25 15 8.25ZM18.75 17.25H11.25C11.0511 17.25 10.8603 17.171 10.7197 17.0303C10.579 16.8897 10.5 16.6989 10.5 16.5V15.75C10.5 14.7554 10.8951 13.8016 11.5983 13.0983C12.3016 12.3951 13.2554 12 14.25 12H15.75C16.7446 12 17.6984 12.3951 18.4016 13.0983C19.1049 13.8016 19.5 14.7554 19.5 15.75V16.5C19.5 16.6989 19.421 16.8897 19.2803 17.0303C19.1397 17.171 18.9489 17.25 18.75 17.25ZM12 15.75H18C18 15.1533 17.7629 14.581 17.341 14.159C16.919 13.7371 16.3467 13.5 15.75 13.5H14.25C13.6533 13.5 13.081 13.7371 12.659 14.159C12.2371 14.581 12 15.1533 12 15.75Z" fill="#1D3A70"/>
</svg>
