<svg width="32" height="32" viewBox="0 0 32 32" fill="none" xmlns="http://www.w3.org/2000/svg">
<path d="M15.1017 29.9998C15.6538 29.9876 16.1836 29.7883 16.5973 29.4373C17.0111 29.0862 17.2822 28.606 17.3628 28.0815H12.7531C12.8358 28.6202 13.1197 29.1117 13.5517 29.4646C13.9837 29.8175 14.5346 30.0076 15.1017 29.9998V29.9998Z" fill="white"/>
<path d="M28.1158 24.8255L27.8178 24.5731C26.9725 23.85 26.2326 23.0209 25.6182 22.108C24.9471 20.8481 24.5448 19.4722 24.4351 18.0611V13.9049C24.4315 13.4001 24.3846 12.8964 24.2948 12.3989C22.8104 12.106 21.4769 11.3296 20.5203 10.2011C19.5637 9.07271 19.0426 7.66158 19.0454 6.20665V5.67661C18.1304 5.24432 17.1473 4.96005 16.1358 4.83527V3.77518C16.1358 3.47729 16.0126 3.19161 15.7932 2.98097C15.5738 2.77033 15.2762 2.65199 14.9659 2.65199C14.6556 2.65199 14.358 2.77033 14.1386 2.98097C13.9192 3.19161 13.7959 3.47729 13.7959 3.77518V4.87734C11.5311 5.18405 9.45841 6.26701 7.96038 7.92629C6.46236 9.58557 5.6402 11.7091 5.6457 13.9049V18.0611C5.53594 19.4722 5.1337 20.8481 4.4626 22.108C3.85868 23.0186 3.13069 23.8476 2.29797 24.5731L2 24.8255V27.1981H28.1158V24.8255Z" fill="white"/>
<path d="M25.5 11C27.9853 11 30 8.98528 30 6.5C30 4.01472 27.9853 2 25.5 2C23.0147 2 21 4.01472 21 6.5C21 8.98528 23.0147 11 25.5 11Z" fill="#FF0000"/>
</svg>
