<svg width="68" height="63" viewBox="0 0 68 63" fill="none" xmlns="http://www.w3.org/2000/svg">
<path fill-rule="evenodd" clip-rule="evenodd" d="M57.419 23.8591C59.4113 28.4732 63.9803 32.2336 63.6199 37.2751C63.235 42.6579 60.8579 49.43 55.4517 51.3742C49.5983 53.4792 44.3899 46.6997 38.2158 46.4109C33.7665 46.2028 29.9827 50.0601 25.5243 49.9745C19.4697 49.8584 10.3076 51.195 8.41607 45.8391C6.31925 39.9019 15.9612 35.4192 18.2589 29.4021C19.6046 25.8779 17.5101 22.0394 18.8504 18.5135C20.4644 14.2675 21.9411 8.20436 26.629 7.38218C31.7369 6.48632 34.2017 13.9739 39.2255 14.9399C43.8051 15.8205 48.7782 10.4151 52.8933 12.4325C56.7924 14.344 55.7607 20.0183 57.419 23.8591Z" fill="#E7EEFB"/>
<rect x="20.5164" y="14.395" width="34" height="34" rx="10" fill="#1D3A70"/>
<path d="M38.79 41L29 31.21V33.21C29 33.74 29.21 34.25 29.59 34.62L37.38 42.41C38.16 43.19 39.43 43.19 40.21 42.41L46.42 36.2C47.2 35.42 47.2 34.15 46.42 33.37L38.79 41Z" fill="white"/>
<path d="M37.38 37.41C37.77 37.8 38.28 38 38.79 38C39.3 38 39.81 37.8 40.2 37.41L46.41 31.2C47.19 30.42 47.19 29.15 46.41 28.37L38.62 20.58C38.25 20.21 37.74 20 37.21 20H31C29.9 20 29 20.9 29 22V28.21C29 28.74 29.21 29.25 29.59 29.62L37.38 37.41ZM31 22H37.21L45 29.79L38.79 36L31 28.21V22Z" fill="white"/>
<path d="M33.25 25.5C33.9404 25.5 34.5 24.9404 34.5 24.25C34.5 23.5596 33.9404 23 33.25 23C32.5596 23 32 23.5596 32 24.25C32 24.9404 32.5596 25.5 33.25 25.5Z" fill="white"/>
</svg>
