<svg width="233" height="197" viewBox="0 0 233 197" fill="none" xmlns="http://www.w3.org/2000/svg">
<g clip-path="url(#clip0_516_2289)">
<path d="M189.76 95.0794C189.76 97.8476 189.644 100.588 189.412 103.3C189.229 105.417 188.979 107.515 188.663 109.594C188.327 111.795 187.915 113.97 187.428 116.118V116.121C187.109 117.534 186.759 118.937 186.378 120.327C185.271 124.37 183.895 128.334 182.259 132.193C181.903 133.032 181.536 133.865 181.157 134.693C179.723 137.828 178.118 140.882 176.348 143.84C171.386 152.146 165.192 159.648 157.978 166.087C157.197 166.783 156.406 167.467 155.603 168.14C138.571 182.398 117.074 190.193 94.8801 190.159C42.4786 190.159 0 147.591 0 95.0794C0 42.5678 42.4786 -6.53425e-05 94.8801 -6.53425e-05C116.309 -0.0339253 137.113 7.23486 153.876 20.6129C154.662 21.2368 155.438 21.8748 156.204 22.5268C159.942 25.7035 163.43 29.1636 166.638 32.8766H166.641C181.583 50.1371 189.794 72.2292 189.76 95.0794V95.0794Z" fill="#F2F2F2"/>
<path d="M28.0086 111.503C18.9702 106.112 12.1483 96.0378 13.0339 85.535C21.2973 93.4605 32.0918 98.2014 43.5075 98.9191C47.9111 99.1799 52.836 99.0105 56.0775 102.009C58.0945 103.874 59.0334 106.683 59.1874 109.429C59.3414 112.175 58.7924 114.907 58.2463 117.603L58.4342 118.263C47.9161 118.303 37.047 116.894 28.0086 111.503Z" fill="#E6E6E6"/>
<path d="M13.2542 85.5238C16.8757 93.4576 22.8997 100.046 30.4705 104.354C32.0981 105.267 33.8284 106.051 35.6672 106.415C37.4623 106.755 39.3156 106.608 41.0347 105.988C42.6492 105.443 44.2376 104.697 45.9563 104.554C47.7679 104.404 49.4451 105.104 50.7628 106.331C52.375 107.832 53.3529 109.824 54.2417 111.805C55.2285 114.005 56.2187 116.306 58.1107 117.888C58.3399 118.079 58.0297 118.425 57.8009 118.233C54.5091 115.481 53.9718 110.871 51.3406 107.63C50.1128 106.117 48.4227 104.966 46.4149 104.997C44.6591 105.023 43.0205 105.791 41.3906 106.357C39.6791 106.952 37.9647 107.232 36.1578 106.97C34.3095 106.702 32.545 105.984 30.9013 105.117C27.1885 103.122 23.8118 100.555 20.8949 97.5098C17.5465 94.0524 14.813 90.0466 12.8126 85.6655C12.6889 85.3943 13.1313 85.2544 13.2542 85.5238H13.2542Z" fill="white"/>
<path d="M27.9514 103.11C27.0577 104.285 25.7765 105.103 24.3364 105.419C22.8963 105.734 21.3912 105.527 20.0899 104.833C19.8271 104.692 20.0338 104.276 20.297 104.417C21.5076 105.066 22.9097 105.259 24.25 104.962C25.5904 104.666 26.7809 103.899 27.6065 102.8C27.7863 102.561 28.13 102.873 27.9514 103.11L27.9514 103.11Z" fill="white"/>
<path d="M40.2526 106.373C39.8765 103.377 38.3873 100.633 36.0821 98.6884C35.8535 98.496 36.1636 98.1507 36.3919 98.3429C38.7871 100.371 40.331 103.23 40.7155 106.348C40.752 106.646 40.2888 106.669 40.2526 106.373V106.373Z" fill="white"/>
<path d="M18.1214 93.8344C18.5617 93.4521 18.9003 92.9661 19.1069 92.4202C19.3134 91.8743 19.3814 91.2855 19.3048 90.7068C19.2646 90.4101 19.7278 90.3873 19.7677 90.682C19.8494 91.3218 19.7735 91.972 19.5466 92.5756C19.3198 93.1793 18.9488 93.7181 18.4662 94.1449C18.4241 94.189 18.3668 94.2153 18.306 94.2186C18.2452 94.2218 18.1855 94.2018 18.1389 94.1624C18.0934 94.1211 18.0661 94.0635 18.0628 94.002C18.0596 93.9406 18.0806 93.8804 18.1214 93.8344V93.8344Z" fill="white"/>
<path d="M42.2905 65.1876C42.3209 65.3721 42.3512 65.5566 42.3851 65.7429C42.806 68.2216 43.4271 70.662 44.2424 73.0399C44.3025 73.2248 44.3662 73.4112 44.4315 73.5939C46.4566 79.3019 49.5216 84.5834 53.4707 89.1702C55.0438 90.9939 56.7531 92.695 58.5838 94.2588C61.1121 96.4184 64.025 98.5584 65.646 101.347C65.8184 101.636 65.9727 101.935 66.1082 102.243L59.2233 117.982C59.1898 118.01 59.1597 118.04 59.126 118.068L58.8798 118.709C58.7798 118.635 58.6776 118.556 58.5776 118.482C58.5194 118.439 58.4627 118.393 58.4045 118.35C58.3662 118.32 58.3279 118.291 58.2916 118.266C58.2789 118.256 58.2661 118.246 58.2569 118.238C58.2206 118.214 58.1896 118.187 58.1569 118.164C57.5846 117.724 57.0144 117.28 56.4463 116.83C56.4427 116.829 56.4427 116.829 56.4406 116.824C52.1205 113.389 48.0487 109.563 44.6858 105.239C44.5846 105.109 44.4798 104.977 44.3819 104.84C42.8768 102.882 41.534 100.805 40.3667 98.6279C39.7313 97.434 39.1567 96.2085 38.645 94.9563C37.3291 91.7183 36.5296 88.293 36.2759 84.806C35.7711 77.8546 37.4904 70.8188 41.9462 65.5842C42.0602 65.4504 42.1728 65.3198 42.2905 65.1876Z" fill="#E6E6E6"/>
<path d="M42.4744 65.3106C40.5993 73.8302 41.4507 82.7252 44.9076 90.7323C45.6586 92.4433 46.5691 94.1133 47.8187 95.5132C49.0472 96.8682 50.6154 97.8689 52.3604 98.4113C53.9773 98.9497 55.6934 99.3128 57.1515 100.236C58.6884 101.209 59.6067 102.78 59.9218 104.554C60.3073 106.725 59.8913 108.906 59.4106 111.024C58.8768 113.376 58.2852 115.81 58.8454 118.215C58.9133 118.506 58.4582 118.595 58.3904 118.304C57.4158 114.12 59.7561 110.116 59.6028 105.94C59.5312 103.991 58.8732 102.053 57.2519 100.866C55.8341 99.8275 54.0647 99.4515 52.4229 98.9205C50.699 98.363 49.1622 97.5517 47.8768 96.2526C46.5619 94.9237 45.5844 93.2857 44.793 91.6016C43.0269 87.7691 41.873 83.6822 41.3738 79.4906C40.7775 74.7099 41.0017 69.8622 42.0367 65.1572C42.1009 64.8661 42.5382 65.0213 42.4744 65.3106V65.3106Z" fill="white"/>
<path d="M43.6431 88.2197C42.2237 88.6186 40.7091 88.4989 39.3698 87.8819C38.0304 87.265 36.9535 86.1911 36.3313 84.8519C36.2063 84.5805 36.6213 84.3732 36.7464 84.645C37.3235 85.893 38.3268 86.8933 39.5752 87.4652C40.8236 88.0372 42.2348 88.143 43.5543 87.7638C43.8411 87.6817 43.9283 88.1381 43.6431 88.2197H43.6431Z" fill="white"/>
<path d="M51.5048 98.2465C53.0046 95.6274 53.4641 92.5381 52.7919 89.5946C52.725 89.303 53.1801 89.2144 53.2469 89.5056C53.9407 92.57 53.456 95.784 51.8893 98.506C51.7398 98.7654 51.3561 98.5045 51.5048 98.2465Z" fill="white"/>
<path d="M41.3676 74.8827C41.9489 74.843 42.5112 74.6593 43.0041 74.3481C43.497 74.0368 43.9051 73.6078 44.1916 73.0994C44.3378 72.8383 44.7213 73.0995 44.5761 73.3589C44.2569 73.9191 43.8057 74.3924 43.2619 74.7375C42.7181 75.0826 42.0982 75.289 41.4564 75.3386C41.3963 75.3484 41.3347 75.3349 41.2842 75.3008C41.2337 75.2667 41.1981 75.2146 41.1845 75.1551C41.1731 75.0947 41.1859 75.0322 41.2202 74.9812C41.2544 74.9301 41.3074 74.8948 41.3676 74.8827V74.8827Z" fill="white"/>
<path d="M65.7243 22.0366L77.3372 158.266L54.1113 160.016V23.7699C56.8789 21.9347 60.8517 21.6476 65.7243 22.0366Z" fill="#CCCCCC"/>
<path d="M123.048 22.0366L111.435 158.266L134.661 160.016V23.7699C131.893 21.9347 127.92 21.6476 123.048 22.0366Z" fill="#CCCCCC"/>
<path d="M131.183 165.646H57.3419C56.1579 165.645 55.0227 165.173 54.1855 164.334C53.3482 163.495 52.8773 162.357 52.876 161.171V25.7692C52.8773 24.5826 53.3483 23.4451 54.1855 22.6061C55.0228 21.7671 56.1579 21.2952 57.3419 21.2938H131.183C132.367 21.2952 133.502 21.7671 134.339 22.6061C135.177 23.4451 135.648 24.5826 135.649 25.7692V161.171C135.648 162.357 135.177 163.495 134.339 164.334C133.502 165.173 132.367 165.645 131.183 165.646V165.646ZM57.3419 22.7794C56.5509 22.7803 55.7926 23.0956 55.2333 23.6561C54.674 24.2166 54.3594 24.9765 54.3585 25.7692V161.171C54.3594 161.963 54.674 162.723 55.2333 163.284C55.7926 163.844 56.5509 164.16 57.3419 164.161H131.183C131.974 164.16 132.732 163.844 133.292 163.284C133.851 162.723 134.166 161.963 134.166 161.171V25.7692C134.166 24.9765 133.851 24.2166 133.292 23.6561C132.732 23.0956 131.974 22.7803 131.183 22.7794L57.3419 22.7794Z" fill="#CCCCCC"/>
<path d="M134.907 43.8257H53.6169V45.3113H134.907V43.8257Z" fill="#CCCCCC"/>
<path d="M134.907 68.5859H53.6169V70.0716H134.907V68.5859Z" fill="#CCCCCC"/>
<path d="M79.9967 22.0367H78.5142V89.6322H79.9967V22.0367Z" fill="#CCCCCC"/>
<path d="M110.011 22.0367H108.528V89.6322H110.011V22.0367Z" fill="#CCCCCC"/>
<path d="M144.173 169.732H46.8224C45.0531 169.732 43.3562 169.027 42.1051 167.774C40.854 166.52 40.1511 164.819 40.1511 163.046C40.1511 161.273 40.854 159.573 42.1051 158.319C43.3562 157.065 45.0531 156.361 46.8224 156.361H144.173C145.943 156.361 147.639 157.065 148.891 158.319C150.142 159.573 150.845 161.273 150.845 163.046C150.845 164.819 150.142 166.52 148.891 167.774C147.639 169.027 145.943 169.732 144.173 169.732V169.732Z" fill="#CCCCCC"/>
<path d="M134.908 86.1658H54.1113V91.1178H134.908V86.1658Z" fill="#CCCCCC"/>
<path d="M80.2268 101.926L80.1243 101.876C74.6164 99.2099 67.4037 99.2123 56.737 101.885L56.6231 101.913L56.589 101.801C55.4606 98.0931 54.1823 93.8938 56.5837 91.8277C56.6173 85.7651 61.9242 80.8422 68.4426 80.8422C74.9597 80.8422 80.2658 85.7626 80.3014 91.8236C83.8736 94.5606 82.1712 98.605 80.2845 101.827L80.2268 101.926Z" fill="#2F2E41"/>
<path d="M114.08 88.9439C113.981 89.4352 113.776 89.8988 113.479 90.302C113.182 90.7053 112.801 91.0384 112.362 91.278C111.922 91.5175 111.436 91.6576 110.937 91.6884C110.438 91.7192 109.938 91.64 109.473 91.4563L90.0081 111.058L88.2715 104.971L107.603 86.7688C107.963 86.006 108.59 85.402 109.364 85.0711C110.139 84.7402 111.007 84.7056 111.806 84.9737C112.604 85.2418 113.277 85.794 113.696 86.5258C114.115 87.2575 114.252 88.1179 114.08 88.9439L114.08 88.9439Z" fill="#FFB6B6"/>
<path d="M65.9733 107.814C65.9733 107.814 64.2073 111.825 68.5648 114.298C72.9223 116.771 88.1518 113.354 90.6229 112.877C93.0941 112.4 102.324 98.5587 102.324 98.5587L101.019 91.7707L88.778 102.419L65.9733 107.814Z" fill="#1D3A70"/>
<path d="M62.7592 129.991L63.0063 134.696C63.0063 134.696 62.277 138.863 62.8768 139.762C63.4721 140.657 79.7157 140.77 79.7157 140.77C79.7157 140.77 80.789 134.972 81.7134 129.897L62.7592 129.991Z" fill="#FFB6B6"/>
<path d="M109.461 192.194L112.857 191.507L111.885 177.762L106.874 178.776L109.461 192.194Z" fill="#FFB6B6"/>
<path d="M114.326 174.307L117.483 172.884L113.387 159.733L108.728 161.832L114.326 174.307Z" fill="#FFB6B6"/>
<path d="M117.076 166.896L111.131 170.269L96.4715 146.662C86.1801 153.61 76.1164 156.938 65.9713 158.713C62.5413 159.325 59.0442 159.015 58.3857 155.517C58.3549 155.353 58.3304 155.189 58.3121 155.023C57.9071 151.202 62.6505 146.304 63.2534 141.629L76.2353 140.848L77.8362 142.905L92.8493 133.655C95.8684 131.795 99.8394 132.801 101.719 135.902C101.818 136.066 101.91 136.234 101.995 136.406L117.076 166.896Z" fill="#2F2E41"/>
<path d="M113.437 182.777L106.636 183.411L94.303 158.135C82.0735 160.243 70.536 160.918 60.5566 158.368C57.1779 157.517 55.1125 154.021 55.9436 150.559C55.9824 150.398 56.0273 150.238 56.0783 150.079C57.2727 146.428 60.399 143.844 62.8622 139.827L80.854 140.101L78.8445 147.05L96.3223 144.783C99.8371 144.327 103.047 146.877 103.492 150.478C103.516 150.668 103.531 150.859 103.538 151.05L113.437 182.777Z" fill="#2F2E41"/>
<path d="M69.7842 98.3323C73.8191 98.3323 77.0899 95.0546 77.0899 91.0112C77.0899 86.9679 73.8191 83.6902 69.7842 83.6902C65.7494 83.6902 62.4785 86.9679 62.4785 91.0112C62.4785 95.0546 65.7494 98.3323 69.7842 98.3323Z" fill="#FFB6B6"/>
<path d="M65.5015 100.975L72.2002 101.765C72.4826 101.798 72.7477 101.919 72.9585 102.11C73.1692 102.302 73.3151 102.554 73.3758 102.833L74.4411 107.718L81.0819 115.555C81.0819 115.555 83.4665 120.035 82.5723 125.113C81.6781 130.191 81.2851 133.964 81.2851 133.964C81.2851 133.964 63.4713 140.658 62.8752 139.761C62.279 138.865 62.0856 134.795 62.0856 134.795L59.7009 108.21C59.7009 108.21 62.3836 103.729 63.8741 103.729C64.8359 103.697 64.7125 101.528 65.5015 100.975Z" fill="#1D3A70"/>
<path d="M81.4662 135.599C82.4056 135.599 83.1671 134.683 83.1671 133.554C83.1671 132.424 82.4056 131.508 81.4662 131.508C80.5269 131.508 79.7654 132.424 79.7654 133.554C79.7654 134.683 80.5269 135.599 81.4662 135.599Z" fill="#1D3A70"/>
<path d="M107.776 188.655L112.954 186.055L113.929 188.336L120.476 189.663C120.8 189.728 121.094 189.895 121.315 190.14C121.537 190.385 121.675 190.694 121.709 191.023C121.743 191.352 121.671 191.683 121.504 191.968C121.336 192.253 121.083 192.477 120.779 192.607L114.454 195.324L112.398 193.536L112.938 195.976L110.553 197L107.776 188.655Z" fill="#2F2E41"/>
<path d="M112.844 173.213L117.975 170.522L118.99 172.785L125.56 173.996C125.884 174.056 126.181 174.218 126.407 174.459C126.633 174.699 126.776 175.006 126.816 175.335C126.855 175.663 126.789 175.995 126.627 176.283C126.465 176.571 126.215 176.799 125.914 176.935L119.637 179.763L117.551 178.011L118.133 180.441L115.766 181.507L112.844 173.213Z" fill="#2F2E41"/>
<path d="M65.6103 88.7148C63.6802 88.718 61.7964 88.1224 60.2175 87.0099L60.1648 86.9729V86.9085C60.1669 85.0376 60.9095 83.2439 62.2297 81.921C63.5498 80.5981 65.3397 79.8539 67.2067 79.8518H70.1717C72.0386 79.8539 73.8285 80.5981 75.1487 81.921C76.4688 83.2439 77.2114 85.0376 77.2136 86.9085C77.2116 87.3367 77.0429 87.7472 76.7433 88.0526C76.4438 88.358 76.0371 88.5341 75.6099 88.5435L65.7769 88.7134C65.7214 88.7144 65.6657 88.7148 65.6103 88.7148Z" fill="#2F2E41"/>
<path d="M77.7076 85.5533C78.653 85.0063 78.811 83.5068 78.0605 82.2041C77.3099 80.9014 75.9351 80.2888 74.9897 80.8358C74.0443 81.3828 73.8863 82.8822 74.6368 84.1849C75.3873 85.4876 76.7622 86.1002 77.7076 85.5533Z" fill="#2F2E41"/>
<path d="M62.9214 84.0999C63.9828 83.0363 64.2175 81.5469 63.4455 80.7734C62.6736 79.9998 61.1874 80.235 60.126 81.2986C59.0645 82.3623 58.8299 83.8516 59.6018 84.6252C60.3738 85.3987 61.86 85.1636 62.9214 84.0999Z" fill="#2F2E41"/>
<path d="M127.579 151.038H120.287C120.122 151.037 119.96 151.073 119.81 151.142C119.661 151.211 119.529 151.312 119.422 151.438C119.153 151.389 118.876 151.404 118.614 151.482C118.352 151.561 118.113 151.7 117.915 151.89C117.717 152.079 117.567 152.312 117.477 152.571C117.387 152.83 117.359 153.106 117.396 153.378C117.434 153.649 117.534 153.908 117.691 154.133C117.847 154.358 118.054 154.542 118.296 154.671C118.537 154.8 118.805 154.87 119.079 154.875C119.352 154.88 119.623 154.82 119.868 154.7L120.473 156.669C120.545 156.903 120.689 157.107 120.885 157.252C121.081 157.397 121.319 157.475 121.562 157.475H126.303C126.547 157.475 126.784 157.397 126.98 157.252C127.176 157.107 127.321 156.903 127.392 156.669L128.668 152.515C128.72 152.344 128.732 152.164 128.702 151.988C128.672 151.811 128.601 151.645 128.495 151.501C128.389 151.357 128.251 151.241 128.092 151.16C127.933 151.08 127.757 151.038 127.579 151.038V151.038ZM119.115 154.38C118.787 154.38 118.473 154.25 118.241 154.018C118.009 153.785 117.879 153.471 117.879 153.142C117.879 152.814 118.009 152.499 118.241 152.267C118.473 152.035 118.787 151.904 119.115 151.904C119.137 151.904 119.158 151.91 119.181 151.911C119.131 152.11 119.137 152.319 119.198 152.515L119.72 154.215C119.536 154.322 119.327 154.379 119.115 154.38V154.38Z" fill="#3F3D56"/>
<path d="M95.0165 145.663C94.5185 145.709 94.0165 145.645 93.5458 145.476C93.0751 145.307 92.6472 145.036 92.2922 144.683C91.9372 144.33 91.6637 143.903 91.491 143.433C91.3184 142.963 91.2507 142.46 91.2928 141.961L66.9702 128.899L72.2901 125.486L95.2375 138.821C96.0699 138.948 96.8271 139.376 97.3656 140.025C97.9042 140.673 98.1865 141.497 98.1593 142.341C98.1321 143.184 97.7971 143.988 97.2178 144.6C96.6386 145.212 95.8553 145.591 95.0165 145.663V145.663Z" fill="#FFB6B6"/>
<path d="M63.1749 104.896C63.1749 104.896 58.8345 104.351 57.7205 109.244C56.6065 114.137 64.2425 127.776 65.4076 130.012C66.5727 132.247 82.4522 137.136 82.4522 137.136L88.5667 133.935L74.8757 125.24L63.1749 104.896Z" fill="#1D3A70"/>
<path d="M93.7682 84.6801H95.2507C95.9715 84.6801 96.6629 84.9671 97.1726 85.4779C97.6823 85.9887 97.9686 86.6814 97.9686 87.4038H91.0503C91.0503 86.6814 91.3366 85.9887 91.8464 85.4779C92.3561 84.9671 93.0474 84.6801 93.7682 84.6801V84.6801Z" fill="#CCCCCC"/>
<path d="M46.7584 33.8636C54.8699 33.8636 61.4455 27.2741 61.4455 19.1456C61.4455 11.0171 54.8699 4.42761 46.7584 4.42761C38.6469 4.42761 32.0713 11.0171 32.0713 19.1456C32.0713 27.2741 38.6469 33.8636 46.7584 33.8636Z" fill="#FF6584"/>
<path d="M91.727 18.3785C87.8401 14.2925 83.3258 10.5649 77.9818 8.59512C76.4932 8.0441 74.9497 7.65541 73.378 7.43577C73.3654 7.43404 73.3534 7.4366 73.3408 7.43558C73.3153 7.42898 73.2893 7.42388 73.2632 7.4203C71.065 7.13968 68.8338 7.27467 66.6853 7.81826C65.6346 8.08247 64.6096 8.44029 63.6225 8.88745C62.632 9.37172 61.6722 9.9168 60.7486 10.5196C58.7938 11.6922 56.6415 12.4968 54.3979 12.8937C53.2718 13.0969 52.1311 13.2091 50.9871 13.2292C49.9943 13.2492 49.0582 13.2837 48.1176 13.6431C47.1129 14.0217 46.2104 14.6304 45.4822 15.4206C44.7539 16.2108 44.22 17.1606 43.9232 18.1943C43.9003 18.2864 43.9072 18.3833 43.9428 18.4712C43.9785 18.559 44.0411 18.6333 44.1217 18.6832C44.3761 18.8658 44.6241 19.0729 44.8914 19.2356C45.1292 19.3447 45.3832 19.4141 45.6433 19.4411C46.0683 19.531 46.4939 19.6182 46.92 19.7029C48.4896 20.0145 50.0658 20.2904 51.6485 20.5305C54.8511 21.0163 58.0709 21.3586 61.3081 21.5572C67.793 21.9508 74.3002 21.7548 80.7498 20.9716C84.3746 20.5317 87.9747 19.9077 91.5364 19.102C91.6085 19.0809 91.6739 19.0415 91.7263 18.9875C91.7788 18.9336 91.8164 18.867 91.8356 18.7942C91.8548 18.7214 91.8548 18.6449 91.8358 18.5721C91.8168 18.4992 91.7793 18.4326 91.727 18.3785V18.3785Z" fill="#E6E6E6"/>
<path d="M47.4554 28.2191C45.9668 27.6681 44.4233 27.2794 42.8516 27.0597C42.839 27.058 42.827 27.0606 42.8145 27.0595C42.7889 27.0529 42.763 27.0478 42.7368 27.0443C40.5386 26.7636 38.3074 26.8986 36.1589 27.4422C35.1082 27.7064 34.0832 28.0643 33.0962 28.5114C32.1056 28.9957 31.1458 29.5408 30.2223 30.1435C28.2674 31.3161 26.1152 32.1208 23.8716 32.5177C22.7454 32.7209 21.6048 32.8331 20.4607 32.8532C19.468 32.8731 18.5318 32.9077 17.5912 33.2671C16.5865 33.6457 15.6841 34.2544 14.9558 35.0446C14.2275 35.8347 13.6937 36.7846 13.3968 37.8182C13.3739 37.9103 13.3808 38.0073 13.4165 38.0951C13.4522 38.183 13.5148 38.2572 13.5953 38.3071C13.8497 38.4897 14.0978 38.6969 14.3651 38.8596C14.6029 38.9686 14.8569 39.0381 15.117 39.0651C15.542 39.1549 15.9675 39.2422 16.3936 39.3268C17.9633 39.6385 19.5394 39.9143 21.1222 40.1544C24.3247 40.6403 27.5446 40.9825 30.7817 41.1811C37.2666 41.5747 43.7738 41.3788 50.2235 40.5956C53.8482 40.1556 57.4484 39.5316 61.01 38.726C61.0821 38.7049 61.1475 38.6654 61.2 38.6115C61.2524 38.5575 61.29 38.491 61.3092 38.4182C61.3284 38.3454 61.3285 38.2688 61.3094 38.196C61.2904 38.1232 61.2529 38.0565 61.2006 38.0025C57.3137 33.9164 52.7995 30.1889 47.4554 28.2191Z" fill="#E6E6E6"/>
<path d="M153.37 137.939L142.076 123.07L133.164 128.12L152.049 150.593L153.37 137.939Z" fill="#3F3D56"/>
<path d="M179.388 113.768C179.639 120 180.602 126.181 182.259 132.193C181.903 133.032 181.536 133.866 181.157 134.693C179.723 137.829 178.118 140.882 176.349 143.84C171.386 152.146 165.192 159.648 157.978 166.087C157.197 166.783 156.406 167.467 155.603 168.14C151.03 161.821 148.562 154.848 147.586 147.673C147.462 146.762 147.361 145.84 147.284 144.924V144.919C147.097 142.693 147.037 140.458 147.104 138.224C147.106 138.046 147.111 137.865 147.119 137.684C147.205 135.298 147.42 132.906 147.744 130.536V130.534C147.781 130.261 147.818 129.989 147.86 129.717C147.978 128.899 148.112 128.082 148.258 127.27C149.106 122.586 150.29 117.97 151.801 113.457V113.454C151.843 113.323 151.885 113.194 151.932 113.065C152.095 112.575 152.26 112.09 152.431 111.604C152.441 111.566 152.455 111.529 152.47 111.493C152.69 110.859 152.915 110.23 153.145 109.606C153.207 109.433 153.271 109.26 153.338 109.086C153.597 108.391 153.862 107.7 154.131 107.019C154.215 106.801 154.301 106.583 154.388 106.368C154.455 106.202 154.519 106.036 154.588 105.872V105.87C154.981 104.897 155.379 103.943 155.781 103.008C156.911 100.378 158.072 97.9046 159.203 95.6242L159.206 95.6217C163.903 86.1806 168.173 80.05 168.173 80.05L184.206 85.2496C182.293 88.6492 180.813 93.6632 180.003 99.5784C179.379 104.28 179.173 109.028 179.388 113.766L179.388 113.768Z" fill="#3F3D56"/>
<path d="M152.74 112.256C152.646 112.035 152.539 111.82 152.431 111.604C151.867 110.511 151.142 109.509 150.279 108.633C150.15 108.502 150.017 108.371 149.878 108.247C148.39 106.873 146.58 105.898 144.616 105.41C142.652 104.923 140.597 104.94 138.641 105.459L138.631 105.464L138.557 105.484L138.574 105.568C138.648 105.96 138.756 106.345 138.896 106.719C138.933 106.821 138.975 106.917 139.017 107.014C139.034 107.058 139.056 107.098 139.076 107.143C139.076 107.143 139.073 107.145 139.078 107.145C139.078 107.148 139.081 107.15 139.081 107.153C139.128 107.244 139.172 107.338 139.222 107.427C139.12 107.331 139.024 107.232 138.93 107.13C138.839 107.036 138.755 106.937 138.671 106.838C138.383 106.502 138.122 106.142 137.892 105.763L137.853 105.697L137.784 105.724C136.851 106.048 135.962 106.484 135.135 107.024L135.046 107.083C134.415 107.499 133.703 107.776 132.958 107.898C132.213 108.02 131.45 107.984 130.72 107.791C129.568 107.494 128.367 107.439 127.194 107.632C126.02 107.824 124.899 108.259 123.902 108.908C123.242 109.34 122.645 109.861 122.128 110.458C122.084 110.51 122.039 110.565 121.995 110.617C121.901 110.73 121.812 110.847 121.726 110.966C120.797 112.21 120.227 113.685 120.078 115.232L120.073 115.289L120.12 115.321C120.956 115.895 121.901 116.29 122.897 116.48C122.271 116.567 121.638 116.583 121.009 116.527H121.007C120.721 116.503 120.438 116.463 120.157 116.408L120.105 116.398H120.102L120.038 116.386L120.048 116.505C120.122 118.017 120.597 119.483 121.424 120.751L121.449 120.786C121.458 120.798 121.466 120.811 121.474 120.825C121.824 121.362 122.116 121.936 122.343 122.536C122.921 124.027 123.048 125.655 122.709 127.218C122.325 128.89 122.453 130.639 123.075 132.236C123.697 133.834 124.786 135.207 126.198 136.177C127.438 137.032 128.884 137.54 130.386 137.65C130.591 137.667 130.799 137.677 131.006 137.677C132.194 137.681 133.37 137.435 134.458 136.956L134.497 136.942L134.507 136.897C134.716 136.22 135.01 135.573 135.382 134.971C135.26 135.446 135.199 135.934 135.199 136.424V136.588L135.34 136.506C135.461 136.434 135.585 136.357 135.696 136.285C136.363 135.849 136.968 135.322 137.492 134.721C137.697 134.483 137.905 134.253 138.122 134.022L138.125 134.02C138.547 133.569 138.994 133.129 139.459 132.708C140.447 131.818 141.505 131.009 142.622 130.289C143.738 129.57 144.904 128.935 146.113 128.387H146.115C146.251 128.323 146.39 128.261 146.525 128.201C147.127 127.939 147.706 127.627 148.257 127.27C148.277 127.258 148.295 127.248 148.312 127.236C150.7 125.668 152.456 123.303 153.267 120.559C154.078 117.816 153.891 114.874 152.74 112.256L152.74 112.256Z" fill="#1D3A70"/>
<path opacity="0.15" d="M123.116 130.734C123.049 131.035 122.998 131.339 122.963 131.646C122.503 130.189 122.436 128.636 122.77 127.145C122.821 126.917 122.86 126.686 122.89 126.454C123.347 127.835 123.425 129.313 123.116 130.734Z" fill="black"/>
<path opacity="0.15" d="M123.303 119.993C122.571 120.095 121.829 120.099 121.096 120.004C120.904 119.641 120.738 119.265 120.6 118.879C121.416 119.43 122.336 119.81 123.303 119.993V119.993Z" fill="black"/>
<path opacity="0.15" d="M121.038 116.447C120.767 117.14 120.588 117.864 120.503 118.603C120.278 117.899 120.145 117.169 120.108 116.432L120.102 116.313L120.218 116.335C120.489 116.386 120.763 116.424 121.038 116.447Z" fill="black"/>
<path opacity="0.15" d="M123.966 108.835C124.962 108.184 126.082 107.749 127.255 107.556C128.428 107.364 129.629 107.418 130.78 107.716C131.51 107.91 132.273 107.947 133.019 107.825C133.765 107.703 134.477 107.425 135.108 107.009L135.198 106.95C136.024 106.41 136.913 105.972 137.845 105.647L137.916 105.623L137.955 105.687C138.324 106.298 138.77 106.858 139.283 107.352C138.972 106.771 138.753 106.143 138.636 105.493L138.62 105.407L138.704 105.385C140.538 104.898 142.462 104.853 144.317 105.253C146.172 105.654 147.907 106.488 149.379 107.687C150.851 108.887 152.02 110.419 152.789 112.157C153.558 113.896 153.906 115.792 153.805 117.691C153.416 116.143 152.724 114.687 151.769 113.409C150.815 112.131 149.617 111.055 148.244 110.244C146.872 109.433 145.352 108.903 143.774 108.685C142.196 108.467 140.59 108.565 139.05 108.973L138.966 108.996L138.983 109.081C139.099 109.731 139.318 110.359 139.63 110.941C139.116 110.446 138.67 109.886 138.301 109.276L138.262 109.211L138.191 109.236C137.259 109.56 136.37 109.998 135.544 110.539L135.455 110.598C134.823 111.014 134.111 111.292 133.365 111.414C132.62 111.535 131.856 111.498 131.126 111.305C129.213 110.808 127.187 110.99 125.394 111.822C123.601 112.654 122.151 114.084 121.292 115.867C120.91 115.683 120.539 115.476 120.182 115.246L120.133 115.215L120.139 115.158C120.262 113.884 120.67 112.653 121.333 111.558C121.995 110.464 122.895 109.533 123.966 108.835V108.835Z" fill="black"/>
<path d="M215.822 45.5688L215.588 45.4128L215.417 45.6357C214.098 47.3004 213.048 49.1629 212.306 51.1547C212.409 48.8601 212.809 46.5886 213.497 44.3976L213.572 44.1674L213.359 44.046C210.594 42.4773 207.649 41.2533 204.588 40.4013L204.254 40.3122C201.908 39.6671 199.724 38.5337 197.844 36.9859C195.965 35.438 194.432 33.5106 193.345 31.3292C190.821 26.3228 186.833 22.2069 181.914 19.5309C176.994 16.8548 171.377 15.7457 165.813 16.3517H165.81C165.751 16.3566 165.689 16.3641 165.63 16.3715C165.529 16.3814 165.43 16.3938 165.331 16.4062C165.128 16.4334 164.931 16.4606 164.733 16.4903C164.565 16.5151 164.395 16.5423 164.227 16.5721C164.138 16.5844 164.051 16.5993 163.965 16.6166C163.878 16.6315 163.789 16.6463 163.703 16.6637H163.7C162.041 16.9781 160.415 17.4465 158.843 18.0626H158.84V18.0651L158.442 18.2211C158.032 18.3894 157.625 18.5677 157.222 18.7559C157.13 18.798 157.041 18.8426 156.95 18.8846C156.925 18.897 156.898 18.9094 156.873 18.9243C156.614 19.0481 156.357 19.1768 156.102 19.313C156.065 19.3303 156.028 19.3501 155.991 19.37L155.754 19.4962C155.233 19.7785 154.72 20.0781 154.217 20.395C154.175 20.4198 154.136 20.4445 154.094 20.4718C154.049 20.5015 154.002 20.5312 153.958 20.5609C153.931 20.5758 153.903 20.5956 153.876 20.6129C153.8 20.66 153.725 20.7095 153.651 20.7615C153.503 20.858 153.355 20.9571 153.209 21.0586C153.058 21.1601 152.91 21.2666 152.762 21.3731L152.614 21.4795L152.641 21.6628C152.665 21.8138 152.688 21.9648 152.715 22.1134C152.74 22.262 152.764 22.408 152.792 22.5541C152.834 22.7992 152.88 23.0419 152.927 23.2771C152.96 23.4331 152.989 23.5866 153.024 23.7377C153.056 23.8937 153.09 24.0496 153.128 24.2056C153.199 24.5275 153.276 24.8395 153.357 25.1465C153.397 25.3 153.439 25.4535 153.483 25.6046C153.508 25.6962 153.533 25.7878 153.56 25.8769C153.58 25.9389 153.599 26.0008 153.619 26.0627C153.624 26.0825 153.629 26.1047 153.637 26.127C153.642 26.148 153.649 26.1687 153.656 26.1889C153.683 26.2806 153.711 26.3697 153.738 26.4563C153.753 26.5034 153.767 26.5504 153.785 26.595C153.819 26.7015 153.856 26.8104 153.893 26.9144C153.933 27.0333 153.975 27.1521 154.017 27.2685C154.027 27.2982 154.037 27.3254 154.047 27.3551C154.054 27.3774 154.062 27.3997 154.071 27.422C154.081 27.4468 154.091 27.474 154.101 27.4987C154.143 27.6102 154.185 27.7241 154.23 27.8355C154.244 27.8751 154.259 27.9172 154.276 27.9568C154.677 28.9655 155.169 29.9352 155.747 30.8538C155.107 30.3041 154.491 29.7214 153.898 29.1057C152.984 28.1537 152.142 27.1349 151.378 26.0577C151.316 25.9735 151.255 25.8869 151.198 25.8002C151.082 25.6343 150.968 25.4684 150.857 25.3C150.738 25.1267 150.625 24.946 150.513 24.7677C150.439 24.6488 150.365 24.5275 150.294 24.4087C150.222 24.2948 150.155 24.1833 150.091 24.0694L149.898 23.7377H149.896V23.7401L149.624 24.0075C149.515 24.114 149.406 24.2205 149.3 24.3269C145.979 27.6753 143.574 31.8236 142.315 36.3728L142.278 36.509L142.241 36.6501C142.169 36.9027 142.098 37.1478 142.021 37.3979V37.4004C141.947 37.648 141.868 37.8956 141.784 38.1382C141.707 38.3685 141.628 38.5963 141.544 38.8241C141.517 38.9008 141.487 38.9776 141.455 39.0544C141.403 39.2029 141.347 39.349 141.29 39.4976C141.263 39.5644 141.235 39.6337 141.208 39.7006C141.142 39.864 141.075 40.0274 141.008 40.1884C140.998 40.2131 140.986 40.2404 140.974 40.2651C140.954 40.3147 140.932 40.3642 140.912 40.4112C140.86 40.5301 140.805 40.6514 140.754 40.7702C140.717 40.847 140.682 40.9262 140.647 41.003C140.633 41.0376 140.615 41.0723 140.6 41.107C140.509 41.3051 140.415 41.5007 140.316 41.6938C140.205 41.9216 140.091 42.1494 139.97 42.3722C139.864 42.5802 139.753 42.7833 139.637 42.9863C139.437 43.3453 139.227 43.7019 139.009 44.0485C138.925 44.1822 138.841 44.3159 138.755 44.4496C138.735 44.4818 138.715 44.514 138.695 44.5437C138.624 44.6601 138.55 44.7715 138.473 44.8854C138.421 44.9622 138.369 45.0389 138.317 45.1132C138.231 45.2469 138.139 45.3757 138.046 45.5019C138.021 45.5416 137.994 45.5787 137.967 45.6158C137.828 45.809 137.69 45.9971 137.549 46.1853C137.544 46.1878 137.544 46.1903 137.542 46.1928C137.537 46.1928 137.537 46.1952 137.534 46.1977C137.472 46.2794 137.411 46.3611 137.346 46.4404C137.262 46.5567 137.171 46.6706 137.079 46.782C136.931 46.9702 136.776 47.1609 136.617 47.3466C136.612 47.3515 136.61 47.3565 136.605 47.359C135.786 48.3229 134.9 49.2265 133.951 50.0628C133.934 50.0776 133.922 50.0925 133.904 50.1049C133.771 50.2212 133.638 50.3376 133.499 50.4515C133.442 50.4986 133.386 50.5456 133.329 50.5927C133.235 50.6719 133.138 50.7511 133.045 50.8229C133.033 50.8343 133.021 50.8443 133.008 50.8526C132.924 50.922 132.842 50.9863 132.758 51.0507C132.657 51.1324 132.555 51.2092 132.452 51.2859C131.962 51.6573 131.46 52.0081 130.944 52.3383C130.868 52.3902 130.786 52.4422 130.707 52.4918C130.66 52.5215 130.613 52.5512 130.569 52.576C130.381 52.6923 130.193 52.8062 130.005 52.9152C129.818 53.0266 129.625 53.1331 129.435 53.237C129.027 53.4599 128.624 53.6926 128.231 53.9353C128.034 54.0591 127.836 54.1829 127.641 54.3092C126.865 54.8143 126.118 55.3549 125.4 55.931C124.682 56.5074 123.993 57.1198 123.337 57.7657C123.255 57.8449 123.174 57.9266 123.092 58.0108C122.929 58.1718 122.771 58.3352 122.62 58.4986C122.378 58.7487 122.146 59.0062 121.916 59.2662C120.704 60.6439 119.632 62.1385 118.714 63.728C118.253 64.5217 117.834 65.339 117.459 66.1768C117.174 66.8032 116.915 67.4445 116.68 68.0932C116.525 68.5265 116.379 68.9639 116.243 69.4055C116.176 69.6259 116.112 69.8487 116.05 70.0715C115.84 70.8267 115.665 71.5894 115.521 72.3544C115.405 72.9685 115.311 73.5834 115.24 74.1991C115.203 74.5086 115.173 74.8181 115.146 75.1251C115.082 75.8797 115.05 76.6351 115.048 77.3912C115.044 79.6596 115.319 81.9197 115.867 84.1205C115.988 84.6058 116.123 85.0887 116.27 85.569C116.344 85.8092 116.423 86.0469 116.502 86.2846C116.702 86.8788 116.924 87.4673 117.167 88.05C117.313 88.3991 117.466 88.7457 117.627 89.0899C118.647 91.2779 119.95 93.3224 121.501 95.171C121.755 95.4756 122.018 95.7752 122.289 96.0698C122.292 96.0698 122.289 96.0723 122.289 96.0723C122.961 96.8072 123.673 97.5048 124.421 98.1621H124.424C124.723 98.427 125.027 98.6837 125.336 98.9321C125.338 98.9296 125.338 98.9321 125.338 98.9321C125.649 99.1847 125.963 99.4273 126.284 99.6625C126.445 99.7789 126.608 99.8953 126.774 100.012C127.097 100.242 127.428 100.464 127.764 100.678H127.767C128.103 100.896 128.444 101.104 128.79 101.302C129.484 101.7 130.196 102.074 130.927 102.413L131.051 102.47L131.177 102.413C132.349 101.885 133.558 101.44 134.794 101.084C135.066 101.005 135.34 100.933 135.612 100.863C136.299 100.693 136.991 100.549 137.687 100.433C137.008 100.774 136.353 101.16 135.725 101.589C135.239 101.918 134.759 102.277 134.278 102.673C134.117 102.805 133.956 102.941 133.796 103.079L133.395 103.426L133.897 103.592C134.08 103.651 134.263 103.711 134.446 103.765C134.695 103.845 134.942 103.916 135.184 103.983C135.713 104.132 136.245 104.263 136.781 104.377C136.911 104.404 137.04 104.431 137.171 104.459C137.425 104.508 137.682 104.558 137.939 104.602C137.95 104.605 137.961 104.607 137.971 104.607C138.238 104.652 138.508 104.694 138.774 104.731C139.271 104.803 139.768 104.86 140.264 104.902C140.319 104.909 140.373 104.912 140.43 104.914C140.551 104.924 140.67 104.934 140.791 104.941C141.058 104.959 141.327 104.971 141.596 104.981C141.616 104.981 141.633 104.984 141.653 104.984C141.789 104.988 141.925 104.993 142.061 104.996C142.061 104.996 142.061 104.998 142.063 104.996C142.199 104.998 142.335 105.001 142.471 105.001H143.222C143.363 105.001 143.504 105.003 143.647 105.003C143.845 105.003 144.045 105.006 144.242 105.008C144.294 105.008 144.349 105.011 144.403 105.011C144.719 105.016 145.036 105.023 145.352 105.031C145.372 105.031 145.391 105.033 145.411 105.033C145.727 105.043 146.044 105.053 146.36 105.068C146.429 105.07 146.498 105.073 146.57 105.078C146.874 105.09 147.178 105.105 147.482 105.122C147.568 105.127 147.657 105.135 147.746 105.14C147.976 105.152 148.208 105.167 148.438 105.184C148.574 105.192 148.707 105.201 148.843 105.214C149.392 105.256 149.938 105.303 150.486 105.357C150.669 105.372 150.852 105.392 151.035 105.412C151.524 105.464 152.015 105.521 152.507 105.583C152.727 105.607 152.947 105.637 153.167 105.667C153.192 105.669 153.217 105.672 153.241 105.677C153.513 105.714 153.782 105.751 154.054 105.791C154.232 105.815 154.41 105.843 154.588 105.87C154.771 105.897 154.954 105.924 155.136 105.957C155.235 105.971 155.334 105.989 155.435 106.006C155.673 106.043 155.912 106.083 156.152 106.127C156.173 106.13 156.195 106.133 156.216 106.137C156.725 106.226 157.237 106.321 157.746 106.422C158.045 106.479 158.341 106.538 158.638 106.6C158.87 106.647 159.102 106.697 159.334 106.746C159.374 106.754 159.413 106.764 159.453 106.774C159.462 106.776 159.471 106.778 159.48 106.779C159.831 106.855 160.184 106.935 160.535 107.019C161.753 107.301 162.97 107.615 164.185 107.96C164.464 108.036 164.743 108.118 165.022 108.2C165.141 108.235 165.257 108.269 165.373 108.304C165.615 108.376 165.855 108.447 166.097 108.524C166.309 108.589 166.524 108.655 166.737 108.725C166.87 108.767 167.004 108.809 167.137 108.854C167.345 108.918 167.552 108.985 167.757 109.057C167.933 109.111 168.106 109.168 168.279 109.23C168.526 109.312 168.775 109.396 169.022 109.485C169.094 109.51 169.168 109.534 169.24 109.562C169.541 109.666 169.843 109.772 170.144 109.884C170.438 109.99 170.732 110.099 171.024 110.208C171.226 110.285 171.429 110.359 171.629 110.438C171.854 110.525 172.079 110.612 172.301 110.701C172.622 110.827 172.946 110.956 173.267 111.087C173.564 111.206 173.858 111.327 174.154 111.453C174.209 111.476 174.266 111.498 174.32 111.523C174.577 111.629 174.834 111.741 175.088 111.852C175.254 111.921 175.417 111.993 175.58 112.065C176.292 112.377 177.002 112.7 177.712 113.033H177.715C178.16 113.244 178.612 113.444 179.066 113.635C179.173 113.679 179.279 113.724 179.388 113.766C179.568 113.843 179.751 113.915 179.934 113.989C180.052 114.036 180.171 114.083 180.292 114.128C180.467 114.197 180.645 114.264 180.823 114.328C181.011 114.397 181.196 114.467 181.387 114.531C181.453 114.556 181.52 114.578 181.589 114.603C181.809 114.677 182.029 114.751 182.251 114.823C182.274 114.831 182.296 114.838 182.32 114.846C182.553 114.92 182.785 114.994 183.02 115.063C183.038 115.07 183.057 115.076 183.077 115.081C183.329 115.158 183.586 115.232 183.84 115.304C184.216 115.408 184.594 115.507 184.972 115.598C185.041 115.616 185.11 115.633 185.179 115.648C185.382 115.697 185.582 115.744 185.785 115.789C186 115.838 186.217 115.883 186.432 115.928C186.649 115.972 186.867 116.017 187.082 116.056C187.198 116.079 187.314 116.101 187.428 116.121L187.732 116.173C187.942 116.21 188.152 116.242 188.364 116.277C188.37 116.276 188.376 116.277 188.381 116.279C188.621 116.316 188.858 116.351 189.098 116.381C189.328 116.413 189.558 116.44 189.787 116.467C189.834 116.472 189.884 116.477 189.933 116.482C190.123 116.505 190.314 116.527 190.504 116.544C190.558 116.549 190.613 116.554 190.667 116.559C190.855 116.576 191.043 116.594 191.23 116.606C191.268 116.611 191.306 116.613 191.344 116.613C191.512 116.628 191.68 116.641 191.848 116.648C191.967 116.658 192.083 116.663 192.201 116.67C192.263 116.673 192.322 116.675 192.384 116.678C192.547 116.688 192.71 116.693 192.876 116.698C193.076 116.705 193.276 116.71 193.474 116.715C193.714 116.72 193.956 116.722 194.195 116.722H194.2C194.435 116.722 194.672 116.72 194.907 116.715H194.996L195.255 116.708C195.389 116.705 195.522 116.7 195.653 116.695C195.905 116.685 196.155 116.673 196.404 116.658C196.503 116.653 196.604 116.646 196.703 116.641C196.748 116.638 196.795 116.633 196.839 116.631C196.995 116.621 197.148 116.611 197.304 116.599C197.464 116.586 197.627 116.571 197.788 116.554C197.996 116.534 198.203 116.512 198.411 116.49C198.574 116.472 198.737 116.453 198.897 116.433C198.919 116.431 198.94 116.427 198.962 116.423C199.117 116.405 199.273 116.386 199.426 116.363C199.609 116.339 199.789 116.311 199.97 116.284C199.989 116.282 200.007 116.279 200.027 116.277C200.338 116.227 200.652 116.178 200.965 116.121C201.294 116.061 201.623 115.997 201.949 115.93C202.07 115.905 202.189 115.878 202.31 115.853C202.376 115.838 202.445 115.826 202.51 115.811C202.611 115.789 202.71 115.767 202.809 115.742C202.826 115.739 202.846 115.734 202.863 115.732C203.001 115.702 203.137 115.668 203.276 115.633C203.552 115.566 203.824 115.497 204.096 115.422C204.217 115.393 204.338 115.361 204.454 115.328C204.489 115.318 204.523 115.309 204.556 115.299C205.057 115.158 205.555 115.008 206.048 114.851C206.265 114.781 206.48 114.709 206.695 114.633C207.157 114.474 207.615 114.307 208.069 114.132C208.19 114.088 208.311 114.038 208.432 113.991C208.61 113.92 208.788 113.848 208.964 113.776C209.122 113.709 209.28 113.642 209.44 113.573C209.519 113.541 209.599 113.506 209.678 113.471C209.915 113.367 210.152 113.261 210.387 113.154C210.545 113.08 210.701 113.008 210.856 112.934C211.103 112.815 211.348 112.694 211.593 112.573C211.654 112.54 211.714 112.508 211.773 112.478C211.929 112.399 212.084 112.318 212.242 112.238C212.492 112.105 212.741 111.971 212.989 111.832C213.073 111.788 213.154 111.741 213.238 111.694C213.51 111.54 213.779 111.384 214.046 111.226C214.637 110.872 215.219 110.502 215.793 110.116C215.936 110.022 216.08 109.923 216.22 109.827C216.487 109.643 216.749 109.455 217.011 109.267C217.038 109.247 217.063 109.227 217.09 109.21C217.221 109.114 217.352 109.017 217.483 108.918C217.755 108.712 218.024 108.504 218.293 108.292C218.298 108.289 218.306 108.282 218.313 108.277C218.434 108.18 218.555 108.084 218.674 107.987C219.042 107.687 219.405 107.383 219.761 107.068C219.937 106.917 220.11 106.761 220.28 106.605C220.408 106.489 220.537 106.373 220.663 106.254C220.917 106.014 221.167 105.776 221.414 105.533C221.538 105.414 221.659 105.291 221.782 105.167C221.903 105.043 222.027 104.919 222.148 104.793C222.19 104.751 222.232 104.706 222.274 104.662C222.397 104.53 222.521 104.397 222.645 104.266C222.751 104.152 222.855 104.033 222.961 103.914C223.139 103.716 223.319 103.518 223.495 103.317C223.504 103.306 223.514 103.295 223.524 103.285C223.534 103.273 223.544 103.263 223.551 103.253H223.549C227.14 99.091 229.809 94.2123 231.378 88.9396C232.947 83.6668 233.38 78.1203 232.65 72.6671C231.92 67.2138 230.042 61.9782 227.141 57.3067C224.24 52.6352 220.382 48.6343 215.823 45.5688L215.822 45.5688Z" fill="#1D3A70"/>
<g opacity="0.15">
<path opacity="0.15" d="M165.811 16.3497C166.303 18.1226 167.044 19.8166 168.012 21.381C166.392 19.9869 164.945 18.4034 163.702 16.6643C164.4 16.5319 165.103 16.4271 165.811 16.3497Z" fill="black"/>
<path opacity="0.15" d="M141.701 43.7685C139.872 44.7687 138.163 45.9731 136.604 47.3588C139.235 44.241 141.158 40.587 142.24 36.6502C142.253 36.6029 142.266 36.5552 142.279 36.5079L142.316 36.3739C143.615 31.6753 146.137 27.4069 149.623 24.0053L149.897 23.7377L150.09 24.0684C151.159 25.8892 152.438 27.5776 153.9 29.0988C151.659 35.4359 147.298 40.7102 141.701 43.7685Z" fill="black"/>
<path opacity="0.15" d="M154.581 26.903L154.545 27.037C154.532 27.0844 154.519 27.132 154.505 27.1793C154.433 27.4399 154.357 27.6984 154.277 27.9559C153.496 25.9271 152.947 23.8159 152.641 21.6628L152.613 21.4801L152.762 21.3728C154.643 20.0189 156.685 18.9064 158.841 18.0615C156.905 20.7297 155.462 23.7243 154.581 26.903Z" fill="black"/>
<path opacity="0.15" d="M129.436 53.2393C131.054 52.3516 132.569 51.2861 133.952 50.0624C131.189 53.2859 129.209 57.1067 128.166 61.2254C127.123 65.3441 127.046 69.6488 127.941 73.8023C128.836 77.9558 130.679 81.8452 133.324 85.1657C135.97 88.4863 139.348 91.1477 143.191 92.9415L143.316 92.9993L143.441 92.9429C145.517 92.0029 147.706 91.3368 149.954 90.9611C148.551 91.6771 147.244 92.5666 146.062 93.6088L145.662 93.9552L146.164 94.1211C146.596 94.2645 147.029 94.3965 147.45 94.5136C149.923 95.2038 152.48 95.5466 155.046 95.5321C166.709 95.4572 178.462 98.1592 189.98 103.563C191.955 104.488 194.003 105.247 196.104 105.831C205.26 108.386 215.034 107.467 223.556 103.25C218.751 108.819 212.469 112.907 205.439 115.04C198.409 117.173 190.919 117.264 183.839 115.302C181.738 114.718 179.689 113.959 177.714 113.034C166.197 107.63 154.444 104.928 142.781 105.003C140.214 105.017 137.658 104.675 135.185 103.984C134.764 103.867 134.331 103.735 133.898 103.592L133.397 103.426L133.796 103.08C134.978 102.037 136.285 101.148 137.688 100.432C135.441 100.808 133.252 101.474 131.176 102.414L131.051 102.47L130.926 102.412C126.31 100.259 122.382 96.8631 119.579 92.6029C116.777 88.3428 115.212 83.3861 115.057 78.2861C114.903 73.1862 116.165 68.1434 118.704 63.7207C121.243 59.298 124.958 55.6692 129.436 53.2393L129.436 53.2393Z" fill="black"/>
</g>
</g>
<defs>
<clipPath id="clip0_516_2289">
<rect width="233" height="197" fill="white"/>
</clipPath>
</defs>
</svg>
