<svg width="341" height="287" viewBox="0 0 341 287" fill="none" xmlns="http://www.w3.org/2000/svg">
<g clip-path="url(#clip0_16_767)">
<path d="M182.381 40.3118C193.694 31.9963 209.62 28.8085 222.082 35.2958C208.053 41.3571 196.631 52.1609 189.836 65.7957C187.235 71.0635 184.893 77.1921 179.525 79.6267C176.186 81.1417 172.244 80.8492 168.786 79.6259C165.328 78.4026 162.252 76.3245 159.219 74.2683L158.309 74.1593C163.707 61.2362 171.069 48.6273 182.381 40.3118Z" fill="#F0F0F0"/>
<path d="M221.982 35.5719C210.346 35.9346 199.121 39.9363 189.901 47.0086C187.889 48.496 186.126 50.2897 184.675 52.3237C183.326 54.3504 182.547 56.6996 182.42 59.1272C182.255 61.3883 182.349 63.7201 181.635 65.9019C181.253 67.0133 180.638 68.0318 179.833 68.8905C179.027 69.7492 178.048 70.4287 176.96 70.8845C174.279 72.0905 171.322 72.2658 168.424 72.3372C165.207 72.4165 161.864 72.4482 158.938 73.9556C158.583 74.1383 158.319 73.5802 158.673 73.3978C163.764 70.7752 169.713 72.4863 175.063 70.9254C177.56 70.197 179.851 68.7156 180.853 66.237C181.73 64.0696 181.635 61.6649 181.782 59.374C181.871 57.0041 182.543 54.692 183.738 52.6399C185.08 50.539 186.771 48.6807 188.74 47.1445C193.116 43.6156 198.022 40.7934 203.28 38.7812C209.267 36.4516 215.611 35.1583 222.036 34.9573C222.434 34.9451 222.377 35.5596 221.982 35.5719V35.5719Z" fill="white"/>
<path d="M192.736 44.5575C191.753 42.8571 191.41 40.8646 191.768 38.9358C192.125 37.007 193.16 35.2675 194.688 34.028C194.998 33.7782 195.402 34.2457 195.092 34.4958C193.667 35.6475 192.703 37.2679 192.374 39.0647C192.045 40.8615 192.372 42.7162 193.296 44.2941C193.497 44.6373 192.935 44.8986 192.736 44.5574V44.5575Z" fill="white"/>
<path d="M182.352 57.9697C186.232 59.049 190.379 58.6332 193.965 56.8053C194.32 56.6239 194.584 57.1819 194.23 57.3631C190.494 59.2584 186.178 59.6823 182.142 58.5503C181.758 58.4422 181.969 57.8621 182.352 57.9697Z" fill="white"/>
<path d="M209.238 37.2689C209.48 38.0056 209.903 38.6709 210.467 39.205C211.032 39.7391 211.721 40.1253 212.473 40.3289C212.858 40.4322 212.647 41.0121 212.263 40.9095C211.434 40.6807 210.673 40.2533 210.048 39.6646C209.423 39.0758 208.952 38.3437 208.677 37.5322C208.645 37.4579 208.642 37.3741 208.67 37.2978C208.697 37.2215 208.753 37.1586 208.825 37.1217C208.9 37.0872 208.985 37.0833 209.062 37.1108C209.139 37.1384 209.202 37.1952 209.238 37.2689H209.238Z" fill="white"/>
<path d="M231.963 81.6488C231.72 81.5912 231.477 81.5335 231.231 81.4793C227.963 80.7209 224.64 80.228 221.292 80.0053C221.034 79.984 220.771 79.9663 220.513 79.9524C212.442 79.5014 204.357 80.5454 196.669 83.0312C193.611 84.0231 190.633 85.2452 187.761 86.6867C183.795 88.6777 179.654 91.1506 175.385 91.7053C174.94 91.7681 174.491 91.8035 174.042 91.8112L158.246 75.2721C158.229 75.2165 158.208 75.1644 158.191 75.1087L157.53 74.477C157.673 74.3924 157.823 74.3077 157.966 74.223C158.048 74.1736 158.135 74.1278 158.217 74.0784C158.274 74.0466 158.33 74.015 158.379 73.9831C158.398 73.9724 158.416 73.962 158.431 73.9549C158.48 73.923 158.529 73.8985 158.574 73.8702C159.412 73.3943 160.254 72.9234 161.101 72.4576C161.105 72.454 161.105 72.454 161.112 72.4541C167.575 68.9208 174.39 65.8934 181.451 63.9916C181.664 63.9345 181.88 63.8736 182.1 63.824C185.287 62.9843 188.538 62.4053 191.821 62.0927C193.618 61.9273 195.424 61.8526 197.229 61.8688C201.894 61.9196 206.522 62.7003 210.943 64.1822C219.756 67.1376 227.521 72.8647 231.653 81.0225C231.759 81.2312 231.861 81.4365 231.963 81.6488Z" fill="#F0F0F0"/>
<path d="M231.716 81.8111C222.207 75.1298 210.823 71.6001 199.182 71.7232C196.676 71.7055 194.182 72.081 191.793 72.8359C189.49 73.6461 187.447 75.0552 185.876 76.9169C184.376 78.6235 183.041 80.542 181.15 81.8561C180.173 82.5144 179.066 82.9597 177.903 83.1626C176.741 83.3656 175.548 83.3217 174.403 83.0338C171.533 82.3902 169.066 80.7587 166.709 79.0797C164.092 77.2156 161.404 75.238 158.155 74.6887C157.762 74.6221 157.889 74.0183 158.282 74.0848C163.933 75.0406 167.647 79.9707 172.864 81.9299C175.298 82.844 178.024 83.0338 180.324 81.6553C182.335 80.4499 183.714 78.4728 185.217 76.7318C186.723 74.8933 188.658 73.4496 190.854 72.5269C193.196 71.6534 195.671 71.1829 198.172 71.1357C203.802 70.9399 209.427 71.6261 214.842 73.1691C221.032 74.8961 226.88 77.6639 232.132 81.353C232.457 81.5815 232.039 82.0381 231.716 81.8111L231.716 81.8111Z" fill="white"/>
<path d="M202.928 71.4642C203.173 69.518 204.104 67.7216 205.557 66.3958C207.009 65.07 208.888 64.3011 210.858 64.2265C211.256 64.2128 211.297 64.8285 210.897 64.8422C209.063 64.9083 207.313 65.6247 205.963 66.862C204.613 68.0993 203.752 69.7761 203.535 71.5898C203.487 71.9838 202.881 71.856 202.928 71.4642H202.928Z" fill="white"/>
<path d="M186.522 75.952C188.967 79.1386 192.53 81.291 196.499 81.98C196.892 82.0479 196.766 82.6517 196.373 82.5838C192.244 81.8592 188.541 79.6118 186.003 76.2902C185.762 75.9735 186.282 75.637 186.522 75.952V75.952Z" fill="white"/>
<path d="M220.514 75.531C220.262 76.2644 220.196 77.0487 220.324 77.8134C220.452 78.5781 220.768 79.2993 221.245 79.9122C221.491 80.2258 220.971 80.562 220.727 80.2504C220.203 79.5708 219.855 78.7739 219.712 77.9294C219.569 77.0848 219.636 76.2182 219.907 75.4054C219.926 75.3267 219.975 75.2581 220.043 75.2137C220.111 75.1693 220.193 75.1523 220.274 75.1663C220.354 75.1833 220.424 75.2312 220.469 75.2995C220.514 75.3678 220.53 75.451 220.514 75.531V75.531Z" fill="white"/>
<path d="M179.396 52.6827H178.172V19.3133C178.172 16.777 177.67 14.2656 176.695 11.9224C175.719 9.57921 174.29 7.45013 172.487 5.65672C170.685 3.86331 168.546 2.4407 166.191 1.47012C163.836 0.499529 161.312 -2.91503e-05 158.763 -3.05175e-05H87.7153C85.1665 -3.59866e-05 82.6426 0.499512 80.2878 1.47009C77.933 2.44067 75.7934 3.86327 73.9911 5.65668C72.1888 7.45008 70.7591 9.57917 69.7837 11.9224C68.8083 14.2656 68.3063 16.777 68.3063 19.3133V202.381C68.3063 207.503 70.3511 212.415 73.991 216.037C77.6309 219.659 82.5677 221.694 87.7153 221.694H158.763C163.911 221.694 168.847 219.659 172.487 216.037C176.127 212.415 178.172 207.503 178.172 202.381V76.4357H179.396V52.6827Z" fill="#3F3D56"/>
<path d="M159.546 5.02469H150.272C150.699 6.06516 150.862 7.19402 150.746 8.31184C150.631 9.42966 150.241 10.5021 149.612 11.4348C148.982 12.3674 148.131 13.1316 147.134 13.66C146.138 14.1884 145.026 14.4649 143.897 14.4649H103.194C102.065 14.4649 100.953 14.1884 99.9564 13.66C98.9598 13.1316 98.1091 12.3674 97.4792 11.4348C96.8493 10.5021 96.4596 9.42966 96.3444 8.31184C96.2292 7.19401 96.392 6.06514 96.8185 5.02467H88.1564C84.3123 5.02467 80.6255 6.54423 77.9073 9.24906C75.1891 11.9539 73.662 15.6224 73.662 19.4476V202.246C73.662 204.141 74.0369 206.016 74.7653 207.766C75.4937 209.516 76.5614 211.106 77.9073 212.445C79.2532 213.784 80.8511 214.847 82.6096 215.572C84.3682 216.296 86.253 216.669 88.1564 216.669H159.546C161.45 216.669 163.335 216.296 165.093 215.572C166.852 214.847 168.45 213.784 169.796 212.445C171.142 211.106 172.209 209.516 172.938 207.766C173.666 206.016 174.041 204.141 174.041 202.246V19.4476C174.041 15.6224 172.514 11.9539 169.796 9.24906C167.077 6.54424 163.391 5.02469 159.546 5.02469Z" fill="white"/>
<path d="M125.223 157.947C119.966 157.952 114.76 156.926 109.902 154.926C105.044 152.926 100.63 149.993 96.9128 146.294C93.1955 142.595 90.2477 138.203 88.2382 133.369C86.2286 128.535 85.1968 123.354 85.2017 118.123C85.1942 110.778 87.2315 103.574 91.0876 97.3099C94.9438 91.0462 100.468 85.9676 107.048 82.6375C111.817 80.2229 117.024 78.7826 122.362 78.4014C127.699 78.0202 133.06 78.7059 138.127 80.4179C147.101 83.461 154.698 89.5749 159.565 97.6707C164.432 105.767 166.253 115.319 164.704 124.626C163.155 133.933 158.337 142.391 151.106 148.493C143.876 154.595 134.704 157.946 125.223 157.947L125.223 157.947ZM125.223 79.8607C119.152 79.843 113.164 81.272 107.761 84.0284C103.039 86.4226 98.8646 89.7624 95.5009 93.8382C92.1371 97.9139 89.6565 102.638 88.2146 107.713C86.7727 112.788 86.4008 118.105 87.1222 123.33C87.8435 128.555 89.6426 133.575 92.4064 138.075C95.1702 142.575 98.8391 146.458 103.183 149.481C107.526 152.503 112.451 154.599 117.648 155.637C122.844 156.675 128.2 156.633 133.379 155.514C138.559 154.394 143.45 152.221 147.745 149.132C149.822 147.641 151.742 145.945 153.477 144.071C158.551 138.608 161.914 131.791 163.154 124.455C164.395 117.119 163.458 109.583 160.46 102.768C157.461 95.954 152.531 90.1576 146.272 86.0889C140.014 82.0202 132.699 79.8558 125.223 79.8607Z" fill="#F0F0F0"/>
<path d="M38.5025 82.7805C39.6011 82.9176 40.6561 83.2926 41.5932 83.8793C42.5303 84.4659 43.3267 85.2499 43.9264 86.176C44.5261 87.1021 44.9144 88.1478 45.064 89.2393C45.2136 90.3309 45.1209 91.4419 44.7924 92.4939L58.0895 103.515L53.3295 113.19L34.771 97.3628C33.0314 96.6965 31.5979 95.4183 30.7422 93.7706C29.8864 92.1228 29.6677 90.2199 30.1277 88.4224C30.5876 86.6249 31.6942 85.0578 33.2378 84.018C34.7813 82.9781 36.6546 82.5378 38.5026 82.7805L38.5025 82.7805Z" fill="#FFB6B6"/>
<path d="M162.692 128.743C162.425 125.89 161.322 120.762 160.387 118.866C157.511 111.376 138.93 105.22 136.435 104.427L135.802 97.4251L109.984 94.6608L106.709 103.615L97.4489 107.071C96.8202 107.305 96.2512 107.674 95.7826 108.151C95.3141 108.629 94.9576 109.205 94.7388 109.836L86.4312 112.225L78.2333 114.583L49.7527 94.614L48.408 95.4886L39.4204 101.324L38.0338 102.225L74.8903 135.313L88.5813 132.116L98.8771 129.706L99.7558 133.256L97.4803 145.73C104.073 152.292 112.8 156.303 122.096 157.043C131.392 157.782 140.649 155.201 148.206 149.764L154.054 144.6C158.131 140.214 161.14 134.954 162.849 129.227L162.692 128.743Z" fill="#E4E4E4"/>
<path d="M131.004 88.9343C140.751 85.7234 146.036 75.2586 142.809 65.5605C139.582 55.8624 129.065 50.6035 119.319 53.8144C109.573 57.0254 104.288 67.4902 107.515 77.1883C110.742 86.8864 121.258 92.1453 131.004 88.9343Z" fill="#FFB6B6"/>
<path d="M110.479 50.2871C112.286 47.7191 114.998 45.9215 118.076 45.2517C121.119 44.6289 124.286 45.207 126.909 46.864C129.762 45.7207 132.837 44.9622 135.858 45.3478C138.88 45.7334 141.841 47.4127 143.239 50.1794C143.533 50.8961 143.89 51.5857 144.305 52.2402C145.537 53.8754 147.826 54.0875 149.847 54.1661C148.826 54.7592 147.803 55.3524 146.781 55.9455C147.8 56.4178 148.818 56.8902 149.837 57.3626C148.451 57.8893 147.064 58.416 145.678 58.9427C148.905 61.7655 149.685 66.789 148.463 71.0007C147.307 74.9883 144.654 78.3451 141.692 81.2189C141.115 79.0745 141.75 76.7497 142.174 74.5296C142.621 72.1839 142.692 69.441 141.042 67.7849C139.928 66.6677 138.295 66.3302 136.755 66.0591C128.986 64.692 121.146 63.7657 113.272 63.2846C112.218 63.1397 111.145 63.2488 110.142 63.6026C108.226 64.4499 107.456 66.7769 106.901 68.8401C106.635 65.2185 106.847 61.5779 107.533 58.0113C108.058 55.2815 108.886 52.5494 110.479 50.2871Z" fill="#2F2E41"/>
<path d="M134.64 176.71H112.667C111.904 176.71 111.172 176.409 110.633 175.872C110.093 175.335 109.79 174.607 109.79 173.847C109.79 173.088 110.093 172.36 110.633 171.823C111.172 171.286 111.904 170.984 112.667 170.984H134.64C135.403 170.984 136.135 171.286 136.675 171.823C137.214 172.36 137.517 173.088 137.517 173.847C137.517 174.607 137.214 175.335 136.675 175.872C136.135 176.409 135.403 176.71 134.64 176.71Z" fill="#1D3A70"/>
<path d="M62.5394 23.4912H2.10195C1.54502 23.4903 1.01118 23.2695 0.617685 22.8774C0.224185 22.4852 0.00317383 21.9537 0.00317383 21.3995C0.00317383 20.8453 0.224185 20.3137 0.617685 19.9216C1.01118 19.5294 1.54502 19.3086 2.10195 19.3078H62.5394C63.0969 19.3078 63.6316 19.5281 64.0258 19.9204C64.42 20.3127 64.6415 20.8447 64.6415 21.3995C64.6415 21.9542 64.42 22.4863 64.0258 22.8785C63.6316 23.2708 63.0969 23.4912 62.5394 23.4912Z" fill="#1D3A70"/>
<path d="M97.4341 36.8508H2.10195C1.54448 36.8508 1.00984 36.6304 0.615644 36.2382C0.221452 35.8459 0 35.3139 0 34.7592C0 34.2045 0.221452 33.6725 0.615644 33.2802C1.00984 32.888 1.54448 32.6676 2.10195 32.6676H97.4341C97.9915 32.6676 98.5262 32.888 98.9203 33.2802C99.3145 33.6725 99.536 34.2045 99.536 34.7592C99.536 35.3139 99.3145 35.8459 98.9203 36.2382C98.5262 36.6304 97.9915 36.8508 97.4341 36.8508Z" fill="#1D3A70"/>
<path d="M79.1142 49.4371H2.10195C1.54448 49.4371 1.00984 49.2167 0.615644 48.8245C0.221453 48.4322 0 47.9002 0 47.3455C0 46.7908 0.221453 46.2588 0.615644 45.8665C1.00984 45.4743 1.54448 45.2539 2.10195 45.2539H79.1142C79.6717 45.2539 80.2063 45.4743 80.6005 45.8665C80.9947 46.2588 81.2162 46.7908 81.2162 47.3455C81.2162 47.9002 80.9947 48.4322 80.6005 48.8245C80.2063 49.2167 79.6717 49.4371 79.1142 49.4371Z" fill="#CACACA"/>
<path d="M45.5286 61.9768H2.10195C1.54448 61.9768 1.00984 61.7565 0.615644 61.3642C0.221453 60.972 0 60.44 0 59.8852C0 59.3305 0.221453 58.7985 0.615644 58.4063C1.00984 58.014 1.54448 57.7936 2.10195 57.7936H45.5286C46.0861 57.7936 46.6207 58.014 47.0149 58.4063C47.4091 58.7985 47.6306 59.3305 47.6306 59.8852C47.6306 60.44 47.4091 60.972 47.0149 61.3642C46.6207 61.7565 46.0861 61.9768 45.5286 61.9768Z" fill="#CACACA"/>
<path d="M69.5185 74.5157H2.10192C1.54503 74.5148 1.01125 74.2941 0.617775 73.9019C0.224299 73.5098 0.0032959 72.9783 0.0032959 72.4241C0.0032959 71.87 0.224299 71.3384 0.617775 70.9463C1.01125 70.5541 1.54503 70.3334 2.10192 70.3325H69.5185C70.0754 70.3334 70.6092 70.5541 71.0026 70.9463C71.3961 71.3384 71.6171 71.87 71.6171 72.4241C71.6171 72.9783 71.3961 73.5098 71.0026 73.9019C70.6092 74.2941 70.0754 74.5148 69.5185 74.5157Z" fill="#CACACA"/>
<path d="M259.517 279.148L254.1 279.147L251.523 258.356L259.518 258.357L259.517 279.148Z" fill="#9F616A"/>
<path d="M261.648 286.607L240.967 286.607V286.346C240.968 284.222 241.816 282.185 243.325 280.683C244.835 279.181 246.882 278.337 249.017 278.337H249.017L252.795 275.485L259.843 278.337L261.649 278.337L261.648 286.607Z" fill="#2F2E41"/>
<path d="M256.361 181.435L253.972 152.45L252.095 141.57L262.603 139.261L266.09 154.156L263.052 182.239C263.665 182.987 264.039 183.899 264.127 184.86C264.214 185.82 264.011 186.785 263.544 187.63C263.076 188.475 262.366 189.161 261.503 189.601C260.641 190.041 259.666 190.214 258.703 190.098C257.741 189.983 256.836 189.583 256.103 188.952C255.371 188.32 254.845 187.485 254.593 186.554C254.341 185.622 254.375 184.637 254.69 183.725C255.005 182.813 255.587 182.016 256.361 181.435H256.361Z" fill="#9F616A"/>
<path d="M230.743 279.148L225.327 279.147L222.75 258.356L230.745 258.357L230.743 279.148Z" fill="#9F616A"/>
<path d="M222.075 188.006L219.673 192.14C219.673 192.14 217.035 192.857 217.897 201.416C218.759 209.974 218.796 260.683 222.971 266.923L223.726 272.281L231.608 273.031L231.807 268.276L241.206 202.223C241.206 202.223 246.741 267.066 251.32 268.653L252.974 274.055L260.198 274.058L259.771 267.692L260.237 187.336L222.075 188.006Z" fill="#2F2E41"/>
<path d="M219.434 191.824L219.268 191.782C224.225 173.335 222.795 149.447 219.295 123.796L219.295 123.69L231.947 112.159H242.933L253.824 119.153C260.865 122.656 262.466 130.074 262.481 130.149L262.492 130.201L258.178 145.186L261.428 188.52L261.431 188.571L261.413 188.617C260.361 191.271 257.542 190.893 254.279 190.455C251.021 190.018 239.015 194.015 235.334 194.015C228.14 194.015 219.948 191.956 219.434 191.824Z" fill="#E4E4E4"/>
<path d="M251.544 124.993L256.263 122.95L262.482 130.536L267.522 154.846L250.258 152.243L251.544 124.993Z" fill="#E4E4E4"/>
<path d="M178.951 169.821L200.526 150.202L208.025 142.067L216.291 148.924L206.587 160.783L182.406 175.578C182.187 176.518 181.691 177.371 180.981 178.028C180.272 178.685 179.381 179.115 178.423 179.264C177.466 179.413 176.485 179.274 175.608 178.865C174.73 178.455 173.996 177.794 173.499 176.966C173.002 176.138 172.765 175.181 172.819 174.218C172.873 173.255 173.215 172.33 173.801 171.562C174.387 170.794 175.19 170.217 176.108 169.907C177.026 169.597 178.016 169.567 178.951 169.82L178.951 169.821Z" fill="#9F616A"/>
<path d="M200.057 150.416L206.032 142.694C206.082 142.583 211.04 131.559 215.337 126.769C219.745 121.855 223.216 124.368 223.25 124.395L223.337 124.46L223.577 142.605L207.03 162.279L200.057 150.416Z" fill="#E4E4E4"/>
<path d="M246.292 101.297C247.183 95.834 243.454 90.6865 237.964 89.7999C232.473 88.9133 227.3 92.6235 226.409 98.0867C225.518 103.55 229.247 108.698 234.737 109.584C240.228 110.471 245.401 106.761 246.292 101.297Z" fill="#9F616A"/>
<path d="M227.143 98.2043C227.143 98.2043 227.063 94.6812 226.615 93.1223C226.167 91.5634 225.272 90.2272 225.72 90.2272C226.167 90.2272 226.391 89.1137 226.391 89.1137C226.391 89.1137 226.839 88.891 227.063 89.1137C227.286 89.3364 227.51 87.5548 227.51 87.5548C227.51 87.5548 227.734 86.8867 227.958 87.3321C228.182 87.7775 228.182 87.5548 228.405 86.8867C228.629 86.2186 229.748 85.7732 229.748 85.7732C229.748 85.7732 234.001 85.9959 234.672 85.1051C235.343 84.2143 242.953 84.8824 244.519 85.9959C246.086 87.1094 253.024 91.118 251.905 94.4585C250.786 97.799 247.565 105.49 246.757 106.262C245.481 107.481 244.597 107.921 238.557 109.117C237.375 109.351 231.342 105.511 231.342 104.843C231.342 104.175 232.069 102.056 230.9 101.765C229.133 101.326 228.934 103.549 228.486 102.881C228.038 102.213 227.143 98.2043 227.143 98.2043Z" fill="#2F2E41"/>
<path d="M232.874 286.607L212.194 286.607V286.346C212.194 284.222 213.042 282.185 214.552 280.683C216.061 279.181 218.108 278.337 220.243 278.337H220.244L224.021 275.485L231.07 278.337L232.875 278.337L232.874 286.607Z" fill="#2F2E41"/>
<path d="M340.377 287H1.74119C1.57599 287 1.41756 286.935 1.30074 286.819C1.18392 286.702 1.11829 286.545 1.11829 286.38C1.11829 286.216 1.18392 286.058 1.30074 285.942C1.41756 285.826 1.57599 285.76 1.74119 285.76H340.377C340.542 285.76 340.701 285.826 340.818 285.942C340.935 286.058 341 286.216 341 286.38C341 286.545 340.935 286.702 340.818 286.819C340.701 286.935 340.542 287 340.377 287Z" fill="#CACACA"/>
</g>
<defs>
<clipPath id="clip0_16_767">
<rect width="341" height="287" fill="white"/>
</clipPath>
</defs>
</svg>
