<svg width="342" height="249" viewBox="0 0 342 249" fill="none" xmlns="http://www.w3.org/2000/svg">
<g clip-path="url(#clip0_15_608)">
<path d="M146.571 232.533C210.678 232.533 262.646 180.565 262.646 116.459C262.646 52.3525 210.678 0.384155 146.571 0.384155C82.4652 0.384155 30.4968 52.3525 30.4968 116.459C30.4968 180.565 82.4652 232.533 146.571 232.533Z" fill="#F2F2F2"/>
<path d="M46.0564 248.616C71.4927 248.616 92.1128 245.317 92.1128 241.247C92.1128 237.177 71.4927 233.878 46.0564 233.878C20.6202 233.878 0 237.177 0 241.247C0 245.317 20.6202 248.616 46.0564 248.616Z" fill="#F2F2F2"/>
<path d="M270.737 241.125C310.095 241.125 342 236.02 342 229.723C342 223.426 310.095 218.321 270.737 218.321C231.38 218.321 199.474 223.426 199.474 229.723C199.474 236.02 231.38 241.125 270.737 241.125Z" fill="#F2F2F2"/>
<path d="M254.904 120.126C254.904 120.126 255.51 122.148 252.072 123.969C248.634 125.789 247.623 132.665 251.668 134.687C255.713 136.709 256.926 139.339 254.904 141.159C252.881 142.979 249.241 147.832 254.095 149.046C258.948 150.259 259.555 152.686 258.139 153.697C256.724 154.708 261.375 151.877 261.375 151.877C261.375 151.877 262.184 156.731 266.431 155.517C270.678 154.304 282.61 131.249 276.543 128.013C270.476 124.777 254.904 120.126 254.904 120.126Z" fill="#2F2E41"/>
<path d="M262.234 139.654C262.234 139.654 264.332 146.996 260.66 147.521C258.382 147.876 256.223 148.776 254.367 150.143L261.185 159.059H273.772L281.638 151.192C281.638 151.192 271.149 143.325 273.247 138.605C275.345 133.885 262.234 139.654 262.234 139.654Z" fill="#FFB9B9"/>
<path opacity="0.1" d="M262.234 139.654C262.234 139.654 264.332 146.996 260.66 147.521C258.382 147.876 256.223 148.776 254.367 150.143L261.185 159.059H273.772L281.638 151.192C281.638 151.192 271.149 143.325 273.247 138.605C275.345 133.885 262.234 139.654 262.234 139.654Z" fill="black"/>
<path d="M265.38 230.908L277.443 235.104L285.834 235.628L285.309 228.286L268.002 223.168L265.38 230.908Z" fill="#FFB9B9"/>
<path d="M280.852 229.335C280.852 229.335 280.852 236.677 281.9 236.677C282.949 236.677 297.11 235.104 301.305 236.677C305.501 238.251 311.794 232.482 308.647 229.335C305.501 226.188 300.368 221.468 297.165 222.517C293.963 223.566 280.852 226.188 280.852 226.188V229.335Z" fill="#575A89"/>
<path d="M242.305 222.517C242.305 222.517 236.011 235.104 240.207 236.153C244.402 237.202 249.123 235.629 249.647 235.104C250.171 234.58 257.514 232.482 258.563 233.531C259.612 234.58 259.612 229.335 259.612 229.335L242.305 222.517Z" fill="#575A89"/>
<path d="M247.549 205.211C247.549 205.211 237.585 218.846 244.927 222.517C252.269 226.189 287.407 226.189 290.03 222.517C292.652 218.846 293.701 207.308 290.03 206.259C286.358 205.211 247.549 205.211 247.549 205.211Z" fill="#2F2E41"/>
<path opacity="0.2" d="M247.549 205.211C247.549 205.211 237.585 218.846 244.927 222.517C252.269 226.189 287.407 226.189 290.03 222.517C292.652 218.846 293.701 207.308 290.03 206.259C286.358 205.211 247.549 205.211 247.549 205.211Z" fill="black"/>
<path d="M266.429 143.325C273.091 143.325 278.492 137.925 278.492 131.263C278.492 124.601 273.091 119.2 266.429 119.2C259.767 119.2 254.367 124.601 254.367 131.263C254.367 137.925 259.767 143.325 266.429 143.325Z" fill="#FFB9B9"/>
<path d="M247.549 150.143L258.038 148.045C258.038 148.045 260.66 156.436 269.052 154.863C277.443 153.29 279.541 148.045 279.541 148.045C279.541 148.045 285.834 150.668 286.358 150.668C286.883 150.668 293.701 153.29 293.701 154.863C293.701 156.436 285.834 172.17 285.834 172.17L286.883 200.49L248.074 199.441L250.696 171.646L247.549 150.143Z" fill="#1D3A70"/>
<path d="M241.78 163.779C241.78 163.779 238.634 191.575 240.731 193.673C242.829 195.77 251.22 201.539 251.22 201.539V195.246L247.025 187.379L251.22 169.023L241.78 163.779Z" fill="#FFB9B9"/>
<path d="M296.061 162.992C296.061 162.992 294.225 191.575 294.225 192.624C294.225 193.672 289.505 197.344 287.932 197.344C286.358 197.344 285.31 194.721 285.31 194.721L288.981 190.526L286.358 169.023L296.061 162.992Z" fill="#FFB9B9"/>
<path d="M291.079 203.113C291.079 203.113 314.679 190.001 315.203 203.113C315.728 216.224 303.141 221.468 303.141 221.468C303.141 221.468 270.625 231.219 269.314 227.655C268.003 224.091 265.381 218.322 267.478 217.797C269.576 217.273 272.198 216.224 273.247 217.273C274.296 218.322 287.407 209.406 287.407 209.406L291.079 203.113Z" fill="#2F2E41"/>
<path opacity="0.2" d="M302.092 201.539C302.092 201.539 297.372 203.637 295.799 205.21C294.225 206.784 287.407 209.406 287.407 209.406" stroke="black" stroke-width="0.622384" stroke-miterlimit="10"/>
<path d="M250.696 151.192L247.549 150.143C247.549 150.143 236.011 162.205 239.682 165.352C243.354 168.499 245.451 169.548 246.5 170.597C247.549 171.646 252.794 172.17 252.794 172.17L250.696 151.192Z" fill="#1D3A70"/>
<path d="M288.981 153.814L293.701 154.863C293.701 154.863 297.372 162.73 298.421 163.779C299.47 164.828 296.847 164.303 295.274 166.401C293.701 168.499 292.127 172.17 288.981 172.17C285.834 172.17 281.638 166.925 281.638 166.925L288.981 153.814Z" fill="#1D3A70"/>
<path d="M248.598 207.833C248.598 207.833 228.669 193.672 221.851 204.161C215.033 214.65 251.22 228.811 256.465 230.908C261.709 233.006 266.429 235.104 266.429 235.104C266.429 235.104 271.15 223.566 271.15 221.468C271.15 219.371 267.478 219.371 266.429 219.371C265.381 219.371 260.661 218.322 259.612 216.748C258.563 215.175 248.598 207.833 248.598 207.833Z" fill="#2F2E41"/>
<path opacity="0.2" d="M237.584 204.162C237.584 204.162 242.829 208.357 247.549 209.406C252.269 210.455 253.842 213.077 253.842 213.077" stroke="black" stroke-width="0.622384" stroke-miterlimit="10"/>
<path d="M244.98 184.442L245.399 206.648C245.413 207.381 245.716 208.079 246.243 208.59C246.769 209.101 247.476 209.383 248.21 209.375L289.533 208.911C290.237 208.903 290.912 208.628 291.421 208.142C291.93 207.656 292.236 206.994 292.277 206.291L293.531 184.55C293.553 184.172 293.497 183.794 293.368 183.438C293.238 183.082 293.037 182.757 292.777 182.482C292.518 182.206 292.204 181.987 291.857 181.837C291.509 181.687 291.134 181.61 290.756 181.61H247.76C247.39 181.61 247.024 181.684 246.684 181.827C246.343 181.97 246.034 182.179 245.775 182.443C245.517 182.707 245.313 183.019 245.177 183.363C245.04 183.706 244.973 184.073 244.98 184.442Z" fill="#575A89"/>
<path d="M267.074 116.11C267.074 116.11 267.746 118.35 263.937 120.367C260.129 122.383 259.008 130 263.489 132.241C267.97 134.481 269.314 137.394 267.074 139.41C264.833 141.426 260.801 146.803 266.178 148.147C271.555 149.492 272.227 152.18 270.658 153.3C269.09 154.421 274.243 151.284 274.243 151.284C274.243 151.284 275.139 156.661 279.844 155.317C284.549 153.972 289.243 129.538 283.998 123.244C279.122 117.392 267.074 116.11 267.074 116.11Z" fill="#2F2E41"/>
<path d="M265.643 113.804C265.644 110.522 275.463 112.88 279.674 117.463C282.589 120.636 287.017 125.411 283.307 128.776C279.596 132.142 289.667 136.554 292.368 137.891C295.069 139.229 300.402 143.32 295.587 146.064C290.772 148.808 290.849 151.578 292.661 152.234C294.474 152.89 288.666 151.259 288.666 151.259C288.666 151.259 289.253 156.678 284.36 156.652C279.467 156.626 265.429 129.736 268.783 122.261C271.901 115.311 265.643 113.804 265.643 113.804Z" fill="#2F2E41"/>
<path d="M267.77 113.085C254.638 112.294 253.32 122.179 253.32 122.179C253.411 127.899 262.495 125.112 265.018 125.964C268.062 123.775 273.929 119.632 278.125 116.675C275.079 114.53 271.49 113.286 267.77 113.085Z" fill="#2F2E41"/>
<path d="M264.029 176.16C264.029 176.16 252.249 120.955 178.521 80.9082" stroke="#3F3D56" stroke-width="0.622384" stroke-miterlimit="10"/>
<path d="M181.559 79.7042L181.707 80.3095L178.725 81.0327L179.664 83.9545L179.071 84.1446L177.927 80.5858L181.559 79.7042Z" fill="#3F3D56"/>
<path d="M21.3084 232.568C21.3084 239.56 17.1519 242.001 12.0243 242.001C11.9055 242.001 11.7869 242 11.6685 241.997C11.4309 241.992 11.1956 241.981 10.9631 241.965C6.33553 241.638 2.74023 239.071 2.74023 232.568C2.74023 225.838 11.3399 217.347 11.9858 216.718L11.987 216.717C12.0119 216.693 12.0243 216.681 12.0243 216.681C12.0243 216.681 21.3084 225.576 21.3084 232.568Z" fill="#1D3A70"/>
<path d="M11.686 240.932L15.0816 236.187L11.6775 241.453L11.6684 241.997C11.4309 241.992 11.1955 241.981 10.9631 241.965L11.329 234.97L11.3262 234.915L11.3324 234.905L11.3669 234.245L7.95435 228.966L11.3777 233.749L11.3856 233.889L11.6622 228.604L8.74061 223.149L11.6978 227.676L11.9858 216.718L11.9869 216.681V216.717L11.9388 225.358L14.8474 221.933L11.9269 226.103L11.85 230.835L14.5657 226.293L11.8387 231.531L11.7957 234.162L15.7383 227.841L11.781 235.08L11.686 240.932Z" fill="#3F3D56"/>
<path d="M65.5908 230.756L67.5767 229.281C67.5767 229.281 68.8913 236.624 67.4244 237.724C65.9575 238.825 60.4566 240.658 60.4566 242.859C60.4566 245.059 47.9878 247.993 47.6211 244.692C47.2544 241.392 48.7213 239.558 48.7213 239.558C48.7213 239.558 54.5889 233.69 55.3224 232.59C56.0558 231.49 57.8895 229.29 57.8895 229.29L65.5908 230.756Z" fill="#2F2E41"/>
<path d="M36.2527 139.442C36.2527 139.442 36.3077 139.764 36.403 140.355C36.4911 140.879 36.6121 141.62 36.7588 142.533C38.2991 151.932 42.7915 179.602 42.4871 180.515C42.1203 181.615 39.5532 185.649 42.4871 186.749C42.7694 186.856 43.0738 187.2 43.4002 187.743C44.0302 188.912 44.5495 190.138 44.9515 191.403C46.7008 196.479 48.5711 204.602 49.6529 210.227C50.126 212.699 50.4487 214.687 50.5441 215.728C50.5772 215.969 50.5809 216.213 50.5551 216.454C50.1883 217.921 52.7554 223.055 53.8556 224.522C54.9558 225.989 56.7894 227.456 56.4227 228.923C56.056 230.39 65.5909 234.424 66.6911 231.857C67.7913 229.29 67.7913 227.823 68.158 227.089C68.5247 226.356 68.8914 221.222 67.0578 220.488C65.2242 219.755 66.3243 206.919 64.4907 204.352C63.8783 203.498 62.9431 200.604 61.964 197.124C61.5789 195.76 61.1902 194.308 60.8088 192.852C59.2612 186.885 57.8896 180.882 57.8896 180.882L58.2563 137.975L38.0863 135.408L37.5693 136.548L36.5387 138.811L36.2527 139.442Z" fill="#2F2E41"/>
<path d="M35.1526 209.853C35.1526 209.853 32.2188 206.919 30.7519 209.853C29.285 212.787 27.8181 224.155 25.251 226.723C22.6839 229.29 19.3834 242.125 23.0506 242.859C26.7179 243.592 30.7519 241.758 31.1186 239.558C31.4854 237.358 39.1866 225.989 39.1866 224.889C39.1866 223.789 34.0524 219.755 34.0524 219.755L35.1526 209.853Z" fill="#2F2E41"/>
<path d="M80.2601 119.271C80.2601 119.271 75.4927 162.179 74.3925 166.213C73.2923 170.247 67.4247 185.649 65.591 188.216C63.7574 190.783 52.0221 211.687 50.5552 212.787C49.0883 213.887 46.1545 216.821 46.1545 216.821C46.1545 216.821 40.6536 222.322 39.9201 223.422C39.1866 224.522 32.9523 221.222 32.5855 219.021C32.2188 216.821 32.9523 213.154 33.319 211.687C33.6857 210.22 32.5855 208.02 33.6857 206.919C34.7859 205.819 40.2868 200.318 40.2868 197.751C40.2868 195.184 49.8218 180.148 53.489 176.848C57.1563 173.547 56.4228 168.046 56.4228 168.046V145.676L36.2528 139.441C36.2528 139.441 37.353 121.839 39.9201 121.839C42.4872 121.839 76.2261 115.971 80.2601 119.271Z" fill="#2F2E41"/>
<path d="M50.5551 58.0279C57.2389 58.0279 62.6572 52.6096 62.6572 45.9259C62.6572 39.2421 57.2389 33.8239 50.5551 33.8239C43.8714 33.8239 38.4531 39.2421 38.4531 45.9259C38.4531 52.6096 43.8714 58.0279 50.5551 58.0279Z" fill="#9F616A"/>
<path d="M54.5891 55.4607C54.5891 55.4607 56.056 60.9616 57.8897 62.4285C59.7233 63.8954 53.1222 70.1298 53.1222 70.1298L40.6535 70.8633L38.4531 63.8954C38.4531 63.8954 42.4871 55.8274 41.3869 50.6932C40.2868 45.559 54.5891 55.4607 54.5891 55.4607Z" fill="#9F616A"/>
<path d="M59.7233 61.6952C59.7233 61.6952 56.4227 62.0619 55.6892 63.1621C54.9558 64.2623 49.8216 67.5629 45.7876 66.8294C41.7536 66.096 39.1865 64.9958 38.4531 65.3625C37.7196 65.7292 36.2527 73.4305 36.2527 73.4305L40.2867 85.1658L39.5532 117.438L38.4531 126.239C38.4531 126.239 36.2527 123.305 45.0541 125.139C53.8556 126.973 65.2242 123.672 68.8915 123.305C72.5587 122.939 78.7931 121.839 79.1598 119.638C79.5266 117.438 78.0596 109.37 78.0596 109.37L72.192 84.7991L68.5247 71.5969L59.7233 61.6952Z" fill="#1D3A70"/>
<path d="M56.2544 60.04C56.2544 60.04 59.3565 58.3946 60.4567 59.8615C61.5569 61.3285 75.4925 63.5288 75.4925 64.629C75.4925 65.7292 78.4263 95.4341 77.6929 98.0012C76.9594 100.568 79.1598 103.502 79.1598 103.502L81.7269 114.504C81.7269 114.504 88.6947 135.407 85.7609 136.141C82.8271 136.874 80.26 136.141 79.1598 136.141C78.0596 136.141 78.4263 122.205 75.4925 118.538C72.5587 114.871 68.5247 105.703 67.7912 103.869C67.0578 102.035 57.8896 76.731 58.2563 73.7972C58.623 70.8634 56.2544 60.04 56.2544 60.04Z" fill="#D0CDE1"/>
<path d="M41.0202 61.6952C41.0202 61.6952 38.0864 61.6952 37.7197 62.4287C37.353 63.1621 33.6857 67.9296 32.2188 69.0298C30.7519 70.13 25.6177 74.8974 25.6177 75.9976C25.6177 77.0978 36.2528 85.1658 36.2528 85.1658C36.2528 85.1658 40.6535 106.803 38.4531 114.137C36.2528 121.472 32.9522 139.075 34.4191 140.175C35.886 141.275 39.1866 141.642 39.1866 140.175C39.1866 138.708 41.387 122.939 43.2206 119.638C45.0542 116.338 50.5552 95.4342 48.3548 89.5665C46.1544 83.6989 41.0202 61.6952 41.0202 61.6952Z" fill="#D0CDE1"/>
<path d="M89.4283 98.0012C89.4283 98.0012 89.795 109.37 85.761 115.237C81.727 121.105 79.1599 127.706 79.1599 127.706C79.1599 127.706 72.5588 125.872 71.4586 123.672C70.3585 121.472 63.3906 123.305 63.3906 122.572C63.3906 121.838 71.8254 118.171 72.5588 117.438C73.2923 116.704 75.8594 116.704 77.3263 115.237C78.7932 113.77 79.1599 110.47 79.1599 110.47L80.6268 100.935L89.4283 98.0012Z" fill="#9F616A"/>
<path d="M58.8905 38.464C59.8215 38.3795 60.7817 38.2864 61.6046 37.8427C63.4482 36.8484 63.9371 34.0169 62.5336 32.4619C62.1466 32.0663 61.7138 31.7183 61.2443 31.4252L58.4567 29.5278C57.2238 28.6887 55.9618 27.8357 54.5238 27.4401C53.2232 27.0823 51.8495 27.1191 50.5032 27.2028C47.8896 27.3652 45.2599 27.7008 42.8016 28.6031C40.3434 29.5055 38.0503 31.0152 36.5615 33.1694C34.2012 36.5844 34.1688 41.1903 35.4687 45.1328C36.7687 49.0754 39.238 52.5085 41.6711 55.8721L42.9336 49.7121C43.046 49.1634 43.1915 48.5621 43.6478 48.2374C44.7819 47.4303 46.1693 49.0874 47.5612 49.0766C48.4556 49.0697 49.2065 48.3341 49.5455 47.5064C49.8844 46.6787 49.9067 45.7621 49.9851 44.8711C50.1512 42.984 50.8109 40.3582 52.598 39.3174C54.2633 38.3476 57.0186 38.634 58.8905 38.464Z" fill="#2F2E41"/>
<path opacity="0.1" d="M58.2114 139.737C58.2114 139.737 56.9728 175.564 56.2393 176.664C55.5059 177.764 56.2393 139.625 56.2393 139.625L58.2114 139.737Z" fill="black"/>
<path d="M72.5588 64.6289H75.4927C75.4927 64.6289 87.9614 81.4984 86.4945 82.5985C85.0276 83.6987 86.4945 86.6325 86.4945 86.6325L89.4283 92.1335C89.4283 92.1335 93.0956 95.434 91.9954 96.1675C90.8952 96.9009 89.4283 99.8347 89.4283 99.8347C89.4283 99.8347 82.0938 98.7345 79.8934 103.135L75.137 97.1306L72.5588 64.6289Z" fill="#D0CDE1"/>
<path d="M73.5957 70.055L63.5286 74.2122L71.2756 92.9726L81.3427 88.8155L73.5957 70.055Z" fill="#2F2E41"/>
<path d="M72.4158 81.0583C73.5278 80.5991 74.0872 79.3988 73.6654 78.3773C73.2436 77.3557 72.0002 76.8999 70.8882 77.3591C69.7762 77.8182 69.2167 79.0186 69.6385 80.0401C70.0604 81.0616 71.3038 81.5175 72.4158 81.0583Z" fill="#1D3A70"/>
<path d="M65.2242 93.9672C65.2242 93.9672 38.8198 115.971 34.4191 109.003C30.0183 102.035 39.1865 96.1676 39.1865 96.1676C39.1865 96.1676 47.2546 96.5343 56.4227 90.6666L65.5909 86.6326C65.5909 86.6326 73.9608 74.6832 76.813 79.2334C79.6651 83.7837 71.9443 91.703 65.2242 93.9672Z" fill="#9F616A"/>
<path d="M29.6515 74.5305L25.6175 75.9974V86.9993L24.1506 89.1996C24.1506 89.1996 24.5174 93.6004 25.6175 94.7005C26.7177 95.8007 28.9181 95.434 28.1846 98.0011C27.7438 99.6747 27.6195 101.416 27.8179 103.135C27.8179 103.135 34.419 111.57 34.7857 110.47C35.1525 109.37 40.2867 95.8007 41.0201 95.8007C41.7536 95.8007 33.6856 74.5305 33.6856 74.5305H29.6515Z" fill="#D0CDE1"/>
<path d="M77.8763 130.09C77.8763 130.09 81.6682 126.422 79.7722 126.239C77.8763 126.056 71.2752 122.388 70.175 124.222C69.0748 126.056 77.8763 130.09 77.8763 130.09Z" fill="#2F2E41"/>
<path d="M149.995 60.1331C152.916 60.1331 155.285 58.8791 155.285 57.3323C155.285 55.7855 152.916 54.5316 149.995 54.5316C147.073 54.5316 144.704 55.7855 144.704 57.3323C144.704 58.8791 147.073 60.1331 149.995 60.1331Z" fill="#57B894"/>
<path d="M170.222 66.668C158.293 62.1626 146.364 62.1626 134.435 66.668V52.042C146.104 48.5207 158.553 48.5207 170.222 52.042V66.668Z" stroke="#3F3D56" stroke-width="0.622384" stroke-miterlimit="10"/>
<path d="M165.243 63.6433C156.633 60.3916 148.024 60.3916 139.414 63.6433V53.0872C147.836 50.5457 156.821 50.5457 165.243 53.0872V63.6433Z" stroke="#3F3D56" stroke-width="0.622384" stroke-miterlimit="10"/>
<path d="M151.862 58.8883C154.783 58.8883 157.152 57.6343 157.152 56.0875C157.152 54.5407 154.783 53.2868 151.862 53.2868C148.94 53.2868 146.571 54.5407 146.571 56.0875C146.571 57.6343 148.94 58.8883 151.862 58.8883Z" stroke="#3F3D56" stroke-width="0.622384" stroke-miterlimit="10"/>
<path d="M153.884 77.673C156.747 77.0887 158.817 75.3865 158.508 73.8709C158.198 72.3554 155.627 71.6004 152.764 72.1847C149.902 72.769 147.832 74.4712 148.141 75.9868C148.45 77.5023 151.022 78.2573 153.884 77.673Z" fill="#57B894"/>
<path d="M175.01 80.0311C162.421 78.0022 150.733 80.3877 139.946 87.1876L137.021 72.857C147.751 67.0733 159.948 64.5839 172.085 65.7005L175.01 80.0311Z" stroke="#3F3D56" stroke-width="0.622384" stroke-miterlimit="10"/>
<path d="M169.527 78.0632C160.441 76.5989 152.005 78.3206 144.219 83.2283L142.108 72.8853C149.852 68.7111 158.655 66.9143 167.416 67.7202L169.527 78.0632Z" stroke="#3F3D56" stroke-width="0.622384" stroke-miterlimit="10"/>
<path d="M155.465 76.0801C158.328 75.4958 160.398 73.7935 160.088 72.278C159.779 70.7624 157.207 70.0075 154.345 70.5917C151.482 71.176 149.412 72.8783 149.721 74.3938C150.031 75.9094 152.602 76.6643 155.465 76.0801Z" stroke="#3F3D56" stroke-width="0.622384" stroke-miterlimit="10"/>
<path d="M157.505 92.704C157.612 91.1609 155.336 89.7456 152.421 89.5428C149.507 89.34 147.057 90.4264 146.95 91.9695C146.842 93.5126 149.118 94.9279 152.033 95.1307C154.947 95.3336 157.397 94.2471 157.505 92.704Z" fill="#57B894"/>
<path d="M171.758 103.054C160.17 97.7315 148.27 96.9034 136.057 100.57L137.072 85.9791C148.958 83.2764 161.377 84.1406 172.773 88.4634L171.758 103.054Z" stroke="#3F3D56" stroke-width="0.622384" stroke-miterlimit="10"/>
<path d="M167.001 99.691C158.638 95.8495 150.049 95.2519 141.234 97.898L141.967 87.3673C150.545 85.4167 159.508 86.0404 167.734 89.1603L167.001 99.691Z" stroke="#3F3D56" stroke-width="0.622384" stroke-miterlimit="10"/>
<path d="M159.454 91.5919C159.561 90.0488 157.285 88.6335 154.371 88.4307C151.456 88.2278 149.006 89.3143 148.899 90.8574C148.791 92.4005 151.067 93.8158 153.982 94.0186C156.897 94.2214 159.346 93.135 159.454 91.5919Z" stroke="#3F3D56" stroke-width="0.622384" stroke-miterlimit="10"/>
<path d="M129.12 67.0077C129.12 67.0077 106.249 63.8788 89.9158 73.4506" stroke="#3F3D56" stroke-width="0.622384" stroke-miterlimit="10"/>
<path d="M90.4661 70.2339L91.0602 70.4219L90.1316 73.3468L93.1172 74.0591L92.9718 74.665L89.3362 73.7964L90.4661 70.2339Z" fill="#3F3D56"/>
</g>
<defs>
<clipPath id="clip0_15_608">
<rect width="342" height="248.232" fill="white" transform="translate(0 0.384155)"/>
</clipPath>
</defs>
</svg>
