<svg width="24" height="24" viewBox="0 0 24 24" fill="none" xmlns="http://www.w3.org/2000/svg">
<path d="M2.46342 0.872534L2.46337 0.872299L2.47023 0.871319C2.48125 0.869745 2.49997 0.869106 2.51644 0.868607C2.53626 0.868004 2.56328 0.867416 2.5969 0.86684C2.66424 0.865688 2.7593 0.864569 2.87885 0.863506C3.11802 0.86138 3.45601 0.859474 3.868 0.858009C4.69203 0.85508 5.81253 0.853907 7.03144 0.856251L11.461 0.860939L11.4833 0.860964L11.5035 0.870457L11.8223 1.02046L11.8224 1.0205C12.2609 1.22745 12.6478 1.61945 12.8543 2.05223L12.8551 2.05383L13.0004 2.37258L13.0089 2.39141L13.0094 2.41208L13.0281 3.35896L13.0449 4.2125H17.8453H22.7438H22.7852L22.8145 4.24179L22.9738 4.40117L23.1332 4.56054L23.1625 4.58983V4.63125V9.04688V13.4625V13.5039L23.1332 13.5332L22.9738 13.6926L22.8145 13.852L22.7852 13.8813H22.7438H17.8406H13.0418L13.0281 17.6816L13.0141 21.5863L13.014 21.6091L13.004 21.6296L12.8446 21.9578L12.8445 21.958C12.6287 22.3995 12.2562 22.7724 11.8228 22.9793L11.8228 22.9793L11.8223 22.9795L11.5035 23.1295L11.4833 23.1391H11.4609H6.9375H2.41406H2.39171L2.37148 23.1295L2.05273 22.9795L2.05273 22.9795L2.05224 22.9793C1.61945 22.7727 1.22745 22.3859 1.0205 21.9474L1.02046 21.9473L0.870456 21.6285L0.860937 21.6083V21.5859V12V2.41406V2.39171L0.870456 2.37148L1.02045 2.05273L1.02069 2.05224C1.22684 1.62031 1.6182 1.22272 2.03024 1.03405L2.03248 1.03309C2.11564 0.99745 2.20371 0.961737 2.27968 0.933023C2.35316 0.905254 2.42211 0.881386 2.46342 0.872534ZM2.06875 18.5563H6.9375H11.8062V16.2188V13.8813H11.4281H10.9867L9.53946 15.3285L9.53935 15.3286L8.0581 16.8052L8.02883 16.8344H7.9875H7.78594C7.69714 16.8344 7.62285 16.8273 7.55079 16.7953C7.48021 16.7639 7.42129 16.7127 7.35429 16.6457L7.19491 16.4863L7.16563 16.457V16.4156V15.0984V13.8813H5.94844H4.63125H4.58983L4.56054 13.852L4.40116 13.6926L4.24179 13.5332L4.2125 13.5039V13.4625V9.04688V4.63125V4.58983L4.24179 4.56054L4.40116 4.40117L4.56054 4.24179L4.58983 4.2125H4.63125H8.26875H11.8062V3.57188C11.8062 3.132 11.7929 2.87078 11.7487 2.68972C11.7069 2.51822 11.6375 2.419 11.5113 2.30564L11.511 2.3054C11.4684 2.26683 11.4089 2.22509 11.3475 2.18942C11.2853 2.15333 11.2277 2.12732 11.1897 2.11646L11.2172 2.02031L11.1902 2.11661C11.1914 2.11695 11.1862 2.11563 11.169 2.11372C11.1535 2.11201 11.1326 2.11024 11.1057 2.10846C11.0519 2.10491 10.9775 2.10153 10.8817 2.09836C10.6902 2.09202 10.4165 2.08661 10.0593 2.08222C9.34511 2.07344 8.29916 2.06875 6.9142 2.06875L2.06875 18.5563ZM10.4576 12.6791L10.4868 12.65H10.5281H16.2797H21.9312V9.04688V5.44375H13.6875H5.44375V9.04688V12.65H6.66094H7.97813H8.01955L8.04884 12.6793L8.20821 12.8387L8.36759 12.998L8.39688 13.0273V13.0688V13.9875C8.39688 14.2399 8.40038 14.4683 8.40619 14.6332C8.40705 14.6576 8.40796 14.6805 8.4089 14.7018C8.46129 14.6522 8.52638 14.5898 8.60173 14.5168C8.80347 14.3215 9.07738 14.0523 9.37488 13.7571L10.4576 12.6791ZM2.30537 21.636L2.30543 21.6361C2.31951 21.6516 2.33206 21.6658 2.34356 21.6788C2.40118 21.7438 2.43214 21.7787 2.49402 21.8088C2.57152 21.8465 2.70163 21.8762 2.98177 21.8958C3.49557 21.9316 4.46323 21.9315 6.41124 21.9313C6.57638 21.9313 6.74857 21.9313 6.92813 21.9313C8.48207 21.9313 9.51856 21.9277 10.1846 21.919C10.5178 21.9146 10.7574 21.9089 10.9224 21.9017C11.0049 21.8981 11.0679 21.8942 11.114 21.8899C11.1618 21.8856 11.1853 21.8814 11.1936 21.8791C11.2963 21.8479 11.4205 21.765 11.5303 21.6553C11.6399 21.5456 11.7227 21.4216 11.754 21.319C11.767 21.2716 11.7807 21.1615 11.7906 20.9997C11.8004 20.8405 11.8062 20.6398 11.8062 20.4188V19.7875H6.9375H2.06875V20.4234C2.06875 20.8495 2.07847 21.097 2.11359 21.2682C2.14684 21.4303 2.2025 21.5224 2.30537 21.636Z" fill="#1D3A70" stroke="#1D3A70" stroke-width="0.2"/>
<path d="M5.59665 2.71406C5.5029 2.77031 5.42321 2.87344 5.3904 2.97187C5.3154 3.20156 5.39977 3.44531 5.59665 3.56719C5.72789 3.64687 5.84039 3.65625 6.93726 3.65625C8.03414 3.65625 8.14663 3.64687 8.27788 3.56719C8.58726 3.37969 8.58726 2.90156 8.27788 2.71406C8.14663 2.63437 8.03414 2.625 6.93726 2.625C5.84039 2.625 5.72789 2.63437 5.59665 2.71406Z" fill="#1D3A70"/>
<path d="M8.26879 7.00312L8.10941 7.1625V7.63594C8.10941 7.89844 8.10004 8.10937 8.08598 8.10937C8.07191 8.10937 7.89379 8.01562 7.69223 7.89844C7.29379 7.66875 7.10629 7.63594 6.89066 7.76719C6.63754 7.91719 6.5766 8.2875 6.76879 8.51719C6.82973 8.5875 7.03129 8.73281 7.2141 8.83594C7.39691 8.93906 7.54691 9.03281 7.54691 9.04688C7.54691 9.06094 7.37348 9.16406 7.16723 9.28125C6.76879 9.50156 6.65629 9.6375 6.65629 9.88594C6.65629 10.0875 6.73598 10.2375 6.89066 10.3266C7.10629 10.4578 7.29379 10.425 7.69223 10.1953C7.89379 10.0781 8.07191 9.98438 8.08598 9.98438C8.10004 9.98438 8.10941 10.1953 8.10941 10.4578V10.9312L8.26879 11.0906C8.40004 11.2219 8.46566 11.25 8.62504 11.25C8.78441 11.25 8.85004 11.2219 8.98129 11.0906L9.14066 10.9312V10.4578C9.14066 10.1953 9.15473 9.98438 9.17816 9.98438C9.19691 9.98438 9.37035 10.0781 9.56254 10.1953C9.94691 10.425 10.1391 10.4578 10.3594 10.3266C10.6219 10.1766 10.6735 9.80625 10.4719 9.56719C10.4063 9.4875 10.2047 9.34219 10.0266 9.24844C9.84848 9.15 9.70316 9.06094 9.70316 9.04688C9.70316 9.03281 9.84848 8.94375 10.0266 8.84531C10.2047 8.75156 10.4063 8.60625 10.4719 8.52656C10.6735 8.2875 10.6219 7.91719 10.3594 7.76719C10.1438 7.63594 9.95629 7.66875 9.55785 7.89844C9.35629 8.01562 9.17816 8.10937 9.1641 8.10937C9.15004 8.10937 9.14066 7.89844 9.14066 7.63594V7.1625L8.98129 7.00312C8.85004 6.87187 8.78441 6.84375 8.62504 6.84375C8.46566 6.84375 8.40004 6.87187 8.26879 7.00312Z" fill="#1D3A70"/>
<path d="M13.3313 7.00312L13.1719 7.1625V7.63594C13.1719 7.89844 13.1625 8.10937 13.1485 8.10937C13.1344 8.10937 12.9563 8.01562 12.7547 7.89844C12.3563 7.66875 12.1688 7.63594 11.9532 7.76719C11.7 7.91719 11.6391 8.2875 11.8313 8.51719C11.8922 8.5875 12.0938 8.73281 12.2766 8.83594C12.4594 8.93906 12.6094 9.03281 12.6094 9.04688C12.6094 9.06094 12.436 9.16406 12.2297 9.28125C11.8313 9.50156 11.7188 9.6375 11.7188 9.88594C11.7188 10.0875 11.7985 10.2375 11.9532 10.3266C12.1688 10.4578 12.3563 10.425 12.7547 10.1953C12.9563 10.0781 13.1344 9.98438 13.1485 9.98438C13.1625 9.98438 13.1719 10.1953 13.1719 10.4578V10.9312L13.3313 11.0906C13.4625 11.2219 13.5282 11.25 13.6875 11.25C13.8469 11.25 13.9125 11.2219 14.0438 11.0906L14.2031 10.9312V10.4578C14.2031 10.1953 14.2172 9.98438 14.2406 9.98438C14.2594 9.98438 14.4328 10.0781 14.625 10.1953C15.0094 10.425 15.2016 10.4578 15.4219 10.3266C15.6844 10.1766 15.7359 9.80625 15.5344 9.56719C15.4688 9.4875 15.2672 9.34219 15.0891 9.24844C14.911 9.15 14.7656 9.06094 14.7656 9.04688C14.7656 9.03281 14.911 8.94375 15.0891 8.84531C15.2672 8.75156 15.4688 8.60625 15.5344 8.52656C15.7359 8.2875 15.6844 7.91719 15.4219 7.76719C15.2063 7.63594 15.0188 7.66875 14.6203 7.89844C14.4188 8.01562 14.2406 8.10937 14.2266 8.10937C14.2125 8.10937 14.2031 7.89844 14.2031 7.63594V7.1625L14.0438 7.00312C13.9125 6.87187 13.8469 6.84375 13.6875 6.84375C13.5282 6.84375 13.4625 6.87187 13.3313 7.00312Z" fill="#1D3A70"/>
<path d="M18.3938 7.00312L18.2344 7.1625V7.63594C18.2344 7.89844 18.225 8.10937 18.211 8.10937C18.1969 8.10937 18.0188 8.01562 17.8172 7.89844C17.4188 7.66875 17.2313 7.63594 17.0157 7.76719C16.7625 7.91719 16.7016 8.2875 16.8938 8.51719C16.9547 8.5875 17.1563 8.73281 17.3391 8.83594C17.5219 8.93906 17.6719 9.03281 17.6719 9.04688C17.6719 9.06094 17.5219 9.15469 17.3391 9.25781C17.1563 9.36094 16.9547 9.50625 16.8938 9.57656C16.7016 9.80625 16.7625 10.1766 17.0157 10.3266C17.2313 10.4578 17.4188 10.425 17.8172 10.1953C18.0188 10.0781 18.1969 9.98438 18.211 9.98438C18.225 9.98438 18.2344 10.1953 18.2344 10.4578V10.9312L18.3938 11.0906C18.525 11.2219 18.5907 11.25 18.75 11.25C18.9094 11.25 18.975 11.2219 19.1063 11.0906L19.2656 10.9312V10.4578C19.2656 10.1953 19.2797 9.98438 19.3031 9.98438C19.3219 9.98438 19.4953 10.0781 19.6875 10.1953C20.0719 10.425 20.2641 10.4578 20.4844 10.3266C20.7469 10.1766 20.7984 9.80625 20.5969 9.56719C20.5313 9.4875 20.3297 9.34219 20.1516 9.24844C19.9735 9.15 19.8281 9.06094 19.8281 9.04688C19.8281 9.03281 19.9735 8.94375 20.1516 8.84531C20.55 8.62969 20.7188 8.44219 20.7188 8.22187C20.7188 7.89375 20.5172 7.6875 20.1938 7.6875C20.1047 7.6875 19.9031 7.77187 19.6828 7.89844C19.4813 8.01562 19.3031 8.10937 19.2891 8.10937C19.275 8.10937 19.2656 7.89844 19.2656 7.63594V7.1625L19.1063 7.00312C18.975 6.87187 18.9094 6.84375 18.75 6.84375C18.5907 6.84375 18.525 6.87187 18.3938 7.00312Z" fill="#1D3A70"/>
<path d="M5.59665 20.4328C5.39977 20.5547 5.3154 20.7984 5.3904 21.0281C5.42321 21.1266 5.5029 21.2297 5.59665 21.2859C5.72789 21.3656 5.84039 21.375 6.93726 21.375C8.03414 21.375 8.14663 21.3656 8.27788 21.2859C8.58726 21.0984 8.58726 20.6203 8.27788 20.4328C8.14663 20.3531 8.03414 20.3438 6.93726 20.3438C5.84039 20.3438 5.72789 20.3531 5.59665 20.4328Z" fill="#1D3A70"/>
</svg>
