<svg width="30" height="30" viewBox="0 0 30 30" fill="none" xmlns="http://www.w3.org/2000/svg">
<g clip-path="url(#clip0_56_986)">
<path d="M20.7081 16.8113C20.0893 16.6455 19.5176 16.3845 19.0077 16.0538C18.8478 15.9462 18.6394 15.9389 18.4672 16.0384L17.4118 16.8178C16.17 15.7571 15.1806 14.1171 14.8662 12.4529L16.071 11.8807C16.2446 11.7762 16.3374 11.5908 16.3292 11.3999C16.2927 10.7916 16.3576 10.1673 16.5234 9.5485C16.5962 9.27683 16.4304 8.98978 16.1588 8.91699L14.4181 8.45058C14.1464 8.37778 13.7871 8.4109 13.686 8.78822C12.4337 13.4619 15.2818 18.3877 19.9505 19.6387C20.3077 19.7344 20.5335 19.4552 20.6076 19.1785L21.0727 17.4429C21.1455 17.1712 20.9797 16.8841 20.7081 16.8113Z" fill="white"/>
</g>
<path d="M22.4286 1H9.57143C8.15714 1 7 2.14545 7 3.54545V7.36364H9.57143V4.81818H22.4286V25.1818H9.57143V22.6364H7V26.4545C7 27.8545 8.15714 29 9.57143 29H22.4286C23.8429 29 25 27.8545 25 26.4545V3.54545C25 2.14545 23.8429 1 22.4286 1Z" fill="white"/>
<rect x="6" y="9" width="5" height="1" fill="white"/>
<rect x="6" y="13" width="5" height="1" fill="white"/>
<rect x="6" y="16" width="5" height="2" fill="white"/>
<rect x="6" y="20" width="5" height="1" fill="white"/>
<rect x="14" y="23" width="7" height="1" rx="0.5" fill="white"/>
<defs>
<clipPath id="clip0_56_986">
<rect width="12.5" height="12.5" fill="white" transform="translate(12.7145 6.3765) rotate(15)"/>
</clipPath>
</defs>
</svg>
