<svg width="35" height="35" viewBox="0 0 35 35" fill="none" xmlns="http://www.w3.org/2000/svg">
<path d="M16.1672 0.683593C15.1486 0.950194 14.3898 1.36719 13.6242 2.07812C11.635 3.92383 11.2727 6.94531 12.7561 9.24902C13.4875 10.377 14.5129 11.1562 15.8596 11.5937C16.3928 11.7646 16.5295 11.7852 17.5002 11.7852C18.5119 11.7852 18.5939 11.7715 19.2092 11.5664C21.4719 10.8145 22.9689 8.89355 23.1467 6.50781C23.2629 4.9082 22.593 3.2334 21.3762 2.07129C20.6242 1.36035 19.7561 0.895507 18.7238 0.649413C18.1018 0.505858 16.7756 0.51953 16.1672 0.683593ZM17.1721 4.42285C18.3205 5.57129 18.5256 5.80371 18.5256 5.97461C18.5256 6.13184 18.423 6.28223 18.0266 6.67871C17.2609 7.4375 17.343 7.46484 15.7365 5.8584C14.1438 4.25879 14.1779 4.36133 14.9641 3.60254C15.3195 3.25391 15.5588 3.07617 15.6613 3.07617C15.7707 3.07617 16.1945 3.45215 17.1721 4.42285Z" fill="#1D3A70"/>
<path d="M14.4238 14.5879V16.4746H17.5H20.5762V14.5879C20.5762 12.8174 20.5693 12.7012 20.46 12.749C19.2705 13.2275 18.6689 13.3506 17.5 13.3506C16.3311 13.3506 15.7295 13.2275 14.5469 12.749C14.4307 12.7012 14.4238 12.8174 14.4238 14.5879Z" fill="#1D3A70"/>
<path d="M11.6689 18.3135L11.3818 18.5869L11.3613 22.0595L11.3408 25.539L11.498 25.7783C11.833 26.2773 11.5117 26.25 17.5 26.25C23.4814 26.25 23.167 26.2773 23.4951 25.7783L23.6523 25.5459V22.1689C23.6523 18.4707 23.666 18.5801 23.2422 18.2246L23.0234 18.0469H17.4932H11.9561L11.6689 18.3135Z" fill="#1D3A70"/>
<path d="M6.23449 19.626C4.34777 19.8721 2.45422 21.0137 1.32629 22.5928C0.902461 23.1943 0.437617 24.1992 0.225703 24.9854L0.0411331 25.6689L0.0206253 29.668C-0.00671842 34.1318 -0.0203903 33.9678 0.471797 34.2959C0.697383 34.4531 0.745234 34.4531 2.60461 34.4531H4.49816L4.71691 34.2754C5.14074 33.9131 5.12707 34.0703 5.12707 29.9209C5.12707 25.6758 5.12707 25.6553 5.58507 25.1973C6.04308 24.7324 6.12511 24.7188 8.05285 24.6914L9.7755 24.6641V22.1074V19.5508L8.22375 19.5576C7.36242 19.5645 6.47375 19.5918 6.23449 19.626Z" fill="#1D3A70"/>
<path d="M25.2246 22.1006V24.6641L26.9541 24.6914C28.875 24.7119 28.9707 24.7324 29.4355 25.2109C29.8662 25.6553 29.873 25.7168 29.873 29.9209C29.873 34.0977 29.8594 33.9336 30.3037 34.2754L30.5361 34.4531H32.416C34.2549 34.4531 34.3027 34.4531 34.5283 34.2959C35.0205 33.9678 35.0068 34.1318 34.9795 29.668L34.959 25.669L34.7813 25.0059C34.4258 23.707 33.7832 22.5791 32.874 21.6768C31.9648 20.7676 30.8301 20.1182 29.5449 19.7764C28.9365 19.6123 28.7383 19.5986 27.0566 19.5645L25.2246 19.5371V22.1006Z" fill="#1D3A70"/>
</svg>
