<svg width="22" height="24" viewBox="0 0 22 24" fill="none" xmlns="http://www.w3.org/2000/svg">
<path d="M10.6015 0.098423C10.4749 0.149984 8.2671 1.05936 5.70304 2.11873C2.63273 3.38436 0.99679 4.0828 0.912415 4.16249C0.64054 4.41561 0.62179 4.55155 0.654602 6.06092C0.687415 7.51873 0.724915 8.0953 0.879602 9.32811C1.6296 15.3656 4.35304 20.2078 8.60929 23.0719C9.89366 23.939 10.639 24.15 11.5718 23.9109C12.0405 23.789 12.364 23.6203 13.0249 23.1469C15.0499 21.6984 16.7609 19.8281 18.1155 17.5781C20.1827 14.1328 21.364 9.66561 21.3593 5.29686C21.3593 4.56092 21.3077 4.35467 21.0734 4.13905C20.9046 3.98436 11.3046 0.0374851 11.0468 0.018734C10.9062 0.004673 10.7562 0.0327969 10.6015 0.098423ZM14.6562 3.21092C16.6296 4.02655 18.5702 4.82811 18.9687 4.99217L19.6952 5.29217L19.7093 5.49373C19.7327 5.78436 19.639 7.37342 19.5546 8.08592C19.1046 11.925 17.778 15.4453 15.7577 18.164C15.1952 18.9234 14.8624 19.3125 14.1734 20.0109C13.2499 20.9437 11.9374 22.0031 11.4218 22.2281C11.0984 22.3687 10.6437 22.3547 10.3155 22.1953C9.29835 21.6984 7.67648 20.3531 6.64054 19.1484C4.56866 16.7297 3.20929 13.6031 2.61398 9.88592C2.42648 8.73748 2.28116 6.95155 2.28116 5.85467V5.30623L2.50616 5.21248C2.62804 5.16092 4.17023 4.52342 5.93741 3.79686C7.7046 3.06561 9.53741 2.30623 10.0155 2.10936C10.4937 1.9078 10.9249 1.74373 10.9765 1.73905C11.028 1.73436 12.6874 2.39998 14.6562 3.21092Z" fill="#1D3A70"/>
<path d="M9.99219 4.10154C8.76406 4.37341 7.69531 5.22185 7.18438 6.33747C6.9125 6.92341 6.86563 7.1531 6.84219 8.14216C6.82813 8.63904 6.8 9.04685 6.78125 9.04685C6.66406 9.04685 6.20469 9.5531 6.06875 9.83435L5.91406 10.1484V13.1015V16.0547L6.04063 16.3265C6.20469 16.6687 6.58438 17.0531 6.94531 17.2312L7.22656 17.3672H10.8359H14.4453L14.7594 17.2125C15.1531 17.0203 15.5422 16.6125 15.6969 16.2328L15.8047 15.9609V13.125C15.8047 10.514 15.8 10.2703 15.7203 10.0453C15.6125 9.73591 15.3219 9.33279 15.0875 9.17341L14.9047 9.04216L14.8766 8.23591C14.8438 7.34529 14.75 6.86247 14.5203 6.35622C14.0094 5.22654 12.9172 4.35466 11.6938 4.10623C11.2578 4.01716 10.3906 4.01248 9.99219 4.10154ZM11.4922 5.74216C11.8906 5.84997 12.2047 6.03279 12.5375 6.36091C13.0531 6.87185 13.2781 7.54685 13.2406 8.46091L13.2266 8.78904L10.85 8.8031L8.46875 8.81247V8.2406C8.46875 7.37341 8.64219 6.86716 9.09688 6.4031C9.70625 5.77966 10.6391 5.52185 11.4922 5.74216ZM14.1313 10.5093C14.2063 10.5843 14.2109 15.5203 14.1406 15.6609C14.0938 15.7453 14.0047 15.75 10.8688 15.75C8.42188 15.75 7.62969 15.7359 7.5875 15.6937C7.54531 15.6515 7.53125 15.0047 7.53125 13.0781C7.53125 11.6672 7.54531 10.5 7.56406 10.4859C7.57813 10.4672 9.05 10.4531 10.8359 10.4531C13.2922 10.4531 14.0891 10.4672 14.1313 10.5093Z" fill="#1D3A70"/>
<path d="M10.4138 11.4797C9.78102 11.775 9.62633 12.6609 10.1279 13.1203L10.2498 13.2328V14.0015V14.7656H10.8591H11.4685V14.0156V13.2656L11.6279 13.0593C12.0357 12.5203 11.8904 11.7984 11.3138 11.5078C11.0232 11.3672 10.6857 11.3531 10.4138 11.4797Z" fill="#1D3A70"/>
</svg>
