<svg width="17" height="18" viewBox="0 0 17 18" fill="none" xmlns="http://www.w3.org/2000/svg">
<g clip-path="url(#clip0_420_2732)">
<path d="M5.3125 17.5002H0V12.1877H5.3125V17.5002ZM4.25 13.2502H1.0625V16.4377H4.25V13.2502Z" fill="white"/>
<path d="M3.18774 15.3748H2.12524V14.3123H3.18774V15.3748Z" fill="white"/>
<path d="M11.6877 17.5V12.1875H17.0002V17.5H11.6877ZM15.9377 13.25H12.7502V16.4375H15.9377V13.25Z" fill="white"/>
<path d="M14.8752 15.3748H13.8127V14.3123H14.8752V15.3748Z" fill="white"/>
<path d="M0 0.500243H5.3125V5.81274H0V0.500243ZM1.0625 4.75024H4.25V1.56274H1.0625V4.75024Z" fill="white"/>
<path d="M3.18774 3.6875H2.12524V2.625H3.18774V3.6875Z" fill="white"/>
<path d="M10.6252 17.5H8.50024V16.4375H10.6252V17.5Z" fill="white"/>
<path d="M8.50024 13.2498H9.56274V14.3123H10.6252V15.3748H7.43774V16.4373H6.37524V15.3748V14.8435V14.3123H8.50024V13.2498Z" fill="white"/>
<path d="M7.43774 13.25H6.37524V12.1875H7.43774V13.25Z" fill="white"/>
<path d="M10.6252 12.1875H9.56274V11.125H6.37524V10.0625H10.6252V12.1875Z" fill="white"/>
<path d="M1.0625 7.93726H2.125V8.99976H1.0625V11.1248H0V6.87476H1.0625V7.93726Z" fill="white"/>
<path d="M3.18774 11.1248H2.12524V10.0623H3.18774V11.1248Z" fill="white"/>
<path d="M6.37524 6.87476H8.50024V7.93726H7.43774V8.99976H5.31274V11.1248H4.25024V8.99976H3.18774V6.87476H4.25024V7.93726H4.78149H5.31274H6.37524V6.87476Z" fill="white"/>
<path d="M10.6252 9H9.56274V6.875H10.6252V9Z" fill="white"/>
<path d="M9.56274 5.81274H6.37524V4.75024H8.50024V1.56274H6.37524V0.500243H9.56274V1.56274H11.6877V2.62524H9.56274V5.81274Z" fill="white"/>
<path d="M7.43774 3.6875H6.37524V2.625H7.43774V3.6875Z" fill="white"/>
<path d="M11.6877 5.81274H10.6252V3.68774H11.6877V5.81274Z" fill="white"/>
<path d="M15.9377 3.6875H12.7502V0.500001H13.8127V2.625H15.9377V3.6875Z" fill="white"/>
<path d="M17.0002 1.5625H14.8752V0.500001H17.0002V1.5625Z" fill="white"/>
<path d="M17.0002 5.81274H15.9377V4.75025H17.0002V5.81274Z" fill="white"/>
<path d="M12.7502 4.74975H13.8127V7.93726H11.6877V6.87476H12.7502V4.74975Z" fill="white"/>
<path d="M14.8752 10.0623H13.8127V11.1248H12.7502V10.0623H11.6877V8.99976H15.9377V10.0623H17.0002V11.1248H14.8752V10.0623Z" fill="white"/>
<path d="M17.0002 7.93726H14.8752V6.87476H17.0002V7.93726Z" fill="white"/>
</g>
<defs>
<clipPath id="clip0_420_2732">
<rect width="17" height="17" rx="3" transform="matrix(1 0 0 -1 0 17.5)" fill="white"/>
</clipPath>
</defs>
</svg>
