<svg width="210" height="210" viewBox="0 0 210 210" fill="none" xmlns="http://www.w3.org/2000/svg">
<g clip-path="url(#clip0_286_2166)">
<path d="M65.6248 -0.000488281H-0.000244141V65.6245H65.6248V-0.000488281ZM52.4998 52.4995H13.1248V13.1245H52.4998V52.4995Z" fill="#1D3A70"/>
<path d="M39.377 26.252H26.252V39.377H39.377V26.252Z" fill="#1D3A70"/>
<path d="M144.376 -0.000488281V65.6245H210.001V-0.000488281H144.376ZM196.876 52.4995H157.501V13.1245H196.876V52.4995Z" fill="#1D3A70"/>
<path d="M183.753 26.252H170.628V39.377H183.753V26.252Z" fill="#1D3A70"/>
<path d="M-0.000244141 209.999H65.6248V144.374H-0.000244141V209.999ZM13.1248 157.499H52.4998V196.874H13.1248V157.499Z" fill="#1D3A70"/>
<path d="M39.377 170.626H26.252V183.751H39.377V170.626Z" fill="#1D3A70"/>
<path d="M131.253 -0.000488281H105.003V13.1245H131.253V-0.000488281Z" fill="#1D3A70"/>
<path d="M105.003 52.5024H118.128V39.3774H131.253V26.2524H91.8777V13.1274H78.7527V26.2524V32.8149V39.3774H105.003V52.5024Z" fill="#1D3A70"/>
<path d="M91.8777 52.5H78.7527V65.625H91.8777V52.5Z" fill="#1D3A70"/>
<path d="M131.253 65.6265H118.128V78.7515H78.7527V91.8765H131.253V65.6265Z" fill="#1D3A70"/>
<path d="M13.1248 118.127H26.2498V105.002H13.1248V78.7524H-0.000244141V131.252H13.1248V118.127Z" fill="#1D3A70"/>
<path d="M39.3771 78.7524H26.2521V91.8774H39.3771V78.7524Z" fill="#1D3A70"/>
<path d="M78.7512 131.252H105.001V118.127H91.8762V105.002H65.6262V78.7524H52.5012V105.002H39.3762V131.252H52.5012V118.127H59.0637H65.6262H78.7512V131.252Z" fill="#1D3A70"/>
<path d="M131.25 104.999H118.125V131.249H131.25V104.999Z" fill="#1D3A70"/>
<path d="M118.128 144.374H78.7527V157.499H105.003V196.874H78.7527V209.999H118.128V196.874H144.378V183.749H118.128V144.374Z" fill="#1D3A70"/>
<path d="M91.8777 170.626H78.7527V183.751H91.8777V170.626Z" fill="#1D3A70"/>
<path d="M144.376 144.374H131.251V170.624H144.376V144.374Z" fill="#1D3A70"/>
<path d="M196.877 170.626H157.502V210.001H170.627V183.751H196.877V170.626Z" fill="#1D3A70"/>
<path d="M210 196.876H183.75V210.001H210V196.876Z" fill="#1D3A70"/>
<path d="M210.001 144.374H196.876V157.499H210.001V144.374Z" fill="#1D3A70"/>
<path d="M157.501 157.502H170.626V118.127H144.376V131.252H157.501V157.502Z" fill="#1D3A70"/>
<path d="M183.751 91.8774H170.626V78.7524H157.501V91.8774H144.376V105.002H196.876V91.8774H210.001V78.7524H183.751V91.8774Z" fill="#1D3A70"/>
<path d="M210 118.127H183.75V131.252H210V118.127Z" fill="#1D3A70"/>
</g>
<defs>
<clipPath id="clip0_286_2166">
<rect width="210" height="210" rx="12" fill="white"/>
</clipPath>
</defs>
</svg>
