<svg width="24" height="24" viewBox="0 0 24 24" fill="none" xmlns="http://www.w3.org/2000/svg">
<path d="M4.70176 1.57031C4.30332 1.67812 3.98457 1.86562 3.6752 2.175C3.35176 2.50312 3.17363 2.81719 3.07051 3.24375C2.96738 3.68906 2.96738 20.3109 3.07051 20.7562C3.2627 21.5719 3.89551 22.2141 4.71113 22.4297C4.95488 22.4906 5.85488 22.5 11.9861 22.5C16.9033 22.5 19.0549 22.4859 19.2283 22.4484C19.5283 22.3875 19.9783 22.1672 20.2033 21.9703C20.4705 21.7406 20.7424 21.3422 20.8642 21.0094L20.9767 20.6953V12V3.30469L20.8642 3C20.6674 2.46562 20.3017 2.03906 19.8283 1.78594C19.2611 1.48125 19.7158 1.5 11.9768 1.50469C6.07988 1.50469 4.90801 1.51875 4.70176 1.57031ZM19.1533 3.12187C19.2236 3.17344 19.3268 3.27656 19.3783 3.34687L19.4768 3.47344V12V20.5266L19.3783 20.6531C19.3268 20.7234 19.2236 20.8266 19.1533 20.8781C19.0268 20.9766 19.0221 20.9766 12.0096 20.9766H4.99238L4.83301 20.8641C4.74863 20.8031 4.63613 20.6672 4.58926 20.5594C4.50488 20.3766 4.50019 20.0578 4.50019 12C4.50019 3.94219 4.50488 3.62344 4.58926 3.44062C4.66894 3.2625 4.84238 3.09844 5.01582 3.03281C5.05332 3.01875 8.22207 3.00937 12.0564 3.01406C19.0127 3.02344 19.0268 3.02344 19.1533 3.12187Z" fill="#1D3A70"/>
<path d="M9.02344 6.85781C8.80781 6.97969 8.625 7.26562 8.625 7.49062C8.625 7.70156 8.77969 7.98281 8.9625 8.11875L9.11719 8.22656H12.0094C14.8547 8.22656 14.9015 8.22656 15.0281 8.12812C15.2344 7.97812 15.3375 7.80937 15.3609 7.58437C15.3937 7.3125 15.2906 7.07812 15.0656 6.90937L14.8922 6.77344L12.0516 6.76406L9.21094 6.75L9.02344 6.85781Z" fill="#1D3A70"/>
<path d="M9.05626 11.3297C8.97188 11.3719 8.84532 11.4797 8.77501 11.5688C8.59219 11.8078 8.59688 12.1969 8.77501 12.4313C9.02813 12.7641 8.90157 12.7547 12.0656 12.7406C14.8453 12.7266 14.9016 12.7266 15.0281 12.6281C15.2766 12.4453 15.3516 12.2953 15.3516 12C15.3516 11.7047 15.2766 11.5547 15.0281 11.3719C14.9016 11.2734 14.8453 11.2734 12.0563 11.2641C9.49219 11.25 9.19688 11.2594 9.05626 11.3297Z" fill="#1D3A70"/>
<path d="M9.05641 15.8297C8.54547 16.0828 8.49391 16.7813 8.96266 17.1188L9.11735 17.2266H12.0095C14.8548 17.2266 14.9017 17.2266 15.0283 17.1281C15.2767 16.9453 15.3517 16.7953 15.3517 16.5C15.3517 16.2047 15.2767 16.0547 15.0283 15.8719C14.9017 15.7734 14.8455 15.7734 12.0564 15.7641C9.49235 15.75 9.19704 15.7594 9.05641 15.8297Z" fill="#1D3A70"/>
</svg>
