<svg width="68" height="64" viewBox="0 0 68 64" fill="none" xmlns="http://www.w3.org/2000/svg">
<path fill-rule="evenodd" clip-rule="evenodd" d="M57.9026 24.4641C59.8949 29.0782 64.4639 32.8386 64.1035 37.8801C63.7186 43.2628 61.3415 50.035 55.9353 51.9792C50.0819 54.0842 44.8734 47.3046 38.6994 47.0159C34.2501 46.8078 30.4663 50.6651 26.0079 50.5795C19.9533 50.4634 10.7912 51.8 8.89965 46.4441C6.80283 40.5069 16.4448 36.0241 18.7424 30.007C20.0882 26.4828 17.9937 22.6443 19.334 19.1184C20.9479 14.8725 22.4247 8.80934 27.1126 7.98716C32.2204 7.0913 34.6852 14.5789 39.7091 15.5449C44.2887 16.4255 49.2618 11.0201 53.3769 13.0375C57.2759 14.9489 56.2442 20.6232 57.9026 24.4641Z" fill="#E7EEFB"/>
<rect x="21" y="15" width="34" height="34" rx="10" fill="#1D3A70"/>
<path d="M44.1389 20.2222H32.8611C32.4338 20.2222 32.024 20.3919 31.7219 20.6941C31.4197 20.9962 31.25 21.406 31.25 21.8333V41.1666C31.25 41.5939 31.4197 42.0037 31.7219 42.3058C32.024 42.608 32.4338 42.7777 32.8611 42.7777H44.1389C44.5662 42.7777 44.976 42.608 45.2781 42.3058C45.5803 42.0037 45.75 41.5939 45.75 41.1666V21.8333C45.75 21.406 45.5803 20.9962 45.2781 20.6941C44.976 20.3919 44.5662 20.2222 44.1389 20.2222ZM39.3056 41.1666H37.6944V39.5555H39.3056V41.1666ZM32.8611 37.9444V21.8333H44.1389V37.9444H32.8611Z" fill="white"/>
<g clip-path="url(#clip0_611_2207)">
<path d="M35.7812 32.9097C35.7812 32.9097 35.2778 32.9097 35.2778 32.4062C35.2778 31.9028 35.7812 30.3923 38.2986 30.3923C40.816 30.3923 41.3194 31.9028 41.3194 32.4062C41.3194 32.9097 40.816 32.9097 40.816 32.9097H35.7812ZM38.2986 29.8889C38.6992 29.8889 39.0834 29.7297 39.3666 29.4465C39.6499 29.1632 39.809 28.779 39.809 28.3785C39.809 27.9779 39.6499 27.5937 39.3666 27.3104C39.0834 27.0272 38.6992 26.868 38.2986 26.868C37.898 26.868 37.5138 27.0272 37.2306 27.3104C36.9473 27.5937 36.7882 27.9779 36.7882 28.3785C36.7882 28.779 36.9473 29.1632 37.2306 29.4465C37.5138 29.7297 37.898 29.8889 38.2986 29.8889Z" fill="white"/>
<path fill-rule="evenodd" clip-rule="evenodd" d="M42.0746 28.3784C42.1414 28.3784 42.2054 28.4049 42.2526 28.4521C42.2999 28.4994 42.3264 28.5634 42.3264 28.6302V29.3854H43.0816C43.1484 29.3854 43.2124 29.4119 43.2596 29.4591C43.3068 29.5063 43.3333 29.5703 43.3333 29.6371C43.3333 29.7039 43.3068 29.7679 43.2596 29.8151C43.2124 29.8623 43.1484 29.8888 43.0816 29.8888H42.3264V30.644C42.3264 30.7108 42.2999 30.7748 42.2526 30.822C42.2054 30.8693 42.1414 30.8958 42.0746 30.8958C42.0079 30.8958 41.9438 30.8693 41.8966 30.822C41.8494 30.7748 41.8229 30.7108 41.8229 30.644V29.8888H41.0677C41.0009 29.8888 40.9369 29.8623 40.8897 29.8151C40.8425 29.7679 40.816 29.7039 40.816 29.6371C40.816 29.5703 40.8425 29.5063 40.8897 29.4591C40.9369 29.4119 41.0009 29.3854 41.0677 29.3854H41.8229V28.6302C41.8229 28.5634 41.8494 28.4994 41.8966 28.4521C41.9438 28.4049 42.0079 28.3784 42.0746 28.3784Z" fill="white"/>
</g>
<defs>
<clipPath id="clip0_611_2207">
<rect width="8.05556" height="8.05556" fill="white" transform="translate(35.2778 25.8611)"/>
</clipPath>
</defs>
</svg>
