<svg width="30" height="25" viewBox="0 0 30 25" fill="none" xmlns="http://www.w3.org/2000/svg">
<path d="M20.4024 21.9115L14.9118 22.5151L9.47681 21.9115C12.0476 21.9115 12.9494 20.071 13.1251 17.636C13.1486 17.3137 13.1589 16.9811 13.1589 16.6412V16.4113C13.7287 16.5338 14.3414 16.5996 14.9999 16.5996C15.635 16.5996 16.2277 16.5386 16.7806 16.4245V16.6412C16.7806 16.9853 16.7903 17.3221 16.8132 17.6481C16.9798 20.077 17.8358 21.9115 20.4024 21.9115Z" fill="#FAD207"/>
<path d="M30.0001 6.12675C30.0001 10.6032 26.3579 14.2455 21.8814 14.2455H20.7043C21.2325 13.6992 21.6858 13.0841 22.0752 12.4316C25.1591 12.338 27.6931 10.0207 28.1247 7.03218H24.0146C24.142 6.37483 24.2319 5.76035 24.2953 5.22131H29.0947C29.5945 5.22131 30.0001 5.62695 30.0001 6.12675Z" fill="#FAD207"/>
<path d="M23.5764 12.2034C23.4291 12.4962 23.274 12.7787 23.1116 13.0503C22.8611 13.4704 22.5919 13.8664 22.3064 14.234C22.1657 14.2419 22.0239 14.2455 21.8814 14.2455H20.7043L20.8382 13.3784L22.0751 12.4316C22.0752 12.4316 23.0965 12.3374 23.5764 12.2034Z" fill="#FAD207"/>
<path d="M25.5103 5.22131C25.5048 5.26779 25.4994 5.31487 25.494 5.36256C25.4276 5.92514 25.3437 6.4859 25.2429 7.03218H24.0145L23.5684 6.12674L24.2951 5.22131H25.5103Z" fill="#FAD207"/>
<path d="M29.9999 6.12675C29.9999 10.4607 26.5858 14.0125 22.3062 14.234C22.5917 13.8664 22.8609 13.4704 23.1114 13.0503C23.2738 12.7787 23.4289 12.4962 23.5762 12.2034C25.9514 11.54 27.7653 9.5185 28.1245 7.03218H25.2428C25.3436 6.4859 25.4275 5.92514 25.4939 5.36256C25.4993 5.31487 25.5047 5.26779 25.5102 5.22131H29.0945C29.5943 5.22131 29.9999 5.62695 29.9999 6.12675Z" fill="#FAD207"/>
<path d="M9.29577 14.2455H8.11871C3.64225 14.2455 0 10.6032 0 6.12675C0 5.62695 0.405634 5.22131 0.905433 5.22131H5.70483C5.76821 5.76035 5.85815 6.37483 5.98551 7.03218H1.87545C2.30704 10.0207 4.84105 12.338 7.92495 12.4316C8.31429 13.0841 8.76761 13.6992 9.29577 14.2455Z" fill="#FAD207"/>
<path d="M22.0966 21.4228H7.9046C7.42225 21.4228 7.03125 21.7367 7.03125 22.1241V23.4915C7.03125 23.8788 7.42225 24.1928 7.9046 24.1928H22.0966C22.5789 24.1928 22.9699 23.8788 22.9699 23.4915V22.1241C22.9699 21.7367 22.5789 21.4228 22.0966 21.4228Z" fill="#FAD207"/>
<path d="M24.4467 3.07849C24.4467 3.07849 24.4467 3.53724 24.3875 4.28573C24.3658 4.56099 24.3356 4.87608 24.2952 5.22135C24.2318 5.76038 24.1419 6.37487 24.0145 7.03221C23.6837 8.72899 23.1018 10.7119 22.0751 12.4316C21.6857 13.0841 21.2324 13.6992 20.7042 14.2455C19.6938 15.291 18.4105 16.0877 16.7807 16.4246C16.2278 16.5387 15.635 16.5996 15 16.5996C14.3415 16.5996 13.7288 16.5338 13.159 16.4113C11.5582 16.0684 10.2942 15.2783 9.2958 14.2455C8.76763 13.6992 8.31431 13.0841 7.92497 12.4316C6.89821 10.7119 6.31632 8.72899 5.98554 7.03221C5.85817 6.37487 5.76823 5.76038 5.70485 5.22135C5.66441 4.87608 5.63423 4.56099 5.6125 4.28573C5.55334 3.53724 5.55334 3.07849 5.55334 3.07849H24.4467Z" fill="#FAD207"/>
<path d="M24.4467 3.07847L14.5 3L6.76059 3.07847H5.55334C5.55334 3.07847 5.55334 3.53723 5.6125 4.28572C5.63423 4.56097 5.66441 4.87606 5.70485 5.22133C5.76823 5.76036 5.85817 6.37485 5.98554 7.03219C6.31632 8.72897 6.89821 10.7119 7.92497 12.4316C8.31431 13.0841 8.76763 13.6992 9.2958 14.2455C10.2942 15.2783 11.5582 16.0684 13.159 16.4113C13.7288 16.5338 14.3415 16.5996 15 16.5996C15.2053 16.5996 15.4057 16.5936 15.6018 16.5809C15.169 16.5531 14.7574 16.4952 14.3662 16.4113C12.7654 16.0684 11.5014 15.2783 10.503 14.2455C9.97487 13.6992 9.52155 13.0841 9.13222 12.4316C8.10546 10.7119 7.52357 8.72897 7.19278 7.03219C7.06542 6.37485 6.97548 5.76036 6.9121 5.22133C6.91167 5.21789 6.91131 5.21445 6.91089 5.21101C6.85336 4.71803 7.23992 4.28572 7.73622 4.28572H24.3875C24.4467 3.53723 24.4467 3.07847 24.4467 3.07847Z" fill="#FAA515"/>
<path d="M5.52312 0H24.4768C25.3269 0 26.0161 0.689155 26.0161 1.53924C26.0161 2.38932 25.3269 3.07847 24.4768 3.07847H5.52312C4.67304 3.07847 3.98389 2.38932 3.98389 1.53924C3.98389 0.689155 4.67304 0 5.52312 0Z" fill="#FAD207"/>
</svg>
