<svg width="68" height="64" viewBox="0 0 68 64" fill="none" xmlns="http://www.w3.org/2000/svg">
<path fill-rule="evenodd" clip-rule="evenodd" d="M57.9026 24.4641C59.8949 29.0782 64.4639 32.8386 64.1035 37.8801C63.7186 43.2628 61.3415 50.035 55.9353 51.9792C50.0819 54.0842 44.8734 47.3046 38.6994 47.0159C34.2501 46.8078 30.4663 50.6651 26.0079 50.5795C19.9533 50.4634 10.7912 51.8 8.89965 46.4441C6.80283 40.5069 16.4448 36.0241 18.7424 30.007C20.0882 26.4828 17.9937 22.6443 19.334 19.1184C20.9479 14.8725 22.4247 8.80934 27.1126 7.98716C32.2204 7.0913 34.6852 14.5789 39.7091 15.5449C44.2887 16.4255 49.2618 11.0201 53.3769 13.0375C57.2759 14.9489 56.2442 20.6232 57.9026 24.4641Z" fill="#E7EEFB"/>
<rect x="21" y="15" width="34" height="34" rx="10" fill="#1D3A70"/>
<path d="M38 35C41.866 35 45 31.866 45 28C45 24.134 41.866 21 38 21C34.134 21 31 24.134 31 28C31 31.866 34.134 35 38 35Z" stroke="white" stroke-width="2" stroke-linecap="round" stroke-linejoin="round"/>
<path d="M34.21 33.89L33 43L38 40L43 43L41.79 33.88" stroke="white" stroke-width="2" stroke-linecap="round" stroke-linejoin="round"/>
<mask id="path-6-inside-1_611_2205" fill="white">
<path d="M38 24L38.8981 26.7639H41.8042L39.4531 28.4721L40.3511 31.2361L38 29.5279L35.6489 31.2361L36.5469 28.4721L34.1958 26.7639H37.1019L38 24Z"/>
</mask>
<path d="M38 24L38.8981 26.7639H41.8042L39.4531 28.4721L40.3511 31.2361L38 29.5279L35.6489 31.2361L36.5469 28.4721L34.1958 26.7639H37.1019L38 24Z" fill="#C4C4C4"/>
<path d="M38 24L40.8532 23.0729L38 14.2918L35.1468 23.0729L38 24ZM38.8981 26.7639L36.0449 27.691L36.7184 29.7639H38.8981V26.7639ZM41.8042 26.7639L43.5676 29.191L51.0373 23.7639H41.8042V26.7639ZM39.4531 28.4721L37.6897 26.0451L35.9264 27.3262L36.5999 29.3992L39.4531 28.4721ZM40.3511 31.2361L38.5878 33.6631L46.0575 39.0902L43.2043 30.309L40.3511 31.2361ZM38 29.5279L39.7634 27.1008L38 25.8197L36.2366 27.1008L38 29.5279ZM35.6489 31.2361L32.7957 30.309L29.9425 39.0902L37.4122 33.6631L35.6489 31.2361ZM36.5469 28.4721L39.4001 29.3992L40.0736 27.3262L38.3103 26.0451L36.5469 28.4721ZM34.1958 26.7639V23.7639H24.9627L32.4324 29.191L34.1958 26.7639ZM37.1019 26.7639V29.7639H39.2816L39.9551 27.691L37.1019 26.7639ZM35.1468 24.9271L36.0449 27.691L41.7512 25.8369L40.8532 23.0729L35.1468 24.9271ZM38.8981 29.7639H41.8042V23.7639H38.8981V29.7639ZM40.0409 24.3369L37.6897 26.0451L41.2164 30.8992L43.5676 29.191L40.0409 24.3369ZM36.5999 29.3992L37.498 32.1631L43.2043 30.309L42.3063 27.5451L36.5999 29.3992ZM42.1145 28.809L39.7634 27.1008L36.2366 31.9549L38.5878 33.6631L42.1145 28.809ZM36.2366 27.1008L33.8855 28.809L37.4122 33.6631L39.7634 31.9549L36.2366 27.1008ZM38.502 32.1631L39.4001 29.3992L33.6937 27.5451L32.7957 30.309L38.502 32.1631ZM38.3103 26.0451L35.9591 24.3369L32.4324 29.191L34.7836 30.8992L38.3103 26.0451ZM34.1958 29.7639H37.1019V23.7639H34.1958V29.7639ZM39.9551 27.691L40.8532 24.9271L35.1468 23.0729L34.2488 25.8369L39.9551 27.691Z" fill="white" mask="url(#path-6-inside-1_611_2205)"/>
</svg>
