<svg width="53" height="53" viewBox="0 0 53 53" fill="none" xmlns="http://www.w3.org/2000/svg">
<g clip-path="url(#clip0_308_2034)">
<path d="M30.5101 52.2651C44.8478 49.9382 54.5844 36.4288 52.2575 22.0911C49.9306 7.75338 36.4212 -1.98329 22.0835 0.343625C7.74582 2.67054 -1.99086 16.1799 0.336063 30.5176C2.66298 44.8553 16.1723 54.592 30.5101 52.2651Z" fill="#D6F8EC"/>
<path d="M40.6573 20.9497L12.2573 21.0505L12.3429 45.1505L40.7429 45.0497L40.6573 20.9497Z" fill="#FDFDFD"/>
<path d="M40.5873 20.95L12.1873 21.0508L12.2128 28.2508L40.6128 28.15L40.5873 20.95Z" fill="#DEE1E2"/>
<path d="M20.4997 26.1C21.3997 26.1 21.3997 24.7 20.4997 24.7C19.5997 24.7 19.5997 26.1 20.4997 26.1Z" fill="#59BD8B"/>
<path d="M15.4997 38.4999C16.3997 38.4999 16.3997 37.0999 15.4997 37.0999C14.6997 37.0999 14.6997 38.4999 15.4997 38.4999Z" fill="#305C66"/>
<path d="M15.2998 30.4C16.1998 30.4 16.1998 29 15.2998 29C14.3998 29 14.3998 30.4 15.2998 30.4Z" fill="#305C66"/>
<path d="M21.3999 35.4999C22.2999 35.4999 22.2999 34.0999 21.3999 34.0999C20.4999 34.0999 20.4999 35.4999 21.3999 35.4999Z" fill="#305C66"/>
<path d="M20.9997 42.9C21.8997 42.9 21.8997 41.5 20.9997 41.5C20.0997 41.6 20.0997 42.9 20.9997 42.9Z" fill="#305C66"/>
<path d="M25.6997 30.2001C26.5997 30.2001 26.5997 28.8 25.6997 28.8C24.7997 28.9 24.7997 30.2001 25.6997 30.2001Z" fill="#305C66"/>
<path d="M26.2998 39.7001C27.1998 39.7001 27.1998 38.3 26.2998 38.3C25.3998 38.3 25.3998 39.7001 26.2998 39.7001Z" fill="#305C66"/>
<path d="M32.6997 26.6C33.5997 26.6 33.5997 25.2 32.6997 25.2C31.7997 25.3 31.7997 26.6 32.6997 26.6Z" fill="#305C66"/>
<path d="M32.8999 33.7001C33.7999 33.7001 33.7999 32.3 32.8999 32.3C31.9999 32.3 31.9999 33.7001 32.8999 33.7001Z" fill="#305C66"/>
<path d="M33.0998 42.2001C33.9998 42.2001 33.9998 40.8 33.0998 40.8C32.2998 40.8 32.2998 42.2001 33.0998 42.2001Z" fill="#305C66"/>
<path d="M37.8999 38.7001C38.7999 38.7001 38.7999 37.3 37.8999 37.3C36.9999 37.3 36.9999 38.7001 37.8999 38.7001Z" fill="#305C66"/>
<path d="M38.2998 29.7001C39.1998 29.7001 39.1998 28.3 38.2998 28.3C37.3998 28.3 37.3998 29.7001 38.2998 29.7001Z" fill="#305C66"/>
<path d="M42.8869 18.4413L9.78687 18.5588L9.81313 25.9588L42.9131 25.8413L42.8869 18.4413Z" fill="#FDFDFD"/>
<path d="M29.7492 17.2894L23.6492 17.311L23.7508 45.911L29.8508 45.8894L29.7492 17.2894Z" fill="#73C5A8"/>
<path d="M27.1998 17.9C27.1998 17.9 23.8998 4.80001 21.1998 7.00001C18.4998 9.20001 19.6998 12.2 19.6998 12.2C19.6998 12.2 14.6998 12.5 16.4998 14.9C18.2998 17.3 27.1998 17.9 27.1998 17.9Z" fill="#73C5A8"/>
<path d="M26.8997 18.7999C26.8997 18.7999 37.0997 12.9999 34.6997 11.2999C32.2997 9.5999 29.9997 11.1999 29.9997 11.1999C29.9997 11.1999 28.5997 7.0999 26.9997 9.1999C25.3997 11.1999 26.8997 18.7999 26.8997 18.7999Z" fill="#73C5A8"/>
<path d="M19.5998 15.2999C20.4998 15.2999 20.4998 13.8999 19.5998 13.8999C18.6998 13.9999 18.6998 15.2999 19.5998 15.2999Z" fill="#FDFDFD"/>
<path d="M23.2998 15.7999C24.1998 15.7999 24.1998 14.3999 23.2998 14.3999C22.3998 14.4999 22.3998 15.7999 23.2998 15.7999Z" fill="#FDFDFD"/>
<path d="M21.7998 10.7999C22.6998 10.7999 22.6998 9.3999 21.7998 9.3999C20.8998 9.3999 20.8998 10.7999 21.7998 10.7999Z" fill="#FDFDFD"/>
<path d="M28.9997 13.1C29.8997 13.1 29.8997 11.7 28.9997 11.7C28.0997 11.7 28.0997 13.1 28.9997 13.1Z" fill="#FDFDFD"/>
<path d="M28.5998 16.2999C29.4998 16.2999 29.4998 14.8999 28.5998 14.8999C27.6998 14.8999 27.6998 16.2999 28.5998 16.2999Z" fill="#FDFDFD"/>
<path d="M32.3999 14.0001C33.2999 14.0001 33.2999 12.6001 32.3999 12.6001C31.4999 12.6001 31.4999 14.0001 32.3999 14.0001Z" fill="#FDFDFD"/>
<path d="M26.6999 20.7999C27.5999 20.7999 27.5999 19.3999 26.6999 19.3999C25.7999 19.4999 25.7999 20.7999 26.6999 20.7999Z" fill="#FDFDFD"/>
<path d="M27.8999 28.7999C28.7999 28.7999 28.7999 27.3999 27.8999 27.3999C26.9999 27.3999 26.9999 28.7999 27.8999 28.7999Z" fill="#FDFDFD"/>
<path d="M25.1998 34.0001C26.0998 34.0001 26.0998 32.6001 25.1998 32.6001C24.3998 32.6001 24.2998 34.0001 25.1998 34.0001Z" fill="#FDFDFD"/>
<path d="M28.2998 42.0001C29.1998 42.0001 29.1998 40.6001 28.2998 40.6001C27.3998 40.6001 27.3998 42.0001 28.2998 42.0001Z" fill="#FDFDFD"/>
</g>
<defs>
<clipPath id="clip0_308_2034">
<rect width="52.7" height="52.7" fill="white"/>
</clipPath>
</defs>
</svg>
