<svg width="20" height="20" viewBox="0 0 20 20" fill="none" xmlns="http://www.w3.org/2000/svg">
<path d="M3.33337 5.83325V4.99992C3.33337 4.55789 3.50897 4.13397 3.82153 3.82141C4.13409 3.50885 4.55801 3.33325 5.00004 3.33325H6.66671" stroke="#1D3A70" stroke-width="2" stroke-linecap="round" stroke-linejoin="round"/>
<path d="M3.33337 14.1665V14.9998C3.33337 15.4419 3.50897 15.8658 3.82153 16.1783C4.13409 16.4909 4.55801 16.6665 5.00004 16.6665H6.66671" stroke="#1D3A70" stroke-width="2" stroke-linecap="round" stroke-linejoin="round"/>
<path d="M13.3334 3.33325H15C15.4421 3.33325 15.866 3.50885 16.1786 3.82141C16.4911 4.13397 16.6667 4.55789 16.6667 4.99992V5.83325" stroke="#1D3A70" stroke-width="2" stroke-linecap="round" stroke-linejoin="round"/>
<path d="M13.3334 16.6665H15C15.4421 16.6665 15.866 16.4909 16.1786 16.1783C16.4911 15.8658 16.6667 15.4419 16.6667 14.9998V14.1665" stroke="#1D3A70" stroke-width="2" stroke-linecap="round" stroke-linejoin="round"/>
<path d="M4.16675 10H15.8334" stroke="#1D3A70" stroke-width="2" stroke-linecap="round" stroke-linejoin="round"/>
</svg>
