<svg width="32" height="32" viewBox="0 0 32 32" fill="none" xmlns="http://www.w3.org/2000/svg">
<path d="M9.18666 3.66667H3.66666V9.18667L9.18666 3.66667ZM28.3333 9.18667V3.66667H22.8133L28.3333 9.18667ZM22.8133 28.3333H28.3333V22.8133L22.8133 28.3333ZM7.03332 17.6067V24.94H14.3667V17.6067H7.03332V17.6067ZM9.17999 19.7533H12.2467V22.82H9.17999V19.7533ZM7.03332 7.03334V14.3667H14.3667V7.03334H7.03332ZM9.17999 9.18001H12.2467V12.2467H9.17999V9.18001ZM17.6067 7.03334V14.3667H24.94V7.03334H17.6067ZM19.7533 9.18001H22.82V12.2467H19.7533V9.18001ZM21.2867 24.9667C22.2013 24.7942 23.0229 24.297 23.6 23.5667C24.5171 22.5116 25.0049 21.1508 24.9667 19.7533V17.6067H17.6333V19.7533C17.5964 21.1506 18.084 22.511 19 23.5667C19.5704 24.2916 20.3816 24.7882 21.2867 24.9667V24.9667Z" stroke="white" stroke-width="1.09375" stroke-linecap="round" stroke-linejoin="round"/>
<path d="M3.66666 22.8133V28.3333H9.18666M21.2867 22.82C21.0248 22.6581 20.7831 22.4657 20.5667 22.2467C19.9917 21.5474 19.7013 20.6572 19.7533 19.7533H22.82C22.8702 20.658 22.5774 21.5484 22 22.2467C21.7836 22.4657 21.5419 22.6581 21.28 22.82H21.2867Z" stroke="white" stroke-width="1.09375" stroke-linecap="round" stroke-linejoin="round"/>
</svg>
