<svg width="43" height="27" viewBox="0 0 43 27" fill="none" xmlns="http://www.w3.org/2000/svg">
<path d="M13.2308 13.2308C15.6674 13.2308 17.641 11.2572 17.641 8.8205C17.641 6.38384 15.6674 4.41025 13.2308 4.41025C10.7941 4.41025 8.8205 6.38384 8.8205 8.8205C8.8205 11.2572 10.7941 13.2308 13.2308 13.2308ZM13.2308 15.4359C10.2869 15.4359 4.41025 16.9133 4.41025 19.8461V22.0513H22.0513V19.8461C22.0513 16.9133 16.1746 15.4359 13.2308 15.4359Z" fill="white"/>
<path d="M34.1795 18.7546V11.0256H31.9743V18.7546H28.6667L33.0769 23.1538L37.4872 18.7546H34.1795ZM26.4615 3.30768L22.0513 7.70691H25.359V15.4359H27.5641V7.70691H30.8718L26.4615 3.30768Z" fill="white"/>
</svg>
