<svg width="24" height="24" viewBox="0 0 24 24" fill="none" xmlns="http://www.w3.org/2000/svg">
<path d="M2.11875 0.140627C1.60781 0.276564 1.24219 0.487501 0.84375 0.890627C0.435938 1.29375 0.229688 1.65469 0.09375 2.18438C0 2.53594 0 2.72813 0 9.91406C0 17.1 0 17.2922 0.09375 17.6438C0.229688 18.1734 0.435938 18.5344 0.84375 18.9375C1.24688 19.3453 1.60781 19.5516 2.1375 19.6875C2.47969 19.7766 2.67188 19.7813 5.59688 19.7813L8.69531 19.7859L10.3359 21.8906C11.2406 23.0484 11.9906 24 12.0047 24C12.0188 24 12.7547 23.0531 13.6453 21.8953L15.2578 19.7859H18.3797C21.3281 19.7813 21.5203 19.7766 21.8625 19.6875C22.3922 19.5516 22.7531 19.3453 23.1562 18.9375C23.5641 18.5344 23.7703 18.1734 23.9062 17.6438C24 17.2922 24 17.1 24 9.91406C24 2.72813 24 2.53594 23.9062 2.18438C23.7703 1.65469 23.5641 1.29375 23.1562 0.890627C22.7531 0.482815 22.3922 0.276564 21.8625 0.140627C21.5063 0.0468769 21.3141 0.0468769 11.9813 0.0515633C2.76094 0.0515633 2.45156 0.0562515 2.11875 0.140627ZM21.6703 2.05781C21.7688 2.11875 21.9047 2.25469 21.975 2.35781L22.1016 2.55V9.91406V17.2781L21.975 17.4703C21.9047 17.5734 21.7688 17.7094 21.6703 17.7703L21.4922 17.8828L17.9203 17.8969L14.3484 17.9063L13.1859 19.4297C12.5484 20.2641 12.0094 20.9438 11.9906 20.9391C11.9719 20.9344 11.4281 20.25 10.7812 19.4203L9.6 17.9063L6.05156 17.8969L2.50313 17.8828L2.31094 17.7563C2.20781 17.6859 2.07188 17.55 2.01094 17.4516L1.89844 17.2734L1.88438 10.0172C1.87969 4.99219 1.88906 2.7 1.92188 2.57344C1.98281 2.34844 2.27813 2.03438 2.49375 1.97344C2.59219 1.94531 6.21094 1.93125 12.0703 1.93594L21.4922 1.94531L21.6703 2.05781Z" fill="#1D3A70"/>
<path d="M11.7703 4.20469C11.3578 4.35 11.0156 4.84219 11.0156 5.29688C11.0156 5.57813 11.1562 5.90625 11.3672 6.11719C11.9156 6.66563 12.8109 6.54375 13.2047 5.86875C13.3172 5.68125 13.3359 5.59688 13.3359 5.29688C13.3359 4.99688 13.3172 4.9125 13.2047 4.725C12.9094 4.21875 12.3281 4.00782 11.7703 4.20469Z" fill="#1D3A70"/>
<path d="M10.2 7.94531C10.0734 7.98281 9.75 8.11406 9.48281 8.24532L9 8.47969L9.39844 9.29063C9.61875 9.73594 9.81563 10.1063 9.83906 10.1156C9.85781 10.1203 10.0594 10.0406 10.2844 9.9375C10.5141 9.83438 10.7484 9.75 10.8094 9.75C10.9594 9.75 11.1562 9.94688 11.1562 10.1016C11.1562 10.1672 10.9828 10.8984 10.7766 11.7328C10.4484 13.0219 10.3922 13.2984 10.3969 13.6172C10.4016 14.4609 10.8797 15.2109 11.6484 15.5906C12.3469 15.9375 12.9797 15.9188 13.7953 15.5297C14.0438 15.4078 14.25 15.2953 14.25 15.2719C14.25 15.2297 13.5141 13.6875 13.4766 13.65C13.4625 13.6359 13.2844 13.7063 13.0781 13.8C12.6938 13.9828 12.5438 13.9922 12.3844 13.8609C12.2203 13.725 12.2344 13.6219 12.6328 12.0375C13.0594 10.3688 13.0969 10.0734 12.9656 9.58594C12.7547 8.78906 12.1172 8.15625 11.3203 7.94531C10.9875 7.86094 10.5141 7.86094 10.2 7.94531Z" fill="#1D3A70"/>
</svg>
