<svg width="22" height="22" viewBox="0 0 22 22" fill="none" xmlns="http://www.w3.org/2000/svg">
<path d="M6.70138 0.570297C5.87639 0.795298 5.21545 1.48436 5.0467 2.29999C5.01389 2.45936 4.99982 2.9328 5.0092 3.54218C5.02326 4.6203 5.03264 4.64374 5.3467 4.87811C5.52951 5.01405 5.97014 5.01405 6.15295 4.87811C6.46701 4.64374 6.47638 4.6203 6.49982 3.49999C6.52326 2.37967 6.53263 2.35624 6.8467 2.12186C6.97326 2.02342 7.01545 2.02342 11.2389 2.00936L15.4998 1.99999V3.25624C15.4998 4.64374 15.5279 4.8453 15.7858 5.3328C15.9639 5.66093 16.3764 6.06874 16.7092 6.23749C17.1732 6.47186 17.3842 6.49999 18.7436 6.49999H19.9998L19.9904 13.0109C19.9764 19.5078 19.9764 19.5266 19.8779 19.6531C19.8264 19.7234 19.7232 19.8266 19.6529 19.8781C19.5264 19.9766 19.4795 19.9766 14.7498 20C10.0201 20.0234 9.97326 20.0234 9.84669 20.1219C9.59826 20.3047 9.52326 20.4547 9.52326 20.75C9.52326 21.0453 9.59826 21.1953 9.84669 21.3781C9.97326 21.4766 10.0108 21.4766 14.717 21.4906C18.0029 21.5 19.5357 21.4859 19.7092 21.4484C20.3139 21.3266 20.9607 20.8344 21.2373 20.2906C21.5139 19.7469 21.4998 20.1313 21.4998 12.5656C21.4998 7.84062 21.4857 5.57186 21.4529 5.4828C21.3873 5.30936 16.7373 0.649986 16.5451 0.565611C16.3201 0.467173 7.06232 0.471861 6.70138 0.570297ZM18.3264 4.99061C17.6045 5.00936 17.4686 4.98593 17.2764 4.82655C17.0373 4.62499 16.9998 4.4703 16.9998 3.72499V3.05467L17.9607 4.01561L18.9217 4.97655L18.3264 4.99061Z" fill="#1D3A70"/>
<path d="M9.19546 5.06564C8.8814 5.20157 8.70327 5.56251 8.7689 5.91407C8.81109 6.13439 9.04546 6.3922 9.2564 6.45314C9.37358 6.49064 10.1189 6.50001 11.4783 6.49064C13.4611 6.47657 13.5267 6.47189 13.6533 6.37814C13.9017 6.19532 13.9767 6.04532 13.9767 5.75001C13.9767 5.4547 13.9017 5.3047 13.6533 5.12189C13.5267 5.02814 13.4658 5.02345 11.4314 5.01407C9.76265 5.0047 9.30796 5.01407 9.19546 5.06564Z" fill="#1D3A70"/>
<path d="M4.1796 6.56562C3.24679 6.74844 2.46398 7.17031 1.80773 7.84531C1.19835 8.46875 0.818666 9.15312 0.607728 10.0062C0.481165 10.5078 0.495228 11.5672 0.631165 12.0781C0.832728 12.8234 1.22648 13.5359 1.73273 14.075L1.99992 14.3656V17.6328C1.99992 21.2516 1.98585 21.0969 2.3046 21.3359C2.48273 21.4766 2.68898 21.5234 2.92335 21.4766C3.07335 21.4484 3.2421 21.3078 4.05304 20.5016L4.99992 19.5594L5.95148 20.5016C6.75773 21.3078 6.92648 21.4484 7.07648 21.4766C7.31085 21.5234 7.51711 21.4766 7.69523 21.3359C8.01398 21.0969 7.99992 21.2516 7.99992 17.6328V14.3656L8.27179 14.075C9.41086 12.8516 9.78586 11.1219 9.24679 9.53281C9.01711 8.8625 8.71711 8.38906 8.16398 7.83125C7.52648 7.18906 6.95461 6.85625 6.0546 6.61719C5.66554 6.51406 4.60617 6.48125 4.1796 6.56562ZM5.62804 8.07031C6.98273 8.35625 7.99992 9.6125 7.99992 11C7.99992 12.6312 6.63117 14 4.99992 14C3.88898 14 2.80617 13.3297 2.33273 12.35C1.8921 11.4406 1.8921 10.5594 2.33273 9.65C2.90929 8.45469 4.30148 7.78906 5.62804 8.07031ZM3.93585 15.3687C4.24992 15.4531 4.44679 15.4719 4.99992 15.4719C5.55304 15.4719 5.74992 15.4531 6.06398 15.3687C6.27492 15.3125 6.45773 15.2656 6.47179 15.2656C6.48585 15.2656 6.49992 16.0906 6.49992 17.1031V18.9406L5.92804 18.3734C5.30929 17.7641 5.19679 17.7031 4.82648 17.7734C4.68117 17.7969 4.54054 17.9141 4.07648 18.3734L3.49992 18.9406V17.1031C3.49992 16.0906 3.51398 15.2656 3.52804 15.2656C3.5421 15.2656 3.72492 15.3125 3.93585 15.3687Z" fill="#1D3A70"/>
<path d="M11.4455 8.81564C11.1314 8.95157 10.9533 9.31251 11.0189 9.66407C11.0611 9.88439 11.2955 10.1422 11.5064 10.2031C11.6236 10.2406 12.7111 10.25 14.8533 10.2406C17.9705 10.2266 18.0267 10.2266 18.1533 10.1281C18.4017 9.94532 18.4767 9.79532 18.4767 9.50001C18.4767 9.2047 18.4017 9.0547 18.1533 8.87189C18.0267 8.77345 17.9751 8.77345 14.8064 8.76407C12.2001 8.7547 11.558 8.76407 11.4455 8.81564Z" fill="#1D3A70"/>
<path d="M11.4455 12.5657C11.1314 12.7016 10.9533 13.0625 11.0189 13.4141C11.0611 13.6344 11.2955 13.8922 11.5064 13.9531C11.6236 13.9906 12.7111 14 14.8533 13.9906C17.9705 13.9766 18.0267 13.9766 18.1533 13.8781C18.4017 13.6953 18.4767 13.5453 18.4767 13.25C18.4767 12.9547 18.4017 12.8047 18.1533 12.6219C18.0267 12.5235 17.9751 12.5235 14.8064 12.5141C12.2001 12.5047 11.558 12.5141 11.4455 12.5657Z" fill="#1D3A70"/>
<path d="M9.94546 16.3156C9.6314 16.4516 9.45327 16.8125 9.5189 17.1641C9.56109 17.3844 9.79546 17.6422 10.0064 17.7031C10.1236 17.7406 11.4361 17.75 14.1033 17.7406C17.9798 17.7266 18.0267 17.7266 18.1533 17.6281C18.4017 17.4453 18.4767 17.2953 18.4767 17C18.4767 16.7047 18.4017 16.5547 18.1533 16.3719C18.0267 16.2735 17.9845 16.2735 14.0564 16.2641C10.8267 16.2547 10.058 16.2641 9.94546 16.3156Z" fill="#1D3A70"/>
</svg>
