<svg width="35" height="35" viewBox="0 0 35 35" fill="none" xmlns="http://www.w3.org/2000/svg">
<g clip-path="url(#clip0_255_1868)">
<path d="M9.29671 0.109373C8.98909 0.246091 8.70198 0.512693 8.53792 0.833982C8.42854 1.05273 8.40803 1.2373 8.40803 2.1875V3.28125H7.49885C6.35725 3.28125 5.92659 3.35644 5.20198 3.69824C4.47053 4.04004 3.69124 4.79199 3.36311 5.46875C2.91194 6.40527 2.93928 5.47558 2.93928 19.1406C2.93928 32.8057 2.91194 31.876 3.36311 32.8125C3.69124 33.4893 4.47053 34.2412 5.20198 34.583C5.51643 34.7334 5.96077 34.8838 6.17952 34.9248C6.45979 34.9795 9.76155 35 16.8162 35C26.783 35 27.0633 34.9932 27.576 34.8633C28.328 34.6719 28.8748 34.3574 29.4285 33.8037C29.9822 33.25 30.2967 32.7031 30.4881 31.9512C30.6248 31.4385 30.6248 31.1514 30.6248 19.1406C30.6248 7.12988 30.6248 6.84277 30.4881 6.33008C30.2967 5.58496 29.9822 5.03125 29.4285 4.47754C28.5535 3.5957 27.6785 3.28125 26.0994 3.28125H25.1561V2.2832C25.1561 1.09375 25.0877 0.82031 24.7117 0.437498C24.0418 -0.232424 22.9276 -0.0888696 22.4422 0.738279C22.2576 1.0459 22.2508 1.10058 22.2235 2.16699L22.203 3.28125H20.2342H18.2655L18.2449 2.16699C18.2176 1.05957 18.2176 1.0459 18.0125 0.717771C17.7117 0.23242 17.2059 -0.0273461 16.659 0.0205054C16.1805 0.0615211 15.8045 0.287107 15.5379 0.697263C15.3533 0.977537 15.3465 1.00488 15.326 2.13281L15.2987 3.28125H13.2889H11.2791V2.20117C11.2791 1.30566 11.2586 1.08691 11.1492 0.85449C10.8211 0.150388 9.98713 -0.191409 9.29671 0.109373ZM18.2723 11.8945C18.4158 11.9902 18.6141 12.1885 18.7166 12.332C18.8807 12.5713 18.9012 12.667 18.9012 13.125C18.9012 13.583 18.8807 13.6787 18.7166 13.918C18.6141 14.0615 18.4158 14.2598 18.2723 14.3555L18.0194 14.5264L14.0203 14.5469C11.2586 14.5605 9.93245 14.5469 9.75471 14.4922C8.74299 14.1982 8.42171 12.8037 9.201 12.0928C9.65901 11.6758 9.42659 11.6895 13.9178 11.71L18.0194 11.7236L18.2723 11.8945ZM25.2518 17.582C25.6414 17.6982 26.0653 18.1426 26.1746 18.5459C26.3592 19.1953 26.0858 19.8789 25.5115 20.2139L25.1903 20.4053H17.4998H9.8094L9.48811 20.2139C8.91389 19.8789 8.64046 19.1885 8.81819 18.5391C8.91389 18.1768 9.38557 17.6709 9.72053 17.5752C10.0828 17.4727 24.8963 17.4795 25.2518 17.582ZM25.5115 23.5361C26.0858 23.8711 26.3592 24.5547 26.1746 25.2041C26.0653 25.6074 25.6414 26.0518 25.2518 26.168C24.8416 26.291 10.158 26.291 9.74788 26.168C9.19417 25.9971 8.74983 25.3613 8.74983 24.7324C8.74983 24.1719 9.28303 23.5156 9.85725 23.3789C9.9803 23.3447 13.4803 23.3311 17.6365 23.3311L25.1903 23.3447L25.5115 23.5361Z" fill="#1D3A70"/>
</g>
<defs>
<clipPath id="clip0_255_1868">
<rect width="35" height="35" fill="white"/>
</clipPath>
</defs>
</svg>
