<svg width="24" height="24" viewBox="0 0 24 24" fill="none" xmlns="http://www.w3.org/2000/svg">
<path d="M2.72812 0.0703054C1.69219 0.295305 0.80625 1.19062 0.585937 2.23124C0.525 2.50781 0.515625 3.78749 0.515625 10.9969C0.515625 19.2516 0.515625 19.4484 0.609375 19.8C0.740625 20.325 0.951562 20.6906 1.35937 21.0984C1.63594 21.3797 1.79531 21.4969 2.10937 21.6469C2.32969 21.75 2.62031 21.8578 2.75625 21.8859C2.925 21.9234 4.60312 21.9375 8.09531 21.9375H13.1812L13.6125 22.3453C14.4703 23.1656 15.375 23.6391 16.5469 23.8922C17.1 24.0094 18.2437 24.0094 18.7969 23.8922C21.2297 23.3719 23.0578 21.4687 23.4375 19.0547C23.5266 18.5109 23.5031 17.5687 23.3906 17.025C23.1516 15.8344 22.65 14.9062 21.7781 14.0344C20.9297 13.1812 19.9031 12.6281 18.7875 12.4219L18.4687 12.3656V7.48124C18.4687 4.31718 18.45 2.50312 18.4219 2.33437C18.2625 1.47187 17.6719 0.689055 16.8937 0.30468C16.2516 -0.0140696 16.5937 -7.0564e-06 9.46875 0.00468044C4.18594 0.00468044 2.97187 0.0187429 2.72812 0.0703054ZM16.2281 1.53749C16.5094 1.67812 16.7859 1.95468 16.9266 2.24062L17.0391 2.46093V7.40156V12.3469L16.6641 12.4078C15.4875 12.6 14.4328 13.1625 13.5469 14.0578C13.0031 14.6016 12.6984 15.0328 12.3937 15.6797C12.0047 16.4953 11.8453 17.2359 11.85 18.1875C11.85 18.9047 11.9578 19.5328 12.1875 20.1609L12.3234 20.5312L7.62656 20.5219L2.92969 20.5078L2.73281 20.4C2.42344 20.2359 2.21719 20.0297 2.07656 19.7437L1.94531 19.4766L1.93125 11.0859C1.92187 5.09531 1.93125 2.63437 1.96875 2.48437C2.08125 2.03437 2.47969 1.61249 2.925 1.47187C3.07969 1.42499 4.37344 1.41562 9.5625 1.42031L16.0078 1.42968L16.2281 1.53749ZM18.5859 13.8234C20.6203 14.2406 22.0781 16.0359 22.0828 18.1172C22.0875 19.0734 21.8625 19.8375 21.3609 20.5922C20.7422 21.5203 19.8422 22.1672 18.75 22.4578C18.1969 22.6078 17.1281 22.6078 16.5703 22.4578C15.8156 22.2562 15.0609 21.8203 14.5219 21.2719C12.7266 19.4484 12.8391 16.4859 14.775 14.8125C15.3656 14.3016 16.1812 13.9031 16.875 13.7859C17.3297 13.7109 18.1312 13.7297 18.5859 13.8234Z" fill="#1D3A70"/>
<path d="M3.75919 4.73437C3.52013 4.87969 3.41232 5.09062 3.43576 5.37187C3.45451 5.63437 3.55763 5.80312 3.77326 5.93906C3.90451 6.01875 4.06388 6.02344 6.21075 6.02344C8.35763 6.02344 8.517 6.01875 8.64825 5.93906C8.86388 5.80312 8.967 5.63437 8.98575 5.37187C9.00919 5.09062 8.90138 4.87969 8.66231 4.73437C8.51231 4.64531 8.41856 4.64062 6.21075 4.64062C4.00294 4.64062 3.90919 4.64531 3.75919 4.73437Z" fill="#1D3A70"/>
<path d="M10.3216 4.73437C9.88102 5.00156 9.87164 5.64844 10.3076 5.91562L10.4763 6.02344H12.7826C15.0467 6.02344 15.0888 6.02344 15.2201 5.925C15.6701 5.59219 15.6748 5.00625 15.2248 4.73437C15.0748 4.64531 14.981 4.64062 12.7732 4.64062C10.5654 4.64062 10.4716 4.64531 10.3216 4.73437Z" fill="#1D3A70"/>
<path d="M3.75919 7.54687C3.52013 7.69219 3.41232 7.90312 3.43576 8.18437C3.45451 8.44687 3.55763 8.61562 3.77326 8.75156C3.90451 8.83125 4.06388 8.83594 6.21075 8.83594C8.35763 8.83594 8.517 8.83125 8.64825 8.75156C8.86388 8.61562 8.967 8.44687 8.98575 8.18437C9.00919 7.90312 8.90138 7.69219 8.66231 7.54687C8.51231 7.45781 8.41856 7.45312 6.21075 7.45312C4.00294 7.45312 3.90919 7.45781 3.75919 7.54687Z" fill="#1D3A70"/>
<path d="M10.3216 7.54687C9.88102 7.81406 9.87164 8.46094 10.3076 8.72812L10.4763 8.83594H12.7826C15.0467 8.83594 15.0888 8.83594 15.2201 8.7375C15.6701 8.40469 15.6748 7.81875 15.2248 7.54687C15.0748 7.45781 14.981 7.45312 12.7732 7.45312C10.5654 7.45312 10.4716 7.45781 10.3216 7.54687Z" fill="#1D3A70"/>
<path d="M3.75919 10.3594C3.52013 10.5047 3.41232 10.7156 3.43576 10.9969C3.45451 11.2594 3.55763 11.4281 3.77326 11.5641C3.90451 11.6437 4.06388 11.6484 6.21076 11.6484H8.50764L8.67639 11.5406C9.11232 11.2734 9.10295 10.6266 8.66232 10.3594C8.51232 10.2703 8.41857 10.2656 6.21076 10.2656C4.00294 10.2656 3.90919 10.2703 3.75919 10.3594Z" fill="#1D3A70"/>
<path d="M10.3216 10.3594C9.88102 10.6266 9.87164 11.2734 10.3076 11.5406C10.467 11.6437 10.5279 11.6484 11.5966 11.6625C12.5529 11.6766 12.7498 11.6672 12.9232 11.6016C13.317 11.4516 13.4904 11.0531 13.3216 10.6687C13.1482 10.275 13.1013 10.2656 11.6951 10.2656C10.5607 10.2656 10.467 10.2703 10.3216 10.3594Z" fill="#1D3A70"/>
<path d="M3.75919 13.1719C3.52013 13.3172 3.41232 13.5281 3.43576 13.8094C3.45451 14.0719 3.55763 14.2406 3.77326 14.3766C3.90451 14.4562 4.06388 14.4609 6.21076 14.4609H8.50764L8.67639 14.3531C9.11232 14.0859 9.10295 13.4391 8.66232 13.1719C8.51232 13.0828 8.41857 13.0781 6.21076 13.0781C4.00294 13.0781 3.90919 13.0828 3.75919 13.1719Z" fill="#1D3A70"/>
<path d="M3.75919 16.0312C3.52013 16.1766 3.41232 16.3875 3.43576 16.6687C3.45451 16.9312 3.55763 17.1 3.77326 17.2359C3.90451 17.3156 4.06388 17.3203 6.21076 17.3203H8.50764L8.67639 17.2125C9.11232 16.9453 9.10295 16.2984 8.66232 16.0312C8.51232 15.9422 8.41857 15.9375 6.21076 15.9375C4.00294 15.9375 3.90919 15.9422 3.75919 16.0312Z" fill="#1D3A70"/>
<path d="M19.3591 16.1156C19.1857 16.1953 19.0498 16.35 18.2388 17.3672C17.7654 17.9578 17.3482 18.4734 17.3154 18.5109C17.2638 18.5672 17.1654 18.5109 16.6779 18.1641C16.0217 17.6953 15.8435 17.6062 15.6373 17.6437C15.0045 17.7656 14.817 18.5156 15.3232 18.9141C15.6935 19.2047 17.0576 20.1703 17.1467 20.2078C17.3248 20.2781 17.531 20.2547 17.7138 20.1516C17.8263 20.0906 18.267 19.5797 19.031 18.6234C19.6638 17.8359 20.2029 17.1469 20.2357 17.0906C20.2685 17.0391 20.292 16.8797 20.2966 16.7437C20.2966 16.5187 20.2779 16.4766 20.1185 16.3031C19.9545 16.1297 19.9123 16.1109 19.6826 16.0969C19.542 16.0875 19.3966 16.0969 19.3591 16.1156Z" fill="#1D3A70"/>
</svg>
