<svg width="291" height="211" viewBox="0 0 291 211" fill="none" xmlns="http://www.w3.org/2000/svg">
<path d="M124.714 197.33C179.261 197.33 223.479 153.156 223.479 98.6649C223.479 44.1738 179.261 0 124.714 0C70.1677 0 25.949 44.1738 25.949 98.6649C25.949 153.156 70.1677 197.33 124.714 197.33Z" fill="#F2F2F2"/>
<path d="M39.1884 211C60.8315 211 78.3767 208.196 78.3767 204.736C78.3767 201.277 60.8315 198.472 39.1884 198.472C17.5452 198.472 0 201.277 0 204.736C0 208.196 17.5452 211 39.1884 211Z" fill="#F2F2F2"/>
<path d="M230.364 204.633C263.852 204.633 291 200.294 291 194.941C291 189.588 263.852 185.249 230.364 185.249C196.876 185.249 169.728 189.588 169.728 194.941C169.728 200.294 196.876 204.633 230.364 204.633Z" fill="#F2F2F2"/>
<path d="M216.892 101.782C216.892 101.782 217.408 103.501 214.483 105.048C211.557 106.595 210.697 112.44 214.138 114.159C217.58 115.878 218.613 118.113 216.892 119.66C215.171 121.207 212.074 125.333 216.203 126.364C220.333 127.396 220.85 129.459 219.645 130.318C218.44 131.178 222.398 128.771 222.398 128.771C222.398 128.771 223.087 132.897 226.7 131.865C230.314 130.834 240.466 111.237 235.304 108.486C230.142 105.736 216.892 101.782 216.892 101.782Z" fill="#2F2E41"/>
<path d="M223.129 118.381C223.129 118.381 224.914 124.622 221.79 125.068C219.852 125.37 218.015 126.134 216.435 127.297L222.236 134.875H232.946L239.64 128.188C239.64 128.188 230.715 121.502 232.5 117.489C234.285 113.477 223.129 118.381 223.129 118.381Z" fill="#FFB9B9"/>
<path opacity="0.1" d="M223.129 118.381C223.129 118.381 224.914 124.622 221.79 125.068C219.852 125.37 218.015 126.134 216.435 127.297L222.236 134.875H232.946L239.64 128.188C239.64 128.188 230.715 121.502 232.5 117.489C234.285 113.477 223.129 118.381 223.129 118.381Z" fill="black"/>
<path d="M225.806 195.949L236.07 199.515L243.209 199.961L242.763 193.72L228.037 189.369L225.806 195.949Z" fill="#FFB9B9"/>
<path d="M238.97 194.611C238.97 194.611 238.97 200.852 239.863 200.852C240.755 200.852 252.804 199.515 256.374 200.852C259.944 202.189 265.299 197.286 262.621 194.611C259.944 191.936 255.577 187.924 252.852 188.816C250.127 189.707 238.97 191.936 238.97 191.936V194.611Z" fill="#575A89"/>
<path d="M206.172 188.816C206.172 188.816 200.817 199.515 204.387 200.406C207.957 201.298 211.973 199.961 212.419 199.515C212.865 199.069 219.113 197.286 220.005 198.177C220.898 199.069 220.898 194.611 220.898 194.611L206.172 188.816Z" fill="#575A89"/>
<path d="M210.634 174.105C210.634 174.105 202.155 185.695 208.403 188.816C214.65 191.936 244.548 191.936 246.78 188.816C249.011 185.695 249.903 175.888 246.78 174.996C243.656 174.105 210.634 174.105 210.634 174.105Z" fill="#2F2E41"/>
<path opacity="0.2" d="M210.634 174.105C210.634 174.105 202.155 185.695 208.403 188.816C214.65 191.936 244.548 191.936 246.78 188.816C249.011 185.695 249.903 175.888 246.78 174.996C243.656 174.105 210.634 174.105 210.634 174.105Z" fill="black"/>
<path d="M226.699 121.502C232.367 121.502 236.962 116.911 236.962 111.249C236.962 105.586 232.367 100.995 226.699 100.995C221.03 100.995 216.435 105.586 216.435 111.249C216.435 116.911 221.03 121.502 226.699 121.502Z" fill="#FFB9B9"/>
<path d="M210.634 127.297L219.559 125.514C219.559 125.514 221.79 132.646 228.93 131.309C236.07 129.972 237.855 125.514 237.855 125.514C237.855 125.514 243.21 127.743 243.656 127.743C244.102 127.743 249.903 129.972 249.903 131.309C249.903 132.646 243.21 146.02 243.21 146.02L244.102 170.093L211.08 169.201L213.311 145.574L210.634 127.297Z" fill="#1D3A70"/>
<path d="M205.725 138.887C205.725 138.887 203.048 162.514 204.833 164.297C206.618 166.081 213.758 170.984 213.758 170.984V165.635L210.188 158.948L213.758 143.345L205.725 138.887Z" fill="#FFB9B9"/>
<path d="M251.911 138.219C251.911 138.219 250.35 162.514 250.35 163.406C250.35 164.297 246.333 167.418 244.995 167.418C243.656 167.418 242.763 165.189 242.763 165.189L245.887 161.623L243.656 143.345L251.911 138.219Z" fill="#FFB9B9"/>
<path d="M247.672 172.322C247.672 172.322 267.753 161.177 268.199 172.322C268.646 183.466 257.936 187.924 257.936 187.924C257.936 187.924 230.269 196.212 229.153 193.183C228.037 190.153 225.806 185.25 227.591 184.804C229.376 184.358 231.607 183.466 232.5 184.358C233.392 185.25 244.548 177.671 244.548 177.671L247.672 172.322Z" fill="#2F2E41"/>
<path opacity="0.2" d="M257.043 170.984C257.043 170.984 253.027 172.767 251.688 174.105C250.35 175.442 244.548 177.671 244.548 177.671" stroke="black" stroke-width="2" stroke-miterlimit="10"/>
<path d="M213.311 128.188L210.634 127.297C210.634 127.297 200.817 137.55 203.94 140.225C207.064 142.9 208.849 143.791 209.742 144.683C210.634 145.574 215.096 146.02 215.096 146.02L213.311 128.188Z" fill="#1D3A70"/>
<path d="M245.887 130.417L249.903 131.309C249.903 131.309 253.027 137.996 253.919 138.887C254.812 139.779 252.581 139.333 251.242 141.116C249.903 142.9 248.565 146.02 245.887 146.02C243.21 146.02 239.64 141.562 239.64 141.562L245.887 130.417Z" fill="#1D3A70"/>
<path d="M211.526 176.334C211.526 176.334 194.569 164.297 188.768 173.213C182.967 182.129 213.758 194.165 218.22 195.948C222.683 197.732 226.699 199.515 226.699 199.515C226.699 199.515 230.715 189.707 230.715 187.924C230.715 186.141 227.591 186.141 226.699 186.141C225.806 186.141 221.79 185.249 220.898 183.912C220.005 182.575 211.526 176.334 211.526 176.334Z" fill="#2F2E41"/>
<path opacity="0.2" d="M202.155 173.213C202.155 173.213 206.618 176.78 210.634 177.671C214.65 178.563 215.989 180.792 215.989 180.792" stroke="black" stroke-width="2" stroke-miterlimit="10"/>
<path d="M208.448 156.452L208.805 175.327C208.816 175.95 209.074 176.544 209.522 176.978C209.97 177.412 210.572 177.652 211.196 177.645L246.357 177.25C246.956 177.243 247.53 177.01 247.964 176.597C248.397 176.183 248.657 175.621 248.692 175.024L249.759 156.543C249.778 156.222 249.73 155.9 249.62 155.598C249.51 155.296 249.339 155.019 249.118 154.785C248.897 154.551 248.63 154.365 248.334 154.237C248.038 154.11 247.72 154.044 247.398 154.044H210.813C210.499 154.044 210.187 154.107 209.898 154.228C209.608 154.35 209.345 154.528 209.125 154.752C208.905 154.976 208.731 155.242 208.615 155.534C208.499 155.826 208.442 156.138 208.448 156.452Z" fill="#575A89"/>
<path d="M227.247 98.3685C227.247 98.3685 227.819 100.273 224.578 101.987C221.338 103.701 220.384 110.175 224.197 112.08C228.01 113.984 229.153 116.46 227.247 118.174C225.341 119.888 221.909 124.458 226.485 125.601C231.06 126.743 231.632 129.028 230.297 129.981C228.963 130.933 233.347 128.267 233.347 128.267C233.347 128.267 234.11 132.837 238.113 131.695C242.116 130.552 246.11 109.782 241.648 104.433C237.499 99.4585 227.247 98.3685 227.247 98.3685Z" fill="#2F2E41"/>
<path d="M226.029 96.4083C226.03 93.6184 234.386 95.6231 237.968 99.5185C240.449 102.216 244.217 106.274 241.059 109.135C237.902 111.996 246.471 115.746 248.769 116.883C251.068 118.02 255.606 121.497 251.508 123.829C247.411 126.162 247.477 128.517 249.019 129.074C250.561 129.632 245.619 128.245 245.619 128.245C245.619 128.245 246.119 132.852 241.955 132.83C237.792 132.808 225.848 109.95 228.701 103.597C231.354 97.6897 226.029 96.4083 226.029 96.4083Z" fill="#2F2E41"/>
<path d="M227.839 95.7969C216.666 95.1248 215.544 103.527 215.544 103.527C215.622 108.389 223.351 106.02 225.498 106.745C228.088 104.884 233.08 101.362 236.651 98.8487C234.058 97.0253 231.005 95.9677 227.839 95.7969Z" fill="#2F2E41"/>
<path d="M224.656 149.412C224.656 149.412 214.633 102.487 151.9 68.4465" stroke="#3F3D56" stroke-width="2" stroke-miterlimit="10"/>
<path d="M154.484 67.423L154.61 67.9375L152.072 68.5522L152.872 71.0358L152.367 71.1974L151.394 68.1724L154.484 67.423Z" fill="#3F3D56"/>
<path d="M18.1307 197.359C18.1307 203.303 14.5941 205.378 10.2311 205.378C10.1301 205.378 10.0292 205.377 9.92841 205.374C9.72626 205.37 9.52603 205.36 9.32822 205.347C5.3907 205.069 2.33154 202.887 2.33154 197.359C2.33154 191.639 9.64877 184.421 10.1984 183.887L10.1994 183.886C10.2206 183.865 10.2311 183.855 10.2311 183.855C10.2311 183.855 18.1307 191.416 18.1307 197.359Z" fill="#1D3A70"/>
<path d="M9.94346 204.468L12.8327 200.435L9.93624 204.911L9.92854 205.374C9.72639 205.37 9.52617 205.36 9.32836 205.347L9.63976 199.401L9.63735 199.354L9.64265 199.346L9.67201 198.784L6.76831 194.297L9.68115 198.363L9.68789 198.482L9.92324 193.99L7.43733 189.353L9.95357 193.201L10.1985 183.887L10.1995 183.855V183.886L10.1586 191.231L12.6335 188.319L10.1485 191.863L10.083 195.886L12.3938 192.025L10.0734 196.478L10.0368 198.714L13.3915 193.341L10.0243 199.494L9.94346 204.468Z" fill="#3F3D56"/>
<path d="M55.8098 195.819L57.4996 194.565C57.4996 194.565 58.6181 200.807 57.37 201.742C56.1218 202.677 51.4412 204.236 51.4412 206.106C51.4412 207.977 40.8318 210.47 40.5198 207.665C40.2078 204.859 41.4559 203.301 41.4559 203.301C41.4559 203.301 46.4486 198.313 47.0727 197.378C47.6967 196.443 49.2569 194.573 49.2569 194.573L55.8098 195.819Z" fill="#2F2E41"/>
<path d="M30.8467 118.2C30.8467 118.2 30.8935 118.475 30.9746 118.976C31.0495 119.422 31.1525 120.052 31.2773 120.828C32.5879 128.818 36.4104 152.337 36.1514 153.113C35.8393 154.048 33.655 157.477 36.1514 158.413C36.3916 158.503 36.6506 158.796 36.9283 159.257C37.4644 160.251 37.9063 161.293 38.2483 162.368C39.7367 166.683 41.3281 173.587 42.2486 178.369C42.6512 180.47 42.9257 182.16 43.0069 183.045C43.0351 183.25 43.0382 183.457 43.0162 183.662C42.7042 184.909 44.8885 189.273 45.8246 190.52C46.7607 191.767 48.3209 193.014 48.0089 194.261C47.6968 195.508 55.8099 198.937 56.746 196.755C57.6821 194.573 57.6821 193.326 57.9942 192.702C58.3062 192.079 58.6182 187.715 57.0581 187.091C55.4979 186.468 56.434 175.557 54.8738 173.375C54.3527 172.649 53.557 170.189 52.7238 167.231C52.3962 166.072 52.0654 164.837 51.7409 163.6C50.4241 158.528 49.257 153.425 49.257 153.425L49.5691 116.953L32.4069 114.771L31.9669 115.741L31.0901 117.664L30.8467 118.2Z" fill="#2F2E41"/>
<path d="M29.9104 178.051C29.9104 178.051 27.4141 175.557 26.166 178.051C24.9178 180.545 23.6696 190.208 21.4854 192.39C19.3011 194.573 16.4927 205.483 19.6131 206.106C22.7335 206.73 26.166 205.171 26.478 203.301C26.79 201.43 33.3429 191.767 33.3429 190.832C33.3429 189.897 28.9743 186.468 28.9743 186.468L29.9104 178.051Z" fill="#2F2E41"/>
<path d="M68.2914 101.056C68.2914 101.056 64.2349 137.527 63.2987 140.956C62.3626 144.385 57.37 157.477 55.8098 159.66C54.2496 161.842 44.2643 179.61 43.0161 180.545C41.768 181.48 39.2716 183.974 39.2716 183.974C39.2716 183.974 34.591 188.65 33.967 189.585C33.3429 190.52 28.0382 187.715 27.7262 185.844C27.4141 183.974 28.0382 180.857 28.3502 179.61C28.6623 178.363 27.7262 176.493 28.6623 175.557C29.5984 174.622 34.279 169.946 34.279 167.764C34.279 165.582 42.3921 152.802 45.5124 149.996C48.6328 147.191 48.0088 142.515 48.0088 142.515V123.5L30.8466 118.2C30.8466 118.2 31.7827 103.238 33.967 103.238C36.1512 103.238 64.8589 98.2501 68.2914 101.056Z" fill="#2F2E41"/>
<path d="M43.0161 48.9979C48.7031 48.9979 53.3134 44.3923 53.3134 38.7111C53.3134 33.0298 48.7031 28.4242 43.0161 28.4242C37.329 28.4242 32.7188 33.0298 32.7188 38.7111C32.7188 44.3923 37.329 48.9979 43.0161 48.9979Z" fill="#9F616A"/>
<path d="M46.4485 46.8158C46.4485 46.8158 47.6967 51.4917 49.2569 52.7386C50.8171 53.9855 45.2004 59.2847 45.2004 59.2847L34.591 59.9082L32.7188 53.9855C32.7188 53.9855 36.1512 47.1276 35.2151 42.7634C34.279 38.3993 46.4485 46.8158 46.4485 46.8158Z" fill="#9F616A"/>
<path d="M50.8173 52.1151C50.8173 52.1151 48.0089 52.4268 47.3848 53.362C46.7607 54.2972 42.3922 57.1027 38.9597 56.4792C35.5273 55.8558 33.343 54.9206 32.7189 55.2323C32.0948 55.5441 30.8467 62.0903 30.8467 62.0903L34.2791 72.0654L33.655 99.497L32.7189 106.978C32.7189 106.978 30.8467 104.485 38.3356 106.043C45.8246 107.602 55.4979 104.796 58.6183 104.485C61.7387 104.173 67.0434 103.238 67.3554 101.367C67.6674 99.497 66.4193 92.6391 66.4193 92.6391L61.4266 71.7537L58.3062 60.5316L50.8173 52.1151Z" fill="#1D3A70"/>
<path d="M47.8657 50.7082C47.8657 50.7082 50.5052 49.3096 51.4414 50.5565C52.3775 51.8034 64.235 53.6737 64.235 54.6089C64.235 55.544 66.7313 80.7936 66.1072 82.9757C65.4832 85.1578 67.3554 87.6515 67.3554 87.6515L69.5397 97.0032C69.5397 97.0032 75.4684 114.771 72.9721 115.395C70.4758 116.018 68.2915 115.395 67.3554 115.395C66.4193 115.395 66.7313 103.549 64.235 100.432C61.7387 97.3149 58.3062 89.5219 57.6822 87.9633C57.0581 86.4046 49.2571 64.8957 49.5691 62.402C49.8812 59.9082 47.8657 50.7082 47.8657 50.7082Z" fill="#D0CDE1"/>
<path d="M34.903 52.1151C34.903 52.1151 32.4067 52.1151 32.0947 52.7386C31.7826 53.362 28.6622 57.4144 27.4141 58.3496C26.1659 59.2847 21.7974 63.3371 21.7974 64.2723C21.7974 65.2075 30.8465 72.0654 30.8465 72.0654C30.8465 72.0654 34.591 90.457 32.7188 96.6915C30.8465 102.926 28.0382 117.889 29.2863 118.824C30.5345 119.759 33.3429 120.071 33.3429 118.824C33.3429 117.577 35.2151 104.173 36.7753 101.367C38.3355 98.5618 43.0161 80.7936 41.1439 75.806C39.2716 70.8185 34.903 52.1151 34.903 52.1151Z" fill="#D0CDE1"/>
<path d="M76.0923 82.9757C76.0923 82.9757 76.4044 92.6391 72.9719 97.6267C69.5395 102.614 67.3552 108.225 67.3552 108.225C67.3552 108.225 61.7385 106.667 60.8024 104.796C59.8663 102.926 53.9375 104.485 53.9375 103.861C53.9375 103.238 61.1144 100.12 61.7385 99.497C62.3626 98.8736 64.5469 98.8736 65.795 97.6267C67.0432 96.3798 67.3552 93.5743 67.3552 93.5743L68.6034 85.4695L76.0923 82.9757Z" fill="#9F616A"/>
<path d="M50.1085 32.3684C50.9007 32.2965 51.7177 32.2174 52.4179 31.8402C53.9866 30.995 54.4026 28.5882 53.2084 27.2665C52.8791 26.9302 52.5108 26.6344 52.1114 26.3853L49.7394 24.7725C48.6904 24.0592 47.6165 23.3342 46.393 22.9979C45.2864 22.6938 44.1175 22.725 42.972 22.7962C40.7481 22.9342 38.5105 23.2195 36.4189 23.9865C34.3272 24.7535 32.3761 26.0367 31.1093 27.8678C29.101 30.7707 29.0734 34.6857 30.1795 38.0369C31.2856 41.3881 33.3867 44.3063 35.457 47.1654L36.5312 41.9293C36.6269 41.463 36.7506 40.9518 37.1389 40.6758C38.1039 39.9898 39.2843 41.3983 40.4687 41.3892C41.2297 41.3833 41.8687 40.758 42.1571 40.0545C42.4455 39.3509 42.4645 38.5718 42.5312 37.8144C42.6725 36.2104 43.2338 33.9784 44.7544 33.0937C46.1714 32.2694 48.5158 32.5129 50.1085 32.3684Z" fill="#2F2E41"/>
<path opacity="0.1" d="M49.5308 118.452C49.5308 118.452 48.4769 148.905 47.8528 149.84C47.2287 150.775 47.8528 118.356 47.8528 118.356L49.5308 118.452Z" fill="black"/>
<path d="M61.7385 54.6089H64.2348C64.2348 54.6089 74.8442 68.9482 73.5961 69.8833C72.3479 70.8185 73.5961 73.3123 73.5961 73.3123L76.0924 77.9881C76.0924 77.9881 79.2128 80.7936 78.2767 81.4171C77.3405 82.0405 76.0924 84.5343 76.0924 84.5343C76.0924 84.5343 69.8516 83.5991 67.9793 87.3398L63.9322 82.2358L61.7385 54.6089Z" fill="#D0CDE1"/>
<path d="M62.6209 59.2211L54.0549 62.7548L60.6467 78.7014L69.2126 75.1677L62.6209 59.2211Z" fill="#2F2E41"/>
<path d="M61.617 68.5739C62.5631 68.1836 63.0392 67.1633 62.6803 66.295C62.3213 65.4267 61.2634 65.0392 60.3172 65.4295C59.371 65.8198 58.895 66.8401 59.2539 67.7084C59.6128 68.5767 60.6708 68.9642 61.617 68.5739Z" fill="#1D3A70"/>
<path d="M55.4979 79.5467C55.4979 79.5467 33.031 98.2501 29.2865 92.3274C25.542 86.4046 33.343 81.4171 33.343 81.4171C33.343 81.4171 40.2079 81.7288 48.0089 76.7412L55.8099 73.3123C55.8099 73.3123 62.9316 63.1551 65.3585 67.0229C67.7854 70.8906 61.2159 77.6222 55.4979 79.5467Z" fill="#9F616A"/>
<path d="M25.2299 63.0254L21.7975 64.2723V73.624L20.5493 75.4943C20.5493 75.4943 20.8614 79.235 21.7975 80.1702C22.7336 81.1053 24.6058 80.7936 23.9818 82.9757C23.6067 84.3983 23.5009 85.8784 23.6697 87.3398C23.6697 87.3398 29.2864 94.5094 29.5985 93.5742C29.9105 92.6391 34.2791 81.1053 34.9032 81.1053C35.5272 81.1053 28.6624 63.0254 28.6624 63.0254H25.2299Z" fill="#D0CDE1"/>
<path d="M66.2632 110.252C66.2632 110.252 69.4896 107.134 67.8764 106.978C66.2632 106.823 60.6465 103.705 59.7104 105.264C58.7743 106.823 66.2632 110.252 66.2632 110.252Z" fill="#2F2E41"/>
<path d="M127.627 50.7873C130.113 50.7873 132.128 49.7215 132.128 48.4067C132.128 47.0919 130.113 46.026 127.627 46.026C125.141 46.026 123.125 47.0919 123.125 48.4067C123.125 49.7215 125.141 50.7873 127.627 50.7873Z" fill="#57B894"/>
<path d="M144.838 56.3422C134.688 52.5126 124.538 52.5126 114.388 56.3422V43.9099C124.317 40.9168 134.909 40.9168 144.838 43.9099V56.3422Z" stroke="#3F3D56" stroke-width="2" stroke-miterlimit="10"/>
<path d="M140.602 53.7712C133.276 51.0072 125.95 51.0072 118.624 53.7712V44.7983C125.79 42.638 133.435 42.638 140.602 44.7983V53.7712Z" stroke="#3F3D56" stroke-width="2" stroke-miterlimit="10"/>
<path d="M129.216 49.7293C131.702 49.7293 133.717 48.6635 133.717 47.3487C133.717 46.0339 131.702 44.968 129.216 44.968C126.73 44.968 124.714 46.0339 124.714 47.3487C124.714 48.6635 126.73 49.7293 129.216 49.7293Z" stroke="#3F3D56" stroke-width="2" stroke-miterlimit="10"/>
<path d="M130.937 65.6964C133.373 65.1998 135.134 63.7529 134.871 62.4646C134.607 61.1764 132.419 60.5347 129.984 61.0313C127.548 61.5279 125.787 62.9749 126.05 64.2631C126.313 65.5513 128.501 66.1931 130.937 65.6964Z" fill="#57B894"/>
<path d="M148.912 67.7008C138.2 65.9763 128.255 68.004 119.077 73.7839L116.588 61.6027C125.717 56.6866 136.096 54.5705 146.423 55.5196L148.912 67.7008Z" stroke="#3F3D56" stroke-width="2" stroke-miterlimit="10"/>
<path d="M144.246 66.0281C136.515 64.7834 129.338 66.2469 122.713 70.4185L120.917 61.6269C127.506 58.0787 134.996 56.5514 142.45 57.2365L144.246 66.0281Z" stroke="#3F3D56" stroke-width="2" stroke-miterlimit="10"/>
<path d="M132.282 64.3424C134.717 63.8458 136.479 62.3989 136.215 61.1106C135.952 59.8224 133.764 59.1807 131.328 59.6773C128.893 60.1739 127.131 61.6209 127.395 62.9091C127.658 64.1973 129.846 64.8391 132.282 64.3424Z" stroke="#3F3D56" stroke-width="2" stroke-miterlimit="10"/>
<path d="M134.017 78.473C134.109 77.1614 132.172 75.9584 129.692 75.786C127.212 75.6136 125.128 76.5371 125.036 77.8487C124.945 79.1603 126.881 80.3634 129.361 80.5358C131.841 80.7082 133.926 79.7847 134.017 78.473Z" fill="#57B894"/>
<path d="M146.145 87.2707C136.285 82.7465 126.16 82.0426 115.768 85.1591L116.632 72.7568C126.745 70.4594 137.312 71.194 147.009 74.8684L146.145 87.2707Z" stroke="#3F3D56" stroke-width="2" stroke-miterlimit="10"/>
<path d="M142.097 84.4121C134.981 81.1467 127.673 80.6387 120.173 82.888L120.796 73.9367C128.095 72.2787 135.722 72.8088 142.721 75.4608L142.097 84.4121Z" stroke="#3F3D56" stroke-width="2" stroke-miterlimit="10"/>
<path d="M135.676 77.5276C135.767 76.216 133.831 75.0129 131.351 74.8405C128.871 74.6681 126.786 75.5917 126.695 76.9033C126.603 78.2149 128.54 79.418 131.02 79.5904C133.5 79.7628 135.584 78.8392 135.676 77.5276Z" stroke="#3F3D56" stroke-width="2" stroke-miterlimit="10"/>
<path d="M109.866 56.6309C109.866 56.6309 90.4048 53.9712 76.5073 62.1074" stroke="#3F3D56" stroke-width="2" stroke-miterlimit="10"/>
<path d="M76.9754 59.3732L77.4808 59.5329L76.6907 62.0191L79.2311 62.6246L79.1074 63.1396L76.0139 62.4013L76.9754 59.3732Z" fill="#3F3D56"/>
</svg>
