<svg width="68" height="63" viewBox="0 0 68 63" fill="none" xmlns="http://www.w3.org/2000/svg">
<path fill-rule="evenodd" clip-rule="evenodd" d="M57.419 23.8591C59.4113 28.4732 63.9803 32.2336 63.6199 37.2751C63.235 42.6579 60.8579 49.43 55.4517 51.3742C49.5983 53.4792 44.3899 46.6997 38.2158 46.4109C33.7665 46.2028 29.9827 50.0601 25.5243 49.9745C19.4697 49.8584 10.3076 51.195 8.41607 45.8391C6.31925 39.9019 15.9612 35.4192 18.2589 29.4021C19.6046 25.8779 17.5101 22.0394 18.8504 18.5135C20.4644 14.2675 21.9411 8.20436 26.629 7.38218C31.7369 6.48632 34.2017 13.9739 39.2255 14.9399C43.8051 15.8205 48.7782 10.4151 52.8933 12.4325C56.7924 14.344 55.7607 20.0183 57.419 23.8591Z" fill="#E7EEFB"/>
<rect x="20.5164" y="14.395" width="34" height="34" rx="10" fill="#1D3A70"/>
<path d="M36.0215 34.2747L35.2171 33.8038L39.2588 26.8093L40.0534 27.2801L36.0215 34.2747ZM35.1778 31.214C34.6285 31.214 34.2001 31.0243 33.8927 30.645C33.5853 30.2657 33.4316 29.749 33.4316 29.095C33.4316 28.441 33.5853 27.9276 33.8927 27.5548C34.2001 27.1755 34.6285 26.9858 35.1778 26.9858C35.7272 26.9858 36.1556 27.1755 36.4629 27.5548C36.7703 27.9276 36.924 28.441 36.924 29.095C36.924 29.749 36.7703 30.2657 36.4629 30.645C36.1556 31.0243 35.7272 31.214 35.1778 31.214ZM35.1778 30.3899C35.4133 30.3899 35.5964 30.2853 35.7272 30.076C35.858 29.8602 35.9234 29.5332 35.9234 29.095C35.9234 28.6568 35.858 28.3331 35.7272 28.1238C35.5964 27.9145 35.4133 27.8099 35.1778 27.8099C34.9424 27.8099 34.7593 27.9145 34.6285 28.1238C34.4977 28.3265 34.4323 28.6503 34.4323 29.095C34.4323 29.5397 34.4977 29.8667 34.6285 30.076C34.7593 30.2853 34.9424 30.3899 35.1778 30.3899ZM40.1024 34.0981C39.5531 34.0981 39.1247 33.9084 38.8173 33.5291C38.51 33.1498 38.3563 32.6331 38.3563 31.9791C38.3563 31.3251 38.51 30.8117 38.8173 30.439C39.1247 30.0596 39.5531 29.87 40.1024 29.87C40.6518 29.87 41.0802 30.0596 41.3876 30.439C41.6949 30.8117 41.8486 31.3251 41.8486 31.9791C41.8486 32.6331 41.6949 33.1498 41.3876 33.5291C41.0802 33.9084 40.6518 34.0981 40.1024 34.0981ZM40.1024 33.2741C40.3379 33.2741 40.521 33.1694 40.6518 32.9601C40.7826 32.7443 40.848 32.4173 40.848 31.9791C40.848 31.541 40.7826 31.2172 40.6518 31.0079C40.521 30.7987 40.3379 30.694 40.1024 30.694C39.867 30.694 39.6839 30.7987 39.5531 31.0079C39.4223 31.2107 39.3569 31.5344 39.3569 31.9791C39.3569 32.4239 39.4223 32.7509 39.5531 32.9601C39.6839 33.1694 39.867 33.2741 40.1024 33.2741Z" fill="white"/>
<path d="M32.78 20H32.9823C33.8081 20 34.5571 20.423 35.2526 20.8683C36.8373 21.8832 38.655 21.3283 39.8775 20.5972C40.4477 20.2562 41.0796 20 41.7439 20H42.22C43.7554 20 45 21.2446 45 22.78V39.22C45 40.7554 43.7554 42 42.22 42H32.78C31.2446 42 30 40.7554 30 39.22V22.78C30 21.2446 31.2446 20 32.78 20Z" stroke="white" stroke-width="2"/>
<rect x="30" y="20" width="15" height="22" stroke="url(#paint0_linear_57_1164)"/>
<defs>
<linearGradient id="paint0_linear_57_1164" x1="37.5" y1="20" x2="37.5" y2="42" gradientUnits="userSpaceOnUse">
<stop stop-color="#1D3A70"/>
<stop offset="1" stop-color="#5B54FA"/>
</linearGradient>
</defs>
</svg>
