<svg width="31" height="35" viewBox="0 0 31 35" fill="none" xmlns="http://www.w3.org/2000/svg">
<path d="M25.7334 1.19634C24.2568 3.1856 23.2109 4.96294 22.8486 6.10454C22.4248 7.43071 22.7598 8.86626 23.7373 9.89849C24.9678 11.2042 26.7725 11.5391 28.3994 10.7667C29.3906 10.2881 30.2246 9.25591 30.5049 8.16899C30.6348 7.64946 30.6348 6.86333 30.498 6.33013C30.3818 5.87895 29.8008 4.60747 29.3975 3.93755C28.625 2.65239 26.7793 0.068408 26.6357 0.068408C26.6016 0.068408 26.1982 0.574267 25.7334 1.19634Z" fill="#1D3A70"/>
<path d="M4.68554 3.30168C2.68945 5.96086 1.29492 8.29192 0.65918 10.0146C0.44043 10.6025 0.433594 10.6708 0.433594 11.5868C0.433594 12.4413 0.454102 12.5986 0.618164 13.0907C1.35644 15.2919 3.4209 16.7138 5.71777 16.5907C7.93261 16.4814 9.71679 15.0732 10.3799 12.9198C10.5098 12.5029 10.5439 12.2499 10.5439 11.5868C10.5439 10.8349 10.5234 10.7118 10.3184 10.1171C9.88085 8.86614 9.0537 7.32805 7.79589 5.44817C7.25585 4.63469 5.9707 2.87102 5.61523 2.44719L5.46484 2.25578L4.68554 3.30168Z" fill="#1D3A70"/>
<path d="M16.5459 10.0625C14.3926 12.8857 12.0615 16.3789 10.6533 18.8877C8.76658 22.2578 7.97361 24.5615 8.07615 26.373C8.21287 28.7041 9.08787 30.6592 10.7422 32.3066C11.8291 33.3936 12.9092 34.0703 14.2558 34.5215C15.3154 34.8701 15.9033 34.9658 17.1406 34.9658C18.3779 34.9658 18.9658 34.8701 20.0254 34.5215C22.2949 33.7627 24.3388 31.9443 25.3369 29.7979C25.9521 28.4648 26.1845 27.4395 26.1845 26.0449C26.1845 25.1631 26.164 24.9717 25.9795 24.2676C25.1591 21.1436 22.3701 16.2764 18.1865 10.6777C17.6465 9.95996 17.1748 9.36523 17.1406 9.36523C17.1064 9.36523 16.8398 9.67969 16.5459 10.0625Z" fill="#1D3A70"/>
</svg>
