<svg width="258" height="259" viewBox="0 0 258 259" fill="none" xmlns="http://www.w3.org/2000/svg">
<g clip-path="url(#clip0_16_951)">
<path d="M24.8108 218.185L22.5386 209.215C18.5098 207.506 14.3879 206.026 10.1926 204.782L9.90576 208.951L8.74261 204.358C3.53965 202.869 0 202.214 0 202.214C0 202.214 4.78003 220.412 14.8091 234.323L26.4939 236.378L17.4163 237.688C18.6779 239.207 20.0336 240.646 21.4755 241.994C36.0633 255.547 52.3116 261.765 57.7667 255.883C63.2219 250 55.8184 234.245 41.2306 220.694C36.7083 216.493 31.0273 213.121 25.3404 210.467L24.8108 218.185Z" fill="#F2F2F2"/>
<path d="M46.42 208.442L49.1073 199.589C46.5412 196.041 43.7774 192.642 40.8288 189.406L38.4305 192.826L39.8063 188.293C36.1205 184.328 33.4287 181.937 33.4287 181.937C33.4287 181.937 28.1239 199.987 29.5233 217.085L38.4651 224.889L30.0162 221.314C30.3118 223.267 30.7299 225.2 31.268 227.101C36.7567 246.25 47.4547 259.979 55.1623 257.766C62.8699 255.553 64.669 238.235 59.1803 219.087C57.4789 213.15 54.3566 207.325 50.8592 202.111L46.42 208.442Z" fill="#F2F2F2"/>
<path d="M180.031 61.3573H178.614V22.4939C178.614 19.54 178.032 16.615 176.903 13.8859C175.773 11.1568 174.118 8.67707 172.031 6.58832C169.944 4.49956 167.467 2.84267 164.74 1.71225C162.013 0.581821 159.091 0 156.139 0H73.872C67.9114 0 62.1951 2.36989 57.9803 6.58832C53.7656 10.8067 51.3978 16.5282 51.3978 22.4939V235.705C51.3978 238.659 51.9791 241.584 53.1086 244.313C54.238 247.042 55.8934 249.522 57.9803 251.61C60.0673 253.699 62.5448 255.356 65.2715 256.487C67.9982 257.617 70.9206 258.199 73.872 258.199H156.139C162.1 258.199 167.816 255.829 172.031 251.61C176.246 247.392 178.613 241.671 178.613 235.705V89.0209H180.031L180.031 61.3573Z" fill="#E6E6E6"/>
<path d="M157.046 5.84996H146.309C146.802 7.06183 146.991 8.37666 146.858 9.67862C146.724 10.9806 146.273 12.2297 145.543 13.3159C144.814 14.4022 143.829 15.2922 142.675 15.9076C141.52 16.5229 140.233 16.8448 138.925 16.8447H91.7951C90.4875 16.8446 89.2 16.5227 88.046 15.9073C86.892 15.2919 85.9069 14.4019 85.1775 13.3157C84.4482 12.2294 83.9969 10.9804 83.8635 9.67845C83.73 8.37655 83.9185 7.06177 84.4124 5.84996H74.3826C69.9313 5.84996 65.6624 7.61977 62.5149 10.7701C59.3674 13.9203 57.5991 18.193 57.5991 22.6482V235.55C57.5991 240.005 59.3674 244.277 62.5149 247.428C65.6624 250.578 69.9313 252.348 74.3826 252.348H157.046C161.498 252.348 165.767 250.578 168.914 247.428C172.062 244.277 173.83 240.005 173.83 235.55V22.6479C173.83 18.1927 172.062 13.9201 168.914 10.7699C165.766 7.61972 161.498 5.84996 157.046 5.84996Z" fill="white"/>
<path d="M105.181 90.659C105.181 89.1709 105.572 87.7089 106.316 86.4202C107.059 85.1316 108.129 84.0617 109.417 83.3183C108.13 82.5741 106.669 82.1822 105.182 82.1821C103.696 82.1819 102.235 82.5735 100.948 83.3174C99.66 84.0613 98.5907 85.1314 97.8473 86.42C97.1039 87.7087 96.7125 89.1705 96.7125 90.6585C96.7125 92.1465 97.1039 93.6084 97.8473 94.897C98.5907 96.1856 99.66 97.2557 100.948 97.9996C102.235 98.7435 103.696 99.1351 105.182 99.1349C106.669 99.1348 108.13 98.7429 109.417 97.9987C108.129 97.2555 107.059 96.1858 106.316 94.8973C105.572 93.6088 105.181 92.147 105.181 90.659Z" fill="#CCCCCC"/>
<path d="M115.828 90.659C115.827 89.1708 116.219 87.7089 116.962 86.4202C117.706 85.1315 118.776 84.0617 120.064 83.3183C118.776 82.5741 117.316 82.1822 115.829 82.1821C114.342 82.1819 112.882 82.5735 111.594 83.3174C110.307 84.0613 109.237 85.1314 108.494 86.42C107.751 87.7087 107.359 89.1705 107.359 90.6585C107.359 92.1465 107.751 93.6084 108.494 94.897C109.237 96.1856 110.307 97.2557 111.594 97.9996C112.882 98.7435 114.342 99.1351 115.829 99.1349C117.316 99.1348 118.776 98.7429 120.064 97.9987C118.776 97.2555 117.706 96.1858 116.963 94.8973C116.219 93.6088 115.827 92.147 115.828 90.659Z" fill="#CCCCCC"/>
<path d="M126.232 99.1351C130.91 99.1351 134.701 95.3401 134.701 90.6587C134.701 85.9773 130.91 82.1823 126.232 82.1823C121.555 82.1823 117.763 85.9773 117.763 90.6587C117.763 95.3401 121.555 99.1351 126.232 99.1351Z" fill="#1D3A70"/>
<path d="M140.386 117.134H91.0272C90.5573 117.133 90.1068 116.946 89.7745 116.614C89.4422 116.281 89.2553 115.83 89.2548 115.36V65.9574C89.2553 65.4871 89.4422 65.0362 89.7745 64.7036C90.1068 64.3711 90.5573 64.184 91.0272 64.1834H140.386C140.856 64.184 141.307 64.3711 141.639 64.7036C141.971 65.0362 142.158 65.4871 142.159 65.9574V115.36C142.158 115.83 141.971 116.281 141.639 116.614C141.307 116.946 140.856 117.133 140.386 117.134ZM91.0272 64.8935C90.7452 64.8937 90.4749 65.0059 90.2756 65.2055C90.0762 65.405 89.9641 65.6756 89.9638 65.9578V115.36C89.9641 115.643 90.0762 115.913 90.2756 116.113C90.4749 116.312 90.7452 116.424 91.0272 116.425H140.386C140.668 116.424 140.938 116.312 141.138 116.113C141.337 115.913 141.449 115.643 141.45 115.36V65.9578C141.449 65.6756 141.337 65.405 141.138 65.2055C140.938 65.0059 140.668 64.8937 140.386 64.8935H91.0272Z" fill="#CCCCCC"/>
<path d="M151.407 155.003H75.7054V155.713H151.407V155.003Z" fill="#CCCCCC"/>
<path d="M78.0962 150.573C79.4165 150.573 80.4869 149.501 80.4869 148.18C80.4869 146.858 79.4165 145.787 78.0962 145.787C76.7758 145.787 75.7054 146.858 75.7054 148.18C75.7054 149.501 76.7758 150.573 78.0962 150.573Z" fill="#1D3A70"/>
<path d="M151.407 178.93H75.7054V179.64H151.407V178.93Z" fill="#CCCCCC"/>
<path d="M78.0962 174.5C79.4165 174.5 80.4869 173.428 80.4869 172.107C80.4869 170.785 79.4165 169.714 78.0962 169.714C76.7758 169.714 75.7054 170.785 75.7054 172.107C75.7054 173.428 76.7758 174.5 78.0962 174.5Z" fill="#1D3A70"/>
<path d="M150.022 206.177H126.098C125.685 206.176 125.289 206.012 124.996 205.719C124.704 205.427 124.54 205.03 124.539 204.617V196.224C124.54 195.811 124.704 195.414 124.996 195.122C125.289 194.829 125.685 194.665 126.098 194.664H150.022C150.435 194.665 150.831 194.829 151.124 195.122C151.416 195.414 151.58 195.811 151.581 196.224V204.617C151.58 205.03 151.416 205.427 151.124 205.719C150.831 206.012 150.435 206.176 150.022 206.177Z" fill="#1D3A70"/>
<path d="M85.8945 150.573C87.2148 150.573 88.2852 149.501 88.2852 148.18C88.2852 146.858 87.2148 145.787 85.8945 145.787C84.5741 145.787 83.5038 146.858 83.5038 148.18C83.5038 149.501 84.5741 150.573 85.8945 150.573Z" fill="#1D3A70"/>
<path d="M93.6928 150.573C95.0132 150.573 96.0835 149.501 96.0835 148.18C96.0835 146.858 95.0132 145.787 93.6928 145.787C92.3725 145.787 91.3021 146.858 91.3021 148.18C91.3021 149.501 92.3725 150.573 93.6928 150.573Z" fill="#1D3A70"/>
<path d="M85.8945 174.5C87.2148 174.5 88.2852 173.428 88.2852 172.107C88.2852 170.785 87.2148 169.714 85.8945 169.714C84.5741 169.714 83.5038 170.785 83.5038 172.107C83.5038 173.428 84.5741 174.5 85.8945 174.5Z" fill="#1D3A70"/>
<path d="M93.6928 174.5C95.0132 174.5 96.0835 173.428 96.0835 172.107C96.0835 170.785 95.0132 169.714 93.6928 169.714C92.3725 169.714 91.3021 170.785 91.3021 172.107C91.3021 173.428 92.3725 174.5 93.6928 174.5Z" fill="#1D3A70"/>
<path d="M257.036 259H8.34083C7.80844 259 7.3772 258.811 7.3772 258.578C7.3772 258.345 7.80844 258.155 8.34083 258.155H257.036C257.568 258.155 258 258.344 258 258.578C258 258.811 257.568 259 257.036 259Z" fill="#3F3D56"/>
<path d="M195.592 169.689C195.762 169.766 195.926 169.858 196.081 169.962L211.617 163.325L212.171 159.229L218.379 159.191L218.012 168.585L197.507 174.013C197.464 174.156 197.412 174.296 197.352 174.432C197.055 175.065 196.579 175.596 195.981 175.959C195.384 176.322 194.693 176.5 193.995 176.471C193.297 176.442 192.623 176.208 192.058 175.797C191.493 175.386 191.061 174.817 190.818 174.161C190.575 173.506 190.531 172.793 190.691 172.112C190.852 171.432 191.209 170.814 191.719 170.336C192.229 169.858 192.869 169.542 193.558 169.426C194.247 169.311 194.955 169.403 195.592 169.689Z" fill="#FFB8B8"/>
<path d="M220.637 254.82H216.39L214.37 238.426L220.637 238.427L220.637 254.82Z" fill="#FFB8B8"/>
<path d="M213.357 253.606H221.547V258.767H208.2C208.2 257.398 208.744 256.085 209.711 255.117C210.678 254.15 211.989 253.606 213.357 253.606Z" fill="#2F2E41"/>
<path d="M237.152 253.619L232.926 254.036L229.309 237.92L235.547 237.305L237.152 253.619Z" fill="#FFB8B8"/>
<path d="M229.789 253.125L237.939 252.322L238.444 257.458L225.162 258.767C225.096 258.093 225.163 257.412 225.36 256.763C225.556 256.115 225.878 255.511 226.308 254.987C226.738 254.463 227.266 254.029 227.863 253.71C228.46 253.39 229.115 253.192 229.789 253.125Z" fill="#2F2E41"/>
<path d="M221.819 141.841C226.517 141.841 230.326 138.028 230.326 133.326C230.326 128.623 226.517 124.811 221.819 124.811C217.12 124.811 213.311 128.623 213.311 133.326C213.311 138.028 217.12 141.841 221.819 141.841Z" fill="#FFB8B8"/>
<path d="M215.441 251.505C215.076 251.506 214.723 251.378 214.443 251.143C214.163 250.909 213.975 250.583 213.912 250.223C211.714 238.011 204.529 198.08 204.357 196.974C204.354 196.949 204.352 196.923 204.352 196.897V193.92C204.352 193.811 204.386 193.706 204.449 193.618L205.398 192.287C205.443 192.223 205.502 192.17 205.571 192.133C205.639 192.095 205.716 192.074 205.794 192.07C211.205 191.816 228.927 191.072 229.783 192.143C230.643 193.219 230.339 196.479 230.269 197.121L230.273 197.188L238.234 248.149C238.297 248.556 238.196 248.97 237.956 249.303C237.715 249.637 237.353 249.861 236.947 249.929L231.975 250.749C231.604 250.809 231.225 250.733 230.905 250.537C230.586 250.34 230.348 250.035 230.234 249.677C228.696 244.758 223.539 228.211 221.751 221.808C221.74 221.768 221.715 221.733 221.68 221.71C221.644 221.687 221.602 221.677 221.56 221.683C221.519 221.689 221.481 221.71 221.453 221.742C221.426 221.774 221.411 221.814 221.412 221.856C221.501 227.96 221.717 243.532 221.791 248.911L221.799 249.49C221.803 249.882 221.659 250.261 221.396 250.552C221.134 250.844 220.772 251.026 220.382 251.063L215.587 251.499C215.538 251.503 215.489 251.505 215.441 251.505Z" fill="#2F2E41"/>
<path d="M216.42 145.189C214.935 146.072 214.046 147.695 213.537 149.347C212.593 152.405 212.025 155.567 211.845 158.763L211.306 168.332L204.636 193.699C210.417 198.594 213.752 197.481 221.533 193.477C229.314 189.473 230.204 194.812 230.204 194.812L231.76 173.228L233.983 149.642C233.484 149.041 232.919 148.497 232.299 148.022C230.244 146.423 227.853 145.311 225.307 144.771C222.76 144.231 220.124 144.276 217.598 144.903L216.42 145.189Z" fill="#1D3A70"/>
<path d="M214.253 174.812C214.433 174.879 214.606 174.961 214.773 175.056L230.134 167.36L230.389 163.191L236.726 162.754L237.065 172.258L216.537 179.052C216.369 179.772 215.987 180.423 215.44 180.92C214.894 181.417 214.209 181.735 213.477 181.833C212.746 181.931 212.001 181.803 211.344 181.467C210.686 181.131 210.146 180.603 209.796 179.953C209.446 179.302 209.302 178.561 209.383 177.826C209.464 177.092 209.767 176.4 210.25 175.841C210.734 175.283 211.376 174.886 212.091 174.702C212.806 174.518 213.56 174.556 214.253 174.812Z" fill="#FFB8B8"/>
<path d="M233.872 149.75C237.651 151.086 238.317 165.55 238.317 165.55C233.871 163.102 228.535 167.108 228.535 167.108C228.535 167.108 227.423 163.325 226.089 158.43C225.686 157.053 225.638 155.596 225.949 154.195C226.26 152.795 226.92 151.496 227.868 150.419C227.868 150.419 230.092 148.414 233.872 149.75Z" fill="#1D3A70"/>
<path d="M229.447 135.578C228.387 134.729 226.941 136.272 226.941 136.272L226.093 128.633C226.093 128.633 220.793 129.268 217.401 128.421C214.009 127.573 213.479 131.498 213.479 131.498C213.304 129.912 213.269 128.315 213.373 126.724C213.585 124.814 216.341 122.904 221.217 121.631C226.093 120.358 228.637 125.875 228.637 125.875C232.029 127.572 230.507 136.426 229.447 135.578Z" fill="#2F2E41"/>
</g>
<defs>
<clipPath id="clip0_16_951">
<rect width="258" height="259" fill="white"/>
</clipPath>
</defs>
</svg>
